TwilioSansMono-SemiBold.ufo
<glyph name="exclam" format="2">
	<unicode hex="0021"/>
	<advance width="600"/>
	<outline>
		<contour>
			<point x="254" y="219" type="line"/>
			<point x="344" y="219" type="line"/>
			<point x="368" y="552" type="line"/>
			<point x="368" y="684" type="line"/>
			<point x="231" y="684" type="line"/>
			<point x="231" y="552" type="line"/>
		</contour>
		<contour>
			<point x="301" y="-12" type="curve" smooth="yes"/>
			<point x="356" y="-12"/>
			<point x="384" y="9"/>
			<point x="384" y="64" type="curve" smooth="yes"/>
			<point x="384" y="118"/>
			<point x="356" y="140"/>
			<point x="301" y="140" type="curve" smooth="yes"/>
			<point x="244" y="140"/>
			<point x="216" y="118"/>
			<point x="216" y="64" type="curve" smooth="yes"/>
			<point x="216" y="9"/>
			<point x="244" y="-12"/>
		</contour>
	</outline>
</glyph>
<glyph name="percent" format="2">
	<unicode hex="0025"/>
	<advance width="600"/>
	<outline>
		<contour>
			<point x="167" y="338" type="curve" smooth="yes"/>
			<point x="256" y="338"/>
			<point x="312" y="397"/>
			<point x="312" y="517" type="curve" smooth="yes"/>
			<point x="312" y="637"/>
			<point x="256" y="696"/>
			<point x="167" y="696" type="curve" smooth="yes"/>
			<point x="77" y="696"/>
			<point x="22" y="636"/>
			<point x="22" y="517" type="curve" smooth="yes"/>
			<point x="22" y="398"/>
			<point x="77" y="338"/>
		</contour>
		<contour>
			<point x="380" y="414" type="line"/>
			<point x="474" y="414" type="line"/>
			<point x="578" y="684" type="line"/>
			<point x="466" y="684" type="line"/>
		</contour>
		<contour>
			<point x="167" y="403" type="curve" smooth="yes"/>
			<point x="130" y="403"/>
			<point x="108" y="433"/>
			<point x="108" y="517" type="curve" smooth="yes"/>
			<point x="108" y="601"/>
			<point x="129" y="632"/>
			<point x="167" y="632" type="curve" smooth="yes"/>
			<point x="204" y="632"/>
			<point x="226" y="601"/>
			<point x="226" y="517" type="curve" smooth="yes"/>
			<point x="226" y="433"/>
			<point x="204" y="403"/>
		</contour>
		<contour>
			<point x="433" y="-12" type="curve" smooth="yes"/>
			<point x="524" y="-12"/>
			<point x="578" y="46"/>
			<point x="578" y="167" type="curve" smooth="yes"/>
			<point x="578" y="287"/>
			<point x="522" y="346"/>
			<point x="434" y="346" type="curve" smooth="yes"/>
			<point x="344" y="346"/>
			<point x="288" y="286"/>
			<point x="288" y="167" type="curve" smooth="yes"/>
			<point x="288" y="47"/>
			<point x="340" y="-12"/>
		</contour>
		<contour>
			<point x="434" y="53" type="curve" smooth="yes"/>
			<point x="396" y="53"/>
			<point x="374" y="82"/>
			<point x="374" y="167" type="curve" smooth="yes"/>
			<point x="374" y="252"/>
			<point x="396" y="282"/>
			<point x="434" y="282" type="curve" smooth="yes"/>
			<point x="470" y="282"/>
			<point x="492" y="251"/>
			<point x="492" y="167" type="curve" smooth="yes"/>
			<point x="492" y="82"/>
			<point x="471" y="53"/>
		</contour>
		<contour>
			<point x="22" y="0" type="line"/>
			<point x="134" y="0" type="line"/>
			<point x="221" y="271" type="line"/>
			<point x="126" y="271" type="line"/>
		</contour>
	</outline>
</glyph>
<glyph name="quotesingle" format="2">
	<unicode hex="0027"/>
	<advance width="600"/>
	<outline>
		<contour>
			<point x="256" y="483" type="line"/>
			<point x="343" y="483" type="line"/>
			<point x="370" y="750" type="line"/>
			<point x="230" y="750" type="line"/>
		</contour>
	</outline>
</glyph>
<glyph name="parenleft" format="2">
	<unicode hex="0028"/>
	<advance width="600"/>
	<outline>
		<contour>
			<point x="469" y="-168" type="curve"/>
			<point x="506" y="-67" type="line"/>
			<point x="328" y="-2"/>
			<point x="268" y="121"/>
			<point x="268" y="314" type="curve" smooth="yes"/>
			<point x="268" y="504"/>
			<point x="325" y="636"/>
			<point x="506" y="696" type="curve"/>
			<point x="469" y="798" type="line"/>
			<point x="242" y="716"/>
			<point x="152" y="563"/>
			<point x="152" y="316" type="curve" smooth="yes"/>
			<point x="152" y="69"/>
			<point x="235" y="-84"/>
		</contour>
	</outline>
</glyph>
<glyph name="asterisk" format="2">
	<unicode hex="002A"/>
	<advance width="600"/>
	<outline>
		<contour>
			<point x="480" y="147" type="line"/>
			<point x="540" y="252" type="line"/>
			<point x="358" y="321" type="line"/>
			<point x="542" y="389" type="line"/>
			<point x="482" y="494" type="line"/>
			<point x="329" y="370" type="line"/>
			<point x="362" y="564" type="line"/>
			<point x="241" y="564" type="line"/>
			<point x="272" y="370" type="line"/>
			<point x="118" y="496" type="line"/>
			<point x="58" y="391" type="line"/>
			<point x="244" y="321" type="line"/>
			<point x="59" y="251" type="line"/>
			<point x="119" y="146" type="line"/>
			<point x="272" y="272" type="line"/>
			<point x="241" y="76" type="line"/>
			<point x="362" y="76" type="line"/>
			<point x="329" y="271" type="line"/>
		</contour>
	</outline>
</glyph>
<glyph name="period" format="2">
	<unicode hex="002E"/>
	<advance width="600"/>
	<outline>
		<contour>
			<point x="300" y="-12" type="curve" smooth="yes"/>
			<point x="361" y="-12"/>
			<point x="393" y="11"/>
			<point x="393" y="73" type="curve" smooth="yes"/>
			<point x="393" y="133"/>
			<point x="361" y="155"/>
			<point x="300" y="155" type="curve" smooth="yes"/>
			<point x="239" y="155"/>
			<point x="207" y="133"/>
			<point x="207" y="73" type="curve" smooth="yes"/>
			<point x="207" y="11"/>
			<point x="239" y="-12"/>
		</contour>
	</outline>
</glyph>
<glyph name="slash" format="2">
	<unicode hex="002F"/>
	<advance width="600"/>
	<outline>
		<contour>
			<point x="418" y="792" type="line"/>
			<point x="60" y="-163" type="line"/>
			<point x="181" y="-163" type="line"/>
			<point x="540" y="792" type="line"/>
		</contour>
	</outline>
</glyph>
<glyph name="zero" format="2">
	<unicode hex="0030"/>
	<advance width="600"/>
	<outline>
		<contour>
			<point x="300" y="-14" type="curve" smooth="yes"/>
			<point x="460" y="-14"/>
			<point x="553" y="103"/>
			<point x="553" y="335" type="curve" smooth="yes"/>
			<point x="553" y="349" type="line" smooth="yes"/>
			<point x="553" y="580"/>
			<point x="460" y="698"/>
			<point x="300" y="698" type="curve" smooth="yes"/>
			<point x="140" y="698"/>
			<point x="47" y="580"/>
			<point x="47" y="349" type="curve" smooth="yes"/>
			<point x="47" y="335" type="line" smooth="yes"/>
			<point x="47" y="103"/>
			<point x="140" y="-14"/>
		</contour>
		<contour>
			<point x="300" y="90" type="curve" smooth="yes"/>
			<point x="214" y="90"/>
			<point x="165" y="157"/>
			<point x="165" y="338" type="curve" smooth="yes"/>
			<point x="165" y="345" type="line" smooth="yes"/>
			<point x="165" y="527"/>
			<point x="214" y="594"/>
			<point x="300" y="594" type="curve" smooth="yes"/>
			<point x="385" y="594"/>
			<point x="435" y="527"/>
			<point x="435" y="345" type="curve" smooth="yes"/>
			<point x="435" y="338" type="line" smooth="yes"/>
			<point x="435" y="157"/>
			<point x="385" y="90"/>
		</contour>
		<contour>
			<point x="300" y="265" type="curve" smooth="yes"/>
			<point x="342" y="265"/>
			<point x="366" y="286"/>
			<point x="366" y="342" type="curve" smooth="yes"/>
			<point x="366" y="400"/>
			<point x="342" y="421"/>
			<point x="300" y="421" type="curve" smooth="yes"/>
			<point x="258" y="421"/>
			<point x="234" y="399"/>
			<point x="234" y="342" type="curve" smooth="yes"/>
			<point x="234" y="286"/>
			<point x="258" y="265"/>
		</contour>
	</outline>
</glyph>
<glyph name="one" format="2">
	<unicode hex="0031"/>
	<advance width="600"/>
	<outline>
		<contour>
			<point x="55" y="0" type="line"/>
			<point x="567" y="0" type="line"/>
			<point x="567" y="111" type="line"/>
			<point x="388" y="111" type="line"/>
			<point x="388" y="684" type="line"/>
			<point x="259" y="684" type="line"/>
			<point x="60" y="527" type="line"/>
			<point x="60" y="401" type="line"/>
			<point x="261" y="557" type="line"/>
			<point x="261" y="111" type="line"/>
			<point x="55" y="111" type="line"/>
		</contour>
	</outline>
</glyph>
<glyph name="seven" format="2">
	<unicode hex="0037"/>
	<advance width="600"/>
	<outline>
		<contour>
			<point x="137" y="0" type="line"/>
			<point x="275" y="0" type="line"/>
			<point x="553" y="562" type="line"/>
			<point x="553" y="684" type="line"/>
			<point x="55" y="684" type="line"/>
			<point x="55" y="459" type="line"/>
			<point x="167" y="459" type="line"/>
			<point x="167" y="586" type="line"/>
			<point x="430" y="586" type="line"/>
		</contour>
	</outline>
</glyph>
<glyph name="eight" format="2">
	<unicode hex="0038"/>
	<advance width="600"/>
	<outline>
		<contour>
			<point x="300" y="-14" type="curve" smooth="yes"/>
			<point x="456" y="-14"/>
			<point x="558" y="48"/>
			<point x="558" y="182" type="curve" smooth="yes"/>
			<point x="558" y="287"/>
			<point x="492" y="334"/>
			<point x="418" y="350" type="curve"/>
			<point x="490" y="365"/>
			<point x="546" y="422"/>
			<point x="546" y="509" type="curve" smooth="yes"/>
			<point x="546" y="644"/>
			<point x="446" y="698"/>
			<point x="301" y="698" type="curve" smooth="yes"/>
			<point x="154" y="698"/>
			<point x="54" y="640"/>
			<point x="54" y="509" type="curve" smooth="yes"/>
			<point x="54" y="420"/>
			<point x="112" y="364"/>
			<point x="185" y="350" type="curve"/>
			<point x="109" y="335"/>
			<point x="42" y="287"/>
			<point x="42" y="180" type="curve" smooth="yes"/>
			<point x="42" y="46"/>
			<point x="143" y="-14"/>
		</contour>
		<contour>
			<point x="301" y="397" type="curve" smooth="yes"/>
			<point x="229" y="397"/>
			<point x="178" y="424"/>
			<point x="178" y="499" type="curve"/>
			<point x="178" y="574"/>
			<point x="229" y="601"/>
			<point x="300" y="601" type="curve" smooth="yes"/>
			<point x="372" y="601"/>
			<point x="423" y="574"/>
			<point x="423" y="499" type="curve"/>
			<point x="423" y="424"/>
			<point x="372" y="397"/>
		</contour>
		<contour>
			<point x="300" y="84" type="curve" smooth="yes"/>
			<point x="223" y="84"/>
			<point x="170" y="116"/>
			<point x="170" y="197" type="curve" smooth="yes"/>
			<point x="170" y="275"/>
			<point x="222" y="301"/>
			<point x="300" y="301" type="curve" smooth="yes"/>
			<point x="378" y="301"/>
			<point x="430" y="275"/>
			<point x="430" y="197" type="curve" smooth="yes"/>
			<point x="430" y="116"/>
			<point x="376" y="84"/>
		</contour>
	</outline>
</glyph>
<glyph name="greater" format="2">
	<unicode hex="003E"/>
	<advance width="600"/>
	<outline>
		<contour>
			<point x="69" y="24" type="line"/>
			<point x="531" y="229" type="line"/>
			<point x="531" y="366" type="line"/>
			<point x="69" y="571" type="line"/>
			<point x="69" y="450" type="line"/>
			<point x="430" y="298" type="line"/>
			<point x="69" y="146" type="line"/>
		</contour>
	</outline>
</glyph>
<glyph name="D" format="2">
	<unicode hex="0044"/>
	<advance width="600"/>
	<outline>
		<contour>
			<point x="61" y="0" type="line"/>
			<point x="292" y="0" type="line" smooth="yes"/>
			<point x="463" y="0"/>
			<point x="562" y="105"/>
			<point x="562" y="335" type="curve" smooth="yes"/>
			<point x="562" y="349" type="line" smooth="yes"/>
			<point x="562" y="580"/>
			<point x="459" y="684"/>
			<point x="288" y="684" type="curve" smooth="yes"/>
			<point x="61" y="684" type="line"/>
		</contour>
		<contour>
			<point x="270" y="580" type="line" smooth="yes"/>
			<point x="376" y="580"/>
			<point x="430" y="512"/>
			<point x="430" y="349" type="curve" smooth="yes"/>
			<point x="430" y="336" type="line" smooth="yes"/>
			<point x="430" y="173"/>
			<point x="382" y="105"/>
			<point x="273" y="105" type="curve" smooth="yes"/>
			<point x="188" y="105" type="line"/>
			<point x="188" y="580" type="line"/>
		</contour>
	</outline>
	<anchor name="center" x="159" y="342"/>
	<anchor name="bottom" x="315" y="0"/>
	<anchor name="top" x="274" y="684"/>
</glyph>
<glyph name="E" format="2">
	<unicode hex="0045"/>
	<advance width="600"/>
	<outline>
		<contour>
			<point x="80" y="684" type="line"/>
			<point x="80" y="0" type="line"/>
			<point x="541" y="0" type="line"/>
			<point x="541" y="105" type="line"/>
			<point x="207" y="105" type="line"/>
			<point x="207" y="291" type="line"/>
			<point x="497" y="291" type="line"/>
			<point x="497" y="395" type="line"/>
			<point x="207" y="395" type="line"/>
			<point x="207" y="580" type="line"/>
			<point x="535" y="580" type="line"/>
			<point x="535" y="684" type="line"/>
		</contour>
	</outline>
	<anchor name="ogonek" x="541" y="0"/>
	<anchor name="bottom" x="315" y="0"/>
	<anchor name="top" x="308" y="684"/>
</glyph>
<glyph name="G" format="2">
	<unicode hex="0047"/>
	<advance width="600"/>
	<outline>
		<contour>
			<point x="303" y="-14" type="curve" smooth="yes"/>
			<point x="455" y="-14"/>
			<point x="561" y="87"/>
			<point x="561" y="295" type="curve" smooth="yes"/>
			<point x="561" y="389" type="line"/>
			<point x="287" y="389" type="line"/>
			<point x="287" y="288" type="line"/>
			<point x="434" y="288" type="line"/>
			<point x="434" y="277" type="line" smooth="yes"/>
			<point x="434" y="151"/>
			<point x="384" y="90"/>
			<point x="306" y="90" type="curve" smooth="yes"/>
			<point x="214" y="90"/>
			<point x="164" y="157"/>
			<point x="164" y="334" type="curve" smooth="yes"/>
			<point x="164" y="341" type="line" smooth="yes"/>
			<point x="164" y="513"/>
			<point x="211" y="594"/>
			<point x="341" y="594" type="curve" smooth="yes"/>
			<point x="408" y="594"/>
			<point x="472" y="572"/>
			<point x="520" y="535" type="curve"/>
			<point x="520" y="649" type="line"/>
			<point x="480" y="676"/>
			<point x="412" y="698"/>
			<point x="330" y="698" type="curve" smooth="yes"/>
			<point x="129" y="698"/>
			<point x="33" y="567"/>
			<point x="33" y="344" type="curve" smooth="yes"/>
			<point x="33" y="330" type="line" smooth="yes"/>
			<point x="33" y="98"/>
			<point x="127" y="-14"/>
		</contour>
	</outline>
	<anchor name="top" x="319" y="684"/>
	<anchor name="bottom" x="305" y="0"/>
</glyph>
<glyph name="H" format="2">
	<unicode hex="0048"/>
	<advance width="600"/>
	<outline>
		<contour>
			<point x="64" y="0" type="line"/>
			<point x="190" y="0" type="line"/>
			<point x="190" y="294" type="line"/>
			<point x="410" y="294" type="line"/>
			<point x="410" y="0" type="line"/>
			<point x="536" y="0" type="line"/>
			<point x="536" y="684" type="line"/>
			<point x="410" y="684" type="line"/>
			<point x="410" y="400" type="line"/>
			<point x="190" y="400" type="line"/>
			<point x="190" y="684" type="line"/>
			<point x="64" y="684" type="line"/>
		</contour>
	</outline>
	<anchor name="center" x="300" y="531"/>
	<anchor name="bottom" x="292" y="0"/>
	<anchor name="top" x="300" y="684"/>
</glyph>
<glyph name="K" format="2">
	<unicode hex="004B"/>
	<advance width="600"/>
	<outline>
		<contour>
			<point x="66" y="0" type="line"/>
			<point x="193" y="0" type="line"/>
			<point x="193" y="183" type="line"/>
			<point x="284" y="313" type="line"/>
			<point x="438" y="0" type="line"/>
			<point x="582" y="0" type="line"/>
			<point x="382" y="402" type="line"/>
			<point x="566" y="684" type="line"/>
			<point x="421" y="684" type="line"/>
			<point x="193" y="330" type="line"/>
			<point x="193" y="684" type="line"/>
			<point x="66" y="684" type="line"/>
		</contour>
	</outline>
	<anchor name="top" x="322" y="684"/>
	<anchor name="bottom" x="313" y="0"/>
</glyph>
<glyph name="N" format="2">
	<unicode hex="004E"/>
	<advance width="600"/>
	<outline>
		<contour>
			<point x="63" y="0" type="line"/>
			<point x="180" y="0" type="line"/>
			<point x="180" y="290" type="line" smooth="yes"/>
			<point x="180" y="380"/>
			<point x="169" y="452"/>
			<point x="157" y="536" type="curve"/>
			<point x="164" y="536" type="line"/>
			<point x="377" y="0" type="line"/>
			<point x="537" y="0" type="line"/>
			<point x="537" y="684" type="line"/>
			<point x="420" y="684" type="line"/>
			<point x="420" y="395" type="line" smooth="yes"/>
			<point x="420" y="294"/>
			<point x="429" y="233"/>
			<point x="444" y="148" type="curve"/>
			<point x="436" y="148" type="line"/>
			<point x="223" y="684" type="line"/>
			<point x="63" y="684" type="line"/>
		</contour>
	</outline>
	<anchor name="top" x="318" y="684"/>
	<anchor name="bottom" x="275" y="0"/>
</glyph>
<glyph name="O" format="2">
	<unicode hex="004F"/>
	<advance width="600"/>
	<outline>
		<contour>
			<point x="300" y="-14" type="curve" smooth="yes"/>
			<point x="460" y="-14"/>
			<point x="553" y="104"/>
			<point x="553" y="335" type="curve" smooth="yes"/>
			<point x="553" y="349" type="line" smooth="yes"/>
			<point x="553" y="580"/>
			<point x="460" y="698"/>
			<point x="300" y="698" type="curve" smooth="yes"/>
			<point x="140" y="698"/>
			<point x="47" y="580"/>
			<point x="47" y="349" type="curve" smooth="yes"/>
			<point x="47" y="335" type="line" smooth="yes"/>
			<point x="47" y="104"/>
			<point x="140" y="-14"/>
		</contour>
		<contour>
			<point x="300" y="90" type="curve" smooth="yes"/>
			<point x="223" y="90"/>
			<point x="178" y="158"/>
			<point x="178" y="338" type="curve" smooth="yes"/>
			<point x="178" y="345" type="line" smooth="yes"/>
			<point x="178" y="527"/>
			<point x="223" y="594"/>
			<point x="300" y="594" type="curve" smooth="yes"/>
			<point x="377" y="594"/>
			<point x="422" y="527"/>
			<point x="422" y="345" type="curve" smooth="yes"/>
			<point x="422" y="338" type="line" smooth="yes"/>
			<point x="422" y="158"/>
			<point x="377" y="90"/>
		</contour>
	</outline>
	<anchor name="center" x="304" y="348"/>
	<anchor name="bottom" x="301" y="0"/>
	<anchor name="top" x="301" y="684"/>
</glyph>
<glyph name="P" format="2">
	<unicode hex="0050"/>
	<advance width="600"/>
	<outline>
		<contour>
			<point x="73" y="0" type="line"/>
			<point x="199" y="0" type="line"/>
			<point x="199" y="211" type="line"/>
			<point x="337" y="211" type="line" smooth="yes"/>
			<point x="482" y="211"/>
			<point x="571" y="306"/>
			<point x="571" y="451" type="curve" smooth="yes"/>
			<point x="571" y="595"/>
			<point x="481" y="684"/>
			<point x="337" y="684" type="curve" smooth="yes"/>
			<point x="73" y="684" type="line"/>
		</contour>
		<contour>
			<point x="316" y="581" type="line" smooth="yes"/>
			<point x="403" y="581"/>
			<point x="443" y="528"/>
			<point x="443" y="450" type="curve" smooth="yes"/>
			<point x="443" y="371"/>
			<point x="403" y="314"/>
			<point x="316" y="314" type="curve" smooth="yes"/>
			<point x="199" y="314" type="line"/>
			<point x="199" y="581" type="line"/>
		</contour>
	</outline>
	<anchor name="top" x="335" y="684"/>
	<anchor name="bottom" x="182" y="0"/>
</glyph>
<glyph name="Q" format="2">
	<unicode hex="0051"/>
	<advance width="600"/>
	<outline>
		<contour>
			<point x="348" y="-77" type="curve" smooth="yes"/>
			<point x="490" y="-123" type="line"/>
			<point x="541" y="-24" type="line"/>
			<point x="369" y="25" type="line"/>
			<point x="504" y="54"/>
			<point x="553" y="190"/>
			<point x="553" y="350" type="curve" smooth="yes"/>
			<point x="553" y="366" type="line" smooth="yes"/>
			<point x="553" y="580"/>
			<point x="461" y="698"/>
			<point x="301" y="698" type="curve" smooth="yes"/>
			<point x="140" y="698"/>
			<point x="47" y="580"/>
			<point x="47" y="350" type="curve" smooth="yes"/>
			<point x="47" y="334" type="line" smooth="yes"/>
			<point x="47" y="110"/>
			<point x="125" y="-7"/>
		</contour>
		<contour>
			<point x="299" y="90" type="curve" smooth="yes"/>
			<point x="223" y="90"/>
			<point x="179" y="161"/>
			<point x="179" y="337" type="curve" smooth="yes"/>
			<point x="179" y="348" type="line" smooth="yes"/>
			<point x="179" y="527"/>
			<point x="223" y="594"/>
			<point x="300" y="594" type="curve" smooth="yes"/>
			<point x="377" y="594"/>
			<point x="421" y="525"/>
			<point x="421" y="353" type="curve" smooth="yes"/>
			<point x="421" y="341" type="line" smooth="yes"/>
			<point x="421" y="168"/>
			<point x="374" y="90"/>
		</contour>
	</outline>
	<anchor name="top" x="282" y="684"/>
	<anchor name="bottom" x="289" y="0"/>
</glyph>
<glyph name="R" format="2">
	<unicode hex="0052"/>
	<advance width="600"/>
	<outline>
		<contour>
			<point x="66" y="0" type="line"/>
			<point x="192" y="0" type="line"/>
			<point x="192" y="249" type="line"/>
			<point x="294" y="249" type="line" smooth="yes"/>
			<point x="355" y="249"/>
			<point x="379" y="226"/>
			<point x="393" y="165" type="curve" smooth="yes"/>
			<point x="431" y="0" type="line"/>
			<point x="568" y="0" type="line"/>
			<point x="516" y="194" type="line" smooth="yes"/>
			<point x="500" y="260"/>
			<point x="466" y="293"/>
			<point x="406" y="303" type="curve"/>
			<point x="494" y="318"/>
			<point x="555" y="384"/>
			<point x="555" y="486" type="curve" smooth="yes"/>
			<point x="555" y="602"/>
			<point x="484" y="684"/>
			<point x="340" y="684" type="curve" smooth="yes"/>
			<point x="66" y="684" type="line"/>
		</contour>
		<contour>
			<point x="312" y="582" type="line" smooth="yes"/>
			<point x="392" y="582"/>
			<point x="427" y="535"/>
			<point x="427" y="469" type="curve" smooth="yes"/>
			<point x="427" y="399"/>
			<point x="392" y="350"/>
			<point x="312" y="350" type="curve" smooth="yes"/>
			<point x="192" y="350" type="line"/>
			<point x="192" y="582" type="line"/>
		</contour>
	</outline>
	<anchor name="top" x="286" y="684"/>
	<anchor name="bottom" x="313" y="0"/>
</glyph>
<glyph name="S" format="2">
	<unicode hex="0053"/>
	<advance width="600"/>
	<outline>
		<contour>
			<point x="307" y="-14" type="curve" smooth="yes"/>
			<point x="451" y="-14"/>
			<point x="549" y="61"/>
			<point x="549" y="207" type="curve" smooth="yes"/>
			<point x="549" y="353"/>
			<point x="437" y="380"/>
			<point x="313" y="403" type="curve" smooth="yes"/>
			<point x="227" y="418"/>
			<point x="180" y="436"/>
			<point x="180" y="499" type="curve" smooth="yes"/>
			<point x="180" y="564"/>
			<point x="230" y="596"/>
			<point x="299" y="596" type="curve" smooth="yes"/>
			<point x="383" y="596"/>
			<point x="472" y="568"/>
			<point x="531" y="526" type="curve"/>
			<point x="531" y="640" type="line"/>
			<point x="479" y="673"/>
			<point x="392" y="698"/>
			<point x="302" y="698" type="curve" smooth="yes"/>
			<point x="155" y="698"/>
			<point x="53" y="622"/>
			<point x="53" y="483" type="curve" smooth="yes"/>
			<point x="53" y="334"/>
			<point x="154" y="306"/>
			<point x="283" y="284" type="curve" smooth="yes"/>
			<point x="365" y="270"/>
			<point x="422" y="257"/>
			<point x="422" y="188" type="curve" smooth="yes"/>
			<point x="422" y="122"/>
			<point x="375" y="90"/>
			<point x="305" y="90" type="curve" smooth="yes"/>
			<point x="223" y="90"/>
			<point x="137" y="121"/>
			<point x="62" y="178" type="curve"/>
			<point x="62" y="58" type="line"/>
			<point x="121" y="19"/>
			<point x="197" y="-14"/>
		</contour>
	</outline>
	<anchor name="top" x="307" y="684"/>
	<anchor name="bottom" x="309" y="0"/>
</glyph>
<glyph name="T" format="2">
	<unicode hex="0054"/>
	<advance width="600"/>
	<outline>
		<contour>
			<point x="236" y="0" type="line"/>
			<point x="363" y="0" type="line"/>
			<point x="363" y="575" type="line"/>
			<point x="564" y="575" type="line"/>
			<point x="564" y="684" type="line"/>
			<point x="36" y="684" type="line"/>
			<point x="36" y="575" type="line"/>
			<point x="236" y="575" type="line"/>
		</contour>
	</outline>
	<anchor name="center" x="299" y="346"/>
	<anchor name="bottom" x="299" y="0"/>
	<anchor name="top" x="300" y="684"/>
</glyph>
<glyph name="W" format="2">
	<unicode hex="0057"/>
	<advance width="600"/>
	<outline>
		<contour>
			<point x="78" y="0" type="line"/>
			<point x="246" y="0" type="line"/>
			<point x="295" y="380" type="line"/>
			<point x="303" y="380" type="line"/>
			<point x="354" y="0" type="line"/>
			<point x="523" y="0" type="line"/>
			<point x="574" y="684" type="line"/>
			<point x="458" y="685" type="line"/>
			<point x="428" y="137" type="line"/>
			<point x="419" y="137" type="line"/>
			<point x="368" y="536" type="line"/>
			<point x="234" y="536" type="line"/>
			<point x="183" y="137" type="line"/>
			<point x="173" y="137" type="line"/>
			<point x="142" y="684" type="line"/>
			<point x="26" y="684" type="line"/>
		</contour>
	</outline>
	<anchor name="top" x="300" y="684"/>
</glyph>
<glyph name="Y" format="2">
	<unicode hex="0059"/>
	<advance width="600"/>
	<outline>
		<contour>
			<point x="232" y="0" type="line"/>
			<point x="361" y="0" type="line"/>
			<point x="361" y="232" type="line"/>
			<point x="581" y="684" type="line"/>
			<point x="443" y="684" type="line"/>
			<point x="300" y="369" type="line"/>
			<point x="158" y="684" type="line"/>
			<point x="19" y="684" type="line"/>
			<point x="232" y="233" type="line"/>
		</contour>
	</outline>
	<anchor name="top" x="301" y="684"/>
	<anchor name="bottom" x="306" y="0"/>
</glyph>
<glyph name="Z" format="2">
	<unicode hex="005A"/>
	<advance width="600"/>
	<outline>
		<contour>
			<point x="53" y="0" type="line"/>
			<point x="547" y="0" type="line"/>
			<point x="547" y="105" type="line"/>
			<point x="209" y="105" type="line"/>
			<point x="546" y="575" type="line"/>
			<point x="546" y="684" type="line"/>
			<point x="68" y="684" type="line"/>
			<point x="68" y="580" type="line"/>
			<point x="405" y="580" type="line"/>
			<point x="53" y="100" type="line"/>
		</contour>
	</outline>
	<anchor name="top" x="305" y="684"/>
	<anchor name="bottom" x="300" y="0"/>
</glyph>
<glyph name="backslash" format="2">
	<unicode hex="005C"/>
	<advance width="600"/>
	<outline>
		<contour>
			<point x="417" y="-163" type="line"/>
			<point x="541" y="-163" type="line"/>
			<point x="183" y="792" type="line"/>
			<point x="59" y="792" type="line"/>
		</contour>
	</outline>
</glyph>
<glyph name="underscore" format="2">
	<unicode hex="005F"/>
	<advance width="600"/>
	<outline>
		<contour>
			<point x="30" y="-84" type="line"/>
			<point x="30" y="-179" type="line"/>
			<point x="570" y="-179" type="line"/>
			<point x="570" y="-84" type="line"/>
		</contour>
	</outline>
</glyph>
<glyph name="grave" format="2">
	<unicode hex="0060"/>
	<advance width="600"/>
	<outline>
		<contour>
			<point x="182" y="750" type="line"/>
			<point x="288" y="602" type="line"/>
			<point x="385" y="602" type="line"/>
			<point x="320" y="750" type="line"/>
		</contour>
	</outline>
	<anchor name="_top" x="334" y="523"/>
</glyph>
<glyph name="a" format="2">
	<unicode hex="0061"/>
	<advance width="600"/>
	<outline>
		<contour>
			<point x="223" y="-14" type="curve" smooth="yes"/>
			<point x="300" y="-14"/>
			<point x="359" y="27"/>
			<point x="394" y="98" type="curve"/>
			<point x="394" y="0" type="line"/>
			<point x="514" y="0" type="line"/>
			<point x="514" y="347" type="line" smooth="yes"/>
			<point x="514" y="470"/>
			<point x="436" y="537"/>
			<point x="292" y="537" type="curve" smooth="yes"/>
			<point x="209" y="537"/>
			<point x="135" y="513"/>
			<point x="84" y="484" type="curve"/>
			<point x="84" y="378" type="line"/>
			<point x="142" y="418"/>
			<point x="215" y="437"/>
			<point x="273" y="437" type="curve" smooth="yes"/>
			<point x="346" y="437"/>
			<point x="390" y="402"/>
			<point x="390" y="336" type="curve" smooth="yes"/>
			<point x="390" y="329" type="line"/>
			<point x="283" y="314" type="line" smooth="yes"/>
			<point x="140" y="294"/>
			<point x="71" y="230"/>
			<point x="71" y="131" type="curve" smooth="yes"/>
			<point x="71" y="41"/>
			<point x="135" y="-14"/>
		</contour>
		<contour>
			<point x="275" y="78" type="curve" smooth="yes"/>
			<point x="228" y="78"/>
			<point x="189" y="103"/>
			<point x="189" y="149" type="curve" smooth="yes"/>
			<point x="189" y="202"/>
			<point x="227" y="226"/>
			<point x="308" y="238" type="curve" smooth="yes"/>
			<point x="390" y="250" type="line"/>
			<point x="390" y="189" type="line" smooth="yes"/>
			<point x="390" y="117"/>
			<point x="331" y="78"/>
		</contour>
	</outline>
	<anchor name="ogonek" x="514" y="0"/>
	<anchor name="bottom" x="298" y="0"/>
	<anchor name="top" x="296" y="523"/>
</glyph>
<glyph name="b" format="2">
	<unicode hex="0062"/>
	<advance width="600"/>
	<outline>
		<contour>
			<point x="356" y="-14" type="curve" smooth="yes"/>
			<point x="467" y="-14"/>
			<point x="550" y="84"/>
			<point x="550" y="255" type="curve" smooth="yes"/>
			<point x="550" y="269" type="line" smooth="yes"/>
			<point x="550" y="437"/>
			<point x="478" y="537"/>
			<point x="364" y="537" type="curve" smooth="yes"/>
			<point x="286" y="537"/>
			<point x="229" y="489"/>
			<point x="194" y="419" type="curve"/>
			<point x="194" y="750" type="line"/>
			<point x="69" y="750" type="line"/>
			<point x="69" y="0" type="line"/>
			<point x="190" y="0" type="line"/>
			<point x="190" y="95" type="line"/>
			<point x="227" y="22"/>
			<point x="281" y="-14"/>
		</contour>
		<contour>
			<point x="306" y="85" type="curve" smooth="yes"/>
			<point x="234" y="85"/>
			<point x="188" y="143"/>
			<point x="188" y="258" type="curve" smooth="yes"/>
			<point x="188" y="265" type="line" smooth="yes"/>
			<point x="188" y="381"/>
			<point x="238" y="439"/>
			<point x="307" y="439" type="curve" smooth="yes"/>
			<point x="378" y="439"/>
			<point x="422" y="383"/>
			<point x="422" y="265" type="curve" smooth="yes"/>
			<point x="422" y="258" type="line" smooth="yes"/>
			<point x="422" y="142"/>
			<point x="379" y="85"/>
		</contour>
	</outline>
</glyph>
<glyph name="c" format="2">
	<unicode hex="0063"/>
	<advance width="600"/>
	<outline>
		<contour>
			<point x="363" y="-12" type="curve" smooth="yes"/>
			<point x="431" y="-12"/>
			<point x="482" y="3"/>
			<point x="513" y="23" type="curve"/>
			<point x="513" y="119" type="line"/>
			<point x="482" y="102"/>
			<point x="435" y="88"/>
			<point x="384" y="88" type="curve" smooth="yes"/>
			<point x="279" y="88"/>
			<point x="213" y="147"/>
			<point x="213" y="259" type="curve" smooth="yes"/>
			<point x="213" y="266" type="line" smooth="yes"/>
			<point x="213" y="376"/>
			<point x="277" y="435"/>
			<point x="387" y="435" type="curve" smooth="yes"/>
			<point x="432" y="435"/>
			<point x="479" y="425"/>
			<point x="513" y="405" type="curve"/>
			<point x="513" y="504" type="line"/>
			<point x="481" y="521"/>
			<point x="427" y="535"/>
			<point x="369" y="535" type="curve" smooth="yes"/>
			<point x="197" y="535"/>
			<point x="85" y="429"/>
			<point x="85" y="268" type="curve" smooth="yes"/>
			<point x="85" y="255" type="line" smooth="yes"/>
			<point x="85" y="90"/>
			<point x="186" y="-12"/>
		</contour>
	</outline>
	<anchor name="top" x="368" y="523"/>
	<anchor name="bottom" x="351" y="0"/>
</glyph>
<glyph name="e" format="2">
	<unicode hex="0065"/>
	<advance width="600"/>
	<outline>
		<contour>
			<point x="340" y="-14" type="curve" smooth="yes"/>
			<point x="412" y="-14"/>
			<point x="474" y="1"/>
			<point x="521" y="27" type="curve"/>
			<point x="521" y="122" type="line"/>
			<point x="476" y="100"/>
			<point x="424" y="86"/>
			<point x="367" y="86" type="curve" smooth="yes"/>
			<point x="263" y="86"/>
			<point x="192" y="133"/>
			<point x="185" y="227" type="curve"/>
			<point x="540" y="227" type="line"/>
			<point x="540" y="281" type="line" smooth="yes"/>
			<point x="540" y="450"/>
			<point x="450" y="537"/>
			<point x="305" y="537" type="curve" smooth="yes"/>
			<point x="165" y="537"/>
			<point x="60" y="434"/>
			<point x="60" y="269" type="curve" smooth="yes"/>
			<point x="60" y="256" type="line" smooth="yes"/>
			<point x="60" y="78"/>
			<point x="167" y="-14"/>
		</contour>
		<contour>
			<point x="305" y="448" type="curve" smooth="yes"/>
			<point x="370" y="448"/>
			<point x="414" y="401"/>
			<point x="420" y="310" type="curve"/>
			<point x="183" y="310" type="line"/>
			<point x="189" y="393"/>
			<point x="235" y="448"/>
		</contour>
	</outline>
	<anchor name="ogonek" x="454" y="0"/>
	<anchor name="top" x="305" y="523"/>
</glyph>
<glyph name="g" format="2">
	<unicode hex="0067"/>
	<advance width="600"/>
	<outline>
		<contour>
			<point x="250" y="-208" type="curve" smooth="yes"/>
			<point x="271" y="-208" type="line" smooth="yes"/>
			<point x="464" y="-208"/>
			<point x="563" y="-132"/>
			<point x="563" y="-27" type="curve" smooth="yes"/>
			<point x="563" y="63"/>
			<point x="501" y="94"/>
			<point x="389" y="94" type="curve" smooth="yes"/>
			<point x="241" y="94" type="line" smooth="yes"/>
			<point x="196" y="94"/>
			<point x="174" y="102"/>
			<point x="174" y="119" type="curve" smooth="yes"/>
			<point x="174" y="150"/>
			<point x="225" y="165"/>
			<point x="258" y="165" type="curve" smooth="yes"/>
			<point x="278" y="165" type="line" smooth="yes"/>
			<point x="402" y="165"/>
			<point x="497" y="231"/>
			<point x="497" y="342" type="curve" smooth="yes"/>
			<point x="497" y="375"/>
			<point x="488" y="405"/>
			<point x="472" y="424" type="curve"/>
			<point x="571" y="424" type="line"/>
			<point x="571" y="523" type="line"/>
			<point x="280" y="523" type="line" smooth="yes"/>
			<point x="163" y="523"/>
			<point x="61" y="459"/>
			<point x="61" y="338" type="curve" smooth="yes"/>
			<point x="61" y="261"/>
			<point x="103" y="203"/>
			<point x="181" y="179" type="curve"/>
			<point x="97" y="157"/>
			<point x="59" y="121"/>
			<point x="59" y="76" type="curve" smooth="yes"/>
			<point x="59" y="36"/>
			<point x="87" y="6"/>
			<point x="163" y="0" type="curve"/>
			<point x="69" y="-21"/>
			<point x="27" y="-57"/>
			<point x="27" y="-106" type="curve" smooth="yes"/>
			<point x="27" y="-176"/>
			<point x="114" y="-208"/>
		</contour>
		<contour>
			<point x="279" y="243" type="curve" smooth="yes"/>
			<point x="212" y="243"/>
			<point x="180" y="289"/>
			<point x="180" y="344" type="curve" smooth="yes"/>
			<point x="180" y="401"/>
			<point x="214" y="444"/>
			<point x="280" y="444" type="curve" smooth="yes"/>
			<point x="346" y="444"/>
			<point x="380" y="402"/>
			<point x="380" y="345" type="curve" smooth="yes"/>
			<point x="380" y="291"/>
			<point x="351" y="243"/>
		</contour>
		<contour>
			<point x="291" y="-118" type="curve" smooth="yes"/>
			<point x="267" y="-118" type="line"/>
			<point x="200" y="-118"/>
			<point x="149" y="-108"/>
			<point x="149" y="-69" type="curve" smooth="yes"/>
			<point x="149" y="-36"/>
			<point x="197" y="-7"/>
			<point x="264" y="-7" type="curve" smooth="yes"/>
			<point x="358" y="-7" type="line" smooth="yes"/>
			<point x="411" y="-7"/>
			<point x="442" y="-20"/>
			<point x="442" y="-51" type="curve" smooth="yes"/>
			<point x="442" y="-94"/>
			<point x="389" y="-118"/>
		</contour>
	</outline>
	<anchor name="top" x="285" y="523"/>
	<anchor name="bottom" x="315" y="-118"/>
</glyph>
<glyph name="n" format="2">
	<unicode hex="006E"/>
	<advance width="600"/>
	<outline>
		<contour>
			<point x="78" y="0" type="line"/>
			<point x="203" y="0" type="line"/>
			<point x="203" y="308" type="line" smooth="yes"/>
			<point x="203" y="334"/>
			<point x="208" y="357"/>
			<point x="219" y="376" type="curve" smooth="yes"/>
			<point x="236" y="409"/>
			<point x="265" y="434"/>
			<point x="310" y="434" type="curve" smooth="yes"/>
			<point x="371" y="434"/>
			<point x="402" y="393"/>
			<point x="402" y="319" type="curve" smooth="yes"/>
			<point x="402" y="0" type="line"/>
			<point x="527" y="0" type="line"/>
			<point x="527" y="347" type="line" smooth="yes"/>
			<point x="527" y="474"/>
			<point x="470" y="537"/>
			<point x="371" y="537" type="curve" smooth="yes"/>
			<point x="291" y="537"/>
			<point x="235" y="487"/>
			<point x="198" y="414" type="curve"/>
			<point x="198" y="523" type="line"/>
			<point x="78" y="523" type="line"/>
		</contour>
	</outline>
	<anchor name="top" x="309" y="523"/>
	<anchor name="bottom" x="303" y="0"/>
</glyph>
<glyph name="o" format="2">
	<unicode hex="006F"/>
	<advance width="600"/>
	<outline>
		<contour>
			<point x="300" y="-14" type="curve" smooth="yes"/>
			<point x="446" y="-14"/>
			<point x="547" y="86"/>
			<point x="547" y="255" type="curve" smooth="yes"/>
			<point x="547" y="269" type="line" smooth="yes"/>
			<point x="547" y="435"/>
			<point x="449" y="537"/>
			<point x="300" y="537" type="curve" smooth="yes"/>
			<point x="153" y="537"/>
			<point x="53" y="435"/>
			<point x="53" y="269" type="curve" smooth="yes"/>
			<point x="53" y="255" type="line" smooth="yes"/>
			<point x="53" y="86"/>
			<point x="152" y="-14"/>
		</contour>
		<contour>
			<point x="300" y="85" type="curve" smooth="yes"/>
			<point x="227" y="85"/>
			<point x="181" y="139"/>
			<point x="181" y="258" type="curve" smooth="yes"/>
			<point x="181" y="265" type="line" smooth="yes"/>
			<point x="181" y="385"/>
			<point x="227" y="439"/>
			<point x="300" y="439" type="curve" smooth="yes"/>
			<point x="372" y="439"/>
			<point x="419" y="385"/>
			<point x="419" y="265" type="curve" smooth="yes"/>
			<point x="419" y="258" type="line" smooth="yes"/>
			<point x="419" y="139"/>
			<point x="373" y="85"/>
		</contour>
	</outline>
	<anchor name="center" x="299" y="268"/>
	<anchor name="bottom" x="297" y="-8"/>
	<anchor name="top" x="301" y="523"/>
</glyph>
<glyph name="p" format="2">
	<unicode hex="0070"/>
	<advance width="600"/>
	<outline>
		<contour>
			<point x="69" y="-194" type="line"/>
			<point x="194" y="-194" type="line"/>
			<point x="194" y="95" type="line"/>
			<point x="231" y="22"/>
			<point x="283" y="-14"/>
			<point x="356" y="-14" type="curve" smooth="yes"/>
			<point x="469" y="-14"/>
			<point x="550" y="84"/>
			<point x="550" y="258" type="curve" smooth="yes"/>
			<point x="550" y="268" type="line" smooth="yes"/>
			<point x="550" y="437"/>
			<point x="478" y="537"/>
			<point x="364" y="537" type="curve" smooth="yes"/>
			<point x="283" y="537"/>
			<point x="225" y="488"/>
			<point x="190" y="416" type="curve"/>
			<point x="190" y="523" type="line"/>
			<point x="69" y="523" type="line"/>
		</contour>
		<contour>
			<point x="306" y="85" type="curve" smooth="yes"/>
			<point x="233" y="85"/>
			<point x="188" y="143"/>
			<point x="188" y="259" type="curve" smooth="yes"/>
			<point x="188" y="265" type="line" smooth="yes"/>
			<point x="188" y="381"/>
			<point x="237" y="439"/>
			<point x="307" y="439" type="curve" smooth="yes"/>
			<point x="378" y="439"/>
			<point x="422" y="383"/>
			<point x="422" y="265" type="curve" smooth="yes"/>
			<point x="422" y="259" type="line" smooth="yes"/>
			<point x="422" y="142"/>
			<point x="379" y="85"/>
		</contour>
	</outline>
	<anchor name="top" x="352" y="523"/>
	<anchor name="bottom" x="185" y="-102"/>
</glyph>
<glyph name="q" format="2">
	<unicode hex="0071"/>
	<advance width="600"/>
	<outline>
		<contour>
			<point x="406" y="-194" type="line"/>
			<point x="532" y="-194" type="line"/>
			<point x="532" y="523" type="line"/>
			<point x="411" y="523" type="line"/>
			<point x="411" y="423" type="line"/>
			<point x="376" y="494"/>
			<point x="326" y="537"/>
			<point x="247" y="537" type="curve" smooth="yes"/>
			<point x="138" y="537"/>
			<point x="52" y="439"/>
			<point x="52" y="268" type="curve" smooth="yes"/>
			<point x="52" y="258" type="line" smooth="yes"/>
			<point x="52" y="85"/>
			<point x="121" y="-14"/>
			<point x="238" y="-14" type="curve" smooth="yes"/>
			<point x="317" y="-14"/>
			<point x="371" y="33"/>
			<point x="406" y="103" type="curve"/>
		</contour>
		<contour>
			<point x="293" y="84" type="curve" smooth="yes"/>
			<point x="224" y="84"/>
			<point x="180" y="140"/>
			<point x="180" y="258" type="curve" smooth="yes"/>
			<point x="180" y="264" type="line" smooth="yes"/>
			<point x="180" y="381"/>
			<point x="224" y="438"/>
			<point x="294" y="438" type="curve" smooth="yes"/>
			<point x="367" y="438"/>
			<point x="412" y="380"/>
			<point x="412" y="264" type="curve" smooth="yes"/>
			<point x="412" y="258" type="line" smooth="yes"/>
			<point x="412" y="142"/>
			<point x="363" y="84"/>
		</contour>
	</outline>
</glyph>
<glyph name="r" format="2">
	<unicode hex="0072"/>
	<advance width="600"/>
	<outline>
		<contour>
			<point x="67" y="0" type="line"/>
			<point x="507" y="0" type="line"/>
			<point x="507" y="99" type="line"/>
			<point x="327" y="99" type="line"/>
			<point x="327" y="253" type="line" smooth="yes"/>
			<point x="327" y="337"/>
			<point x="378" y="412"/>
			<point x="469" y="412" type="curve" smooth="yes"/>
			<point x="497" y="412"/>
			<point x="527" y="406"/>
			<point x="544" y="399" type="curve"/>
			<point x="544" y="522" type="line"/>
			<point x="533" y="528"/>
			<point x="513" y="532"/>
			<point x="493" y="532" type="curve" smooth="yes"/>
			<point x="402" y="532"/>
			<point x="356" y="474"/>
			<point x="323" y="375" type="curve"/>
			<point x="323" y="523" type="line"/>
			<point x="70" y="523" type="line"/>
			<point x="70" y="424" type="line"/>
			<point x="201" y="424" type="line"/>
			<point x="201" y="99" type="line"/>
			<point x="67" y="99" type="line"/>
		</contour>
	</outline>
	<anchor name="top" x="338" y="523"/>
	<anchor name="bottom" x="265" y="0"/>
</glyph>
<glyph name="s" format="2">
	<unicode hex="0073"/>
	<advance width="600"/>
	<outline>
		<contour>
			<point x="299" y="-14" type="curve" smooth="yes"/>
			<point x="446" y="-14"/>
			<point x="521" y="57"/>
			<point x="521" y="163" type="curve" smooth="yes"/>
			<point x="521" y="275"/>
			<point x="431" y="299"/>
			<point x="312" y="319" type="curve" smooth="yes"/>
			<point x="243" y="331"/>
			<point x="200" y="339"/>
			<point x="200" y="384" type="curve" smooth="yes"/>
			<point x="200" y="421"/>
			<point x="231" y="444"/>
			<point x="297" y="444" type="curve" smooth="yes"/>
			<point x="374" y="444"/>
			<point x="454" y="421"/>
			<point x="511" y="383" type="curve"/>
			<point x="511" y="488" type="line"/>
			<point x="457" y="518"/>
			<point x="388" y="537"/>
			<point x="297" y="537" type="curve" smooth="yes"/>
			<point x="170" y="537"/>
			<point x="79" y="476"/>
			<point x="79" y="367" type="curve" smooth="yes"/>
			<point x="79" y="252"/>
			<point x="158" y="225"/>
			<point x="287" y="206" type="curve" smooth="yes"/>
			<point x="361" y="195"/>
			<point x="400" y="186"/>
			<point x="400" y="144" type="curve" smooth="yes"/>
			<point x="400" y="104"/>
			<point x="366" y="81"/>
			<point x="302" y="81" type="curve" smooth="yes"/>
			<point x="233" y="81"/>
			<point x="149" y="102"/>
			<point x="88" y="144" type="curve"/>
			<point x="88" y="41" type="line"/>
			<point x="137" y="9"/>
			<point x="218" y="-14"/>
		</contour>
	</outline>
	<anchor name="top" x="309" y="523"/>
	<anchor name="bottom" x="304" y="0"/>
</glyph>
<glyph name="t" format="2">
	<unicode hex="0074"/>
	<advance width="600"/>
	<outline>
		<contour>
			<point x="380" y="-12" type="curve" smooth="yes"/>
			<point x="433" y="-12"/>
			<point x="483" y="1"/>
			<point x="512" y="16" type="curve"/>
			<point x="512" y="108" type="line"/>
			<point x="486" y="95"/>
			<point x="446" y="88"/>
			<point x="416" y="88" type="curve" smooth="yes"/>
			<point x="354" y="88"/>
			<point x="316" y="113"/>
			<point x="316" y="187" type="curve" smooth="yes"/>
			<point x="316" y="424" type="line"/>
			<point x="517" y="424" type="line"/>
			<point x="517" y="523" type="line"/>
			<point x="317" y="523" type="line"/>
			<point x="317" y="692" type="line"/>
			<point x="206" y="692" type="line"/>
			<point x="199" y="585" type="line" smooth="yes"/>
			<point x="195" y="527"/>
			<point x="164" y="518"/>
			<point x="131" y="518" type="curve" smooth="yes"/>
			<point x="52" y="518" type="line"/>
			<point x="52" y="424" type="line"/>
			<point x="191" y="424" type="line"/>
			<point x="191" y="168" type="line" smooth="yes"/>
			<point x="191" y="37"/>
			<point x="259" y="-12"/>
		</contour>
	</outline>
	<anchor name="caron" x="439" y="780"/>
	<anchor name="bottom" x="349" y="0"/>
	<anchor name="center" x="285" y="284"/>
</glyph>
<glyph name="w" format="2">
	<unicode hex="0077"/>
	<advance width="600"/>
	<outline>
		<contour>
			<point x="86" y="0" type="line"/>
			<point x="248" y="0" type="line"/>
			<point x="296" y="392" type="line"/>
			<point x="304" y="392" type="line"/>
			<point x="350" y="0" type="line"/>
			<point x="512" y="0" type="line"/>
			<point x="579" y="523" type="line"/>
			<point x="465" y="523" type="line"/>
			<point x="423" y="111" type="line"/>
			<point x="416" y="111" type="line"/>
			<point x="365" y="523" type="line"/>
			<point x="234" y="523" type="line"/>
			<point x="183" y="111" type="line"/>
			<point x="175" y="111" type="line"/>
			<point x="136" y="523" type="line"/>
			<point x="21" y="523" type="line"/>
		</contour>
	</outline>
	<anchor name="top" x="300" y="523"/>
	<anchor name="bottom" x="267" y="1"/>
</glyph>
<glyph name="y" format="2">
	<unicode hex="0079"/>
	<advance width="600"/>
	<outline>
		<contour>
			<point x="176" y="-204" type="curve" smooth="yes"/>
			<point x="272" y="-204"/>
			<point x="333" y="-157"/>
			<point x="369" y="-41" type="curve" smooth="yes"/>
			<point x="553" y="523" type="line"/>
			<point x="423" y="523" type="line"/>
			<point x="301" y="97" type="line"/>
			<point x="179" y="523" type="line"/>
			<point x="47" y="523" type="line"/>
			<point x="208" y="9" type="line"/>
			<point x="272" y="9" type="line"/>
			<point x="263" y="-16" type="line" smooth="yes"/>
			<point x="246" y="-86"/>
			<point x="213" y="-110"/>
			<point x="155" y="-110" type="curve" smooth="yes"/>
			<point x="127" y="-110"/>
			<point x="102" y="-106"/>
			<point x="85" y="-100" type="curve"/>
			<point x="85" y="-191" type="line"/>
			<point x="107" y="-199"/>
			<point x="133" y="-204"/>
		</contour>
	</outline>
	<anchor name="top" x="301" y="523"/>
	<anchor name="bottom" x="262" y="-108"/>
</glyph>
<glyph name="braceleft" format="2">
	<unicode hex="007B"/>
	<advance width="600"/>
	<outline>
		<contour>
			<point x="108" y="260" type="line"/>
			<point x="180" y="260" type="line" smooth="yes"/>
			<point x="240" y="260"/>
			<point x="261" y="224"/>
			<point x="261" y="196" type="curve" smooth="yes"/>
			<point x="261" y="130"/>
			<point x="160" y="72"/>
			<point x="160" y="-22" type="curve" smooth="yes"/>
			<point x="160" y="-100"/>
			<point x="217" y="-163"/>
			<point x="331" y="-163" type="curve" smooth="yes"/>
			<point x="500" y="-163" type="line"/>
			<point x="500" y="-72" type="line"/>
			<point x="374" y="-72" type="line" smooth="yes"/>
			<point x="316" y="-72"/>
			<point x="287" y="-49"/>
			<point x="287" y="-5" type="curve" smooth="yes"/>
			<point x="287" y="59"/>
			<point x="387" y="113"/>
			<point x="387" y="200" type="curve" smooth="yes"/>
			<point x="387" y="256"/>
			<point x="335" y="301"/>
			<point x="263" y="313" type="curve"/>
			<point x="335" y="325"/>
			<point x="387" y="371"/>
			<point x="387" y="426" type="curve" smooth="yes"/>
			<point x="387" y="514"/>
			<point x="287" y="568"/>
			<point x="287" y="635" type="curve" smooth="yes"/>
			<point x="287" y="681"/>
			<point x="319" y="701"/>
			<point x="370" y="701" type="curve" smooth="yes"/>
			<point x="500" y="701" type="line"/>
			<point x="500" y="792" type="line"/>
			<point x="331" y="792" type="line" smooth="yes"/>
			<point x="220" y="792"/>
			<point x="160" y="727"/>
			<point x="160" y="652" type="curve" smooth="yes"/>
			<point x="160" y="557"/>
			<point x="261" y="498"/>
			<point x="261" y="431" type="curve" smooth="yes"/>
			<point x="261" y="402"/>
			<point x="240" y="367"/>
			<point x="180" y="367" type="curve" smooth="yes"/>
			<point x="108" y="367" type="line"/>
		</contour>
	</outline>
</glyph>
<glyph name="braceright" format="2">
	<unicode hex="007D"/>
	<advance width="600"/>
	<outline>
		<contour>
			<point x="100" y="-163" type="line"/>
			<point x="269" y="-163" type="line" smooth="yes"/>
			<point x="383" y="-163"/>
			<point x="440" y="-100"/>
			<point x="440" y="-22" type="curve" smooth="yes"/>
			<point x="440" y="72"/>
			<point x="339" y="130"/>
			<point x="339" y="196" type="curve" smooth="yes"/>
			<point x="339" y="224"/>
			<point x="360" y="260"/>
			<point x="420" y="260" type="curve" smooth="yes"/>
			<point x="492" y="260" type="line"/>
			<point x="492" y="367" type="line"/>
			<point x="420" y="367" type="line" smooth="yes"/>
			<point x="360" y="367"/>
			<point x="339" y="403"/>
			<point x="339" y="431" type="curve" smooth="yes"/>
			<point x="339" y="498"/>
			<point x="440" y="557"/>
			<point x="440" y="652" type="curve" smooth="yes"/>
			<point x="440" y="728"/>
			<point x="380" y="792"/>
			<point x="269" y="792" type="curve" smooth="yes"/>
			<point x="100" y="792" type="line"/>
			<point x="100" y="701" type="line"/>
			<point x="231" y="701" type="line" smooth="yes"/>
			<point x="282" y="701"/>
			<point x="314" y="681"/>
			<point x="314" y="635" type="curve" smooth="yes"/>
			<point x="314" y="568"/>
			<point x="213" y="514"/>
			<point x="213" y="426" type="curve" smooth="yes"/>
			<point x="213" y="370"/>
			<point x="265" y="325"/>
			<point x="337" y="313" type="curve"/>
			<point x="265" y="301"/>
			<point x="213" y="256"/>
			<point x="213" y="200" type="curve" smooth="yes"/>
			<point x="213" y="113"/>
			<point x="314" y="59"/>
			<point x="314" y="-5" type="curve" smooth="yes"/>
			<point x="314" y="-49"/>
			<point x="283" y="-72"/>
			<point x="226" y="-72" type="curve" smooth="yes"/>
			<point x="100" y="-72" type="line"/>
		</contour>
	</outline>
</glyph>
<glyph name="asciitilde" format="2">
	<unicode hex="007E"/>
	<advance width="600"/>
	<outline>
		<contour>
			<point x="58" y="196" type="curve"/>
			<point x="156" y="196" type="line"/>
			<point x="156" y="267"/>
			<point x="166" y="308"/>
			<point x="207" y="308" type="curve" smooth="yes"/>
			<point x="267" y="308"/>
			<point x="304" y="192"/>
			<point x="405" y="192" type="curve" smooth="yes"/>
			<point x="491" y="192"/>
			<point x="542" y="249"/>
			<point x="542" y="413" type="curve"/>
			<point x="444" y="412" type="line"/>
			<point x="444" y="338"/>
			<point x="433" y="305"/>
			<point x="396" y="305" type="curve" smooth="yes"/>
			<point x="338" y="305"/>
			<point x="293" y="420"/>
			<point x="191" y="420" type="curve" smooth="yes"/>
			<point x="99" y="420"/>
			<point x="58" y="345"/>
		</contour>
	</outline>
</glyph>
<glyph name="exclamdown" format="2">
	<unicode hex="00A1"/>
	<advance width="600"/>
	<outline>
		<contour>
			<point x="299" y="535" type="curve" smooth="yes"/>
			<point x="244" y="535"/>
			<point x="216" y="514"/>
			<point x="216" y="459" type="curve" smooth="yes"/>
			<point x="216" y="405"/>
			<point x="244" y="383"/>
			<point x="299" y="383" type="curve" smooth="yes"/>
			<point x="356" y="383"/>
			<point x="384" y="405"/>
			<point x="384" y="459" type="curve" smooth="yes"/>
			<point x="384" y="514"/>
			<point x="356" y="535"/>
		</contour>
		<contour>
			<point x="346" y="304" type="line"/>
			<point x="256" y="304" type="line"/>
			<point x="232" y="-29" type="line"/>
			<point x="232" y="-161" type="line"/>
			<point x="369" y="-161" type="line"/>
			<point x="369" y="-29" type="line"/>
		</contour>
	</outline>
</glyph>
<glyph name="yen" format="2">
	<unicode hex="00A5"/>
	<advance width="600"/>
	<outline>
		<contour>
			<point x="72" y="162" type="line"/>
			<point x="232" y="162" type="line"/>
			<point x="232" y="0" type="line"/>
			<point x="361" y="0" type="line"/>
			<point x="361" y="162" type="line"/>
			<point x="520" y="162" type="line"/>
			<point x="520" y="240" type="line"/>
			<point x="365" y="240" type="line"/>
			<point x="396" y="303" type="line"/>
			<point x="520" y="303" type="line"/>
			<point x="520" y="381" type="line"/>
			<point x="434" y="381" type="line"/>
			<point x="581" y="684" type="line"/>
			<point x="443" y="684" type="line"/>
			<point x="300" y="369" type="line"/>
			<point x="158" y="684" type="line"/>
			<point x="19" y="684" type="line"/>
			<point x="162" y="381" type="line"/>
			<point x="72" y="381" type="line"/>
			<point x="72" y="303" type="line"/>
			<point x="199" y="303" type="line"/>
			<point x="229" y="240" type="line"/>
			<point x="72" y="240" type="line"/>
		</contour>
	</outline>
</glyph>
<glyph name="section" format="2">
	<unicode hex="00A7"/>
	<advance width="600"/>
	<outline>
		<contour>
			<point x="310" y="-85" type="curve" smooth="yes"/>
			<point x="428" y="-85"/>
			<point x="504" y="-19"/>
			<point x="504" y="88" type="curve" smooth="yes"/>
			<point x="504" y="151"/>
			<point x="478" y="191"/>
			<point x="419" y="218" type="curve"/>
			<point x="485" y="236"/>
			<point x="524" y="274"/>
			<point x="524" y="335" type="curve" smooth="yes"/>
			<point x="524" y="425"/>
			<point x="433" y="450"/>
			<point x="320" y="466" type="curve" smooth="yes"/>
			<point x="248" y="476"/>
			<point x="203" y="490"/>
			<point x="203" y="539" type="curve" smooth="yes"/>
			<point x="203" y="583"/>
			<point x="233" y="612"/>
			<point x="304" y="612" type="curve" smooth="yes"/>
			<point x="371" y="612"/>
			<point x="443" y="594"/>
			<point x="494" y="563" type="curve"/>
			<point x="494" y="655" type="line"/>
			<point x="453" y="679"/>
			<point x="385" y="698"/>
			<point x="301" y="698" type="curve" smooth="yes"/>
			<point x="183" y="698"/>
			<point x="96" y="636"/>
			<point x="96" y="525" type="curve" smooth="yes"/>
			<point x="96" y="461"/>
			<point x="124" y="419"/>
			<point x="186" y="393" type="curve"/>
			<point x="113" y="371"/>
			<point x="76" y="332"/>
			<point x="76" y="275" type="curve" smooth="yes"/>
			<point x="76" y="176"/>
			<point x="175" y="161"/>
			<point x="283" y="146" type="curve" smooth="yes"/>
			<point x="351" y="137"/>
			<point x="396" y="127"/>
			<point x="396" y="75" type="curve" smooth="yes"/>
			<point x="396" y="32"/>
			<point x="365" y="3"/>
			<point x="302" y="3" type="curve" smooth="yes"/>
			<point x="241" y="3"/>
			<point x="165" y="25"/>
			<point x="101" y="61" type="curve"/>
			<point x="101" y="-30" type="line"/>
			<point x="148" y="-57"/>
			<point x="213" y="-85"/>
		</contour>
		<contour>
			<point x="328" y="241" type="curve" smooth="yes"/>
			<point x="261" y="247"/>
			<point x="170" y="259"/>
			<point x="170" y="315" type="curve" smooth="yes"/>
			<point x="170" y="359"/>
			<point x="216" y="377"/>
			<point x="271" y="371" type="curve" smooth="yes"/>
			<point x="340" y="366"/>
			<point x="430" y="352"/>
			<point x="430" y="297" type="curve" smooth="yes"/>
			<point x="430" y="253"/>
			<point x="384" y="235"/>
		</contour>
	</outline>
</glyph>
<glyph name="ordfeminine" format="2">
	<unicode hex="00AA"/>
	<advance width="600"/>
	<outline>
		<contour>
			<point x="228" y="224" type="curve" smooth="yes"/>
			<point x="303" y="224"/>
			<point x="353" y="267"/>
			<point x="381" y="326" type="curve"/>
			<point x="381" y="235" type="line"/>
			<point x="483" y="235" type="line"/>
			<point x="483" y="531" type="line" smooth="yes"/>
			<point x="483" y="643"/>
			<point x="409" y="696"/>
			<point x="285" y="696" type="curve" smooth="yes"/>
			<point x="202" y="696"/>
			<point x="141" y="671"/>
			<point x="109" y="649" type="curve"/>
			<point x="109" y="560" type="line"/>
			<point x="157" y="597"/>
			<point x="216" y="615"/>
			<point x="274" y="615" type="curve" smooth="yes"/>
			<point x="343" y="615"/>
			<point x="378" y="585"/>
			<point x="378" y="523" type="curve" smooth="yes"/>
			<point x="378" y="514" type="line"/>
			<point x="303" y="504" type="line" smooth="yes"/>
			<point x="159" y="484"/>
			<point x="97" y="428"/>
			<point x="97" y="346" type="curve" smooth="yes"/>
			<point x="97" y="268"/>
			<point x="150" y="224"/>
		</contour>
		<contour>
			<point x="272" y="298" type="curve" smooth="yes"/>
			<point x="231" y="298"/>
			<point x="199" y="318"/>
			<point x="199" y="360" type="curve" smooth="yes"/>
			<point x="199" y="405"/>
			<point x="230" y="432"/>
			<point x="308" y="443" type="curve" smooth="yes"/>
			<point x="378" y="453" type="line"/>
			<point x="378" y="405" type="line" smooth="yes"/>
			<point x="378" y="332"/>
			<point x="323" y="298"/>
		</contour>
	</outline>
	<anchor name="ogonek" x="445" y="235"/>
	<anchor name="top" x="259" y="685"/>
	<anchor name="right" x="457" y="235"/>
	<anchor name="bottom" x="259" y="233"/>
</glyph>
<glyph name="guillemetleft" format="2">
	<unicode hex="00AB"/>
	<advance width="600"/>
	<outline>
		<contour>
			<point x="330" y="77" type="line"/>
			<point x="175" y="288" type="line"/>
			<point x="330" y="497" type="line"/>
			<point x="200" y="497" type="line"/>
			<point x="46" y="287" type="line"/>
			<point x="200" y="77" type="line"/>
		</contour>
		<contour>
			<point x="551" y="77" type="line"/>
			<point x="396" y="288" type="line"/>
			<point x="551" y="497" type="line"/>
			<point x="422" y="497" type="line"/>
			<point x="267" y="287" type="line"/>
			<point x="422" y="77" type="line"/>
		</contour>
	</outline>
</glyph>
<glyph name="logicalnot" format="2">
	<unicode hex="00AC"/>
	<advance width="600"/>
	<outline>
		<contour>
			<point x="531" y="49" type="line"/>
			<point x="530" y="350" type="line"/>
			<point x="69" y="350" type="line"/>
			<point x="69" y="244" type="line"/>
			<point x="415" y="244" type="line"/>
			<point x="416" y="49" type="line"/>
		</contour>
	</outline>
</glyph>
<glyph name="macron" format="2">
	<unicode hex="00AF"/>
	<advance width="600"/>
	<outline>
		<contour>
			<point x="149" y="629" type="line"/>
			<point x="451" y="629" type="line"/>
			<point x="451" y="707" type="line"/>
			<point x="149" y="707" type="line"/>
		</contour>
	</outline>
	<anchor name="_top" x="300" y="523"/>
</glyph>
<glyph name="mu" format="2">
	<unicode hex="00B5"/>
	<advance width="600"/>
	<outline>
		<contour>
			<point x="522" y="523" type="line"/>
			<point x="397" y="523" type="line"/>
			<point x="397" y="213" type="line" smooth="yes"/>
			<point x="397" y="187"/>
			<point x="394" y="161"/>
			<point x="382" y="142" type="curve" smooth="yes"/>
			<point x="365" y="110"/>
			<point x="335" y="87"/>
			<point x="290" y="87" type="curve" smooth="yes"/>
			<point x="229" y="87"/>
			<point x="198" y="128"/>
			<point x="198" y="202" type="curve" smooth="yes"/>
			<point x="198" y="523" type="line"/>
			<point x="73" y="523" type="line"/>
			<point x="73" y="-190" type="line"/>
			<point x="198" y="-190" type="line"/>
			<point x="198" y="-11" type="line"/>
			<point x="209" y="-13"/>
			<point x="221" y="-14"/>
			<point x="234" y="-14" type="curve" smooth="yes"/>
			<point x="309" y="-14"/>
			<point x="365" y="34"/>
			<point x="403" y="107" type="curve"/>
			<point x="403" y="0" type="line"/>
			<point x="522" y="0" type="line"/>
		</contour>
	</outline>
	<anchor name="ogonek" x="542" y="0"/>
	<anchor name="bottom" x="309" y="0"/>
	<anchor name="top" x="298" y="544"/>
</glyph>
<glyph name="paragraph" format="2">
	<unicode hex="00B6"/>
	<advance width="600"/>
	<outline>
		<contour>
			<point x="284" y="0" type="line"/>
			<point x="378" y="0" type="line"/>
			<point x="378" y="593" type="line"/>
			<point x="448" y="593" type="line"/>
			<point x="448" y="0" type="line"/>
			<point x="542" y="0" type="line"/>
			<point x="542" y="684" type="line"/>
			<point x="268" y="684" type="line"/>
			<point x="115" y="684"/>
			<point x="33" y="596"/>
			<point x="33" y="456" type="curve" smooth="yes"/>
			<point x="33" y="323"/>
			<point x="110" y="240"/>
			<point x="256" y="240" type="curve" smooth="yes"/>
			<point x="284" y="240" type="line"/>
		</contour>
	</outline>
</glyph>
<glyph name="ordmasculine" format="2">
	<unicode hex="00BA"/>
	<advance width="600"/>
	<outline>
		<contour>
			<point x="301" y="227" type="curve" smooth="yes"/>
			<point x="430" y="227"/>
			<point x="521" y="315"/>
			<point x="521" y="461" type="curve" smooth="yes"/>
			<point x="521" y="609"/>
			<point x="429" y="696"/>
			<point x="301" y="696" type="curve" smooth="yes"/>
			<point x="171" y="696"/>
			<point x="79" y="609"/>
			<point x="79" y="461" type="curve" smooth="yes"/>
			<point x="79" y="314"/>
			<point x="173" y="227"/>
		</contour>
		<contour>
			<point x="301" y="307" type="curve" smooth="yes"/>
			<point x="233" y="307"/>
			<point x="184" y="356"/>
			<point x="184" y="461" type="curve" smooth="yes"/>
			<point x="184" y="566"/>
			<point x="231" y="616"/>
			<point x="301" y="616" type="curve" smooth="yes"/>
			<point x="369" y="616"/>
			<point x="415" y="567"/>
			<point x="415" y="461" type="curve" smooth="yes"/>
			<point x="415" y="358"/>
			<point x="371" y="307"/>
		</contour>
	</outline>
</glyph>
<glyph name="AE" format="2">
	<unicode hex="00C6"/>
	<advance width="600"/>
	<outline>
		<contour>
			<point x="6" y="0" type="line"/>
			<point x="125" y="-1" type="line"/>
			<point x="163" y="165" type="line"/>
			<point x="291" y="165" type="line"/>
			<point x="291" y="0" type="line"/>
			<point x="578" y="0" type="line"/>
			<point x="578" y="103" type="line"/>
			<point x="407" y="103" type="line"/>
			<point x="407" y="291" type="line"/>
			<point x="547" y="291" type="line"/>
			<point x="547" y="393" type="line"/>
			<point x="407" y="393" type="line"/>
			<point x="407" y="582" type="line"/>
			<point x="575" y="582" type="line"/>
			<point x="575" y="684" type="line"/>
			<point x="169" y="684" type="line"/>
		</contour>
		<contour>
			<point x="185" y="264" type="line"/>
			<point x="258" y="582" type="line"/>
			<point x="291" y="582" type="line"/>
			<point x="291" y="264" type="line"/>
		</contour>
	</outline>
	<anchor name="top" x="348" y="684"/>
</glyph>
<glyph name="Thorn" format="2">
	<unicode hex="00DE"/>
	<advance width="600"/>
	<outline>
		<contour>
			<point x="73" y="684" type="line"/>
			<point x="73" y="0" type="line"/>
			<point x="199" y="0" type="line"/>
			<point x="199" y="118" type="line"/>
			<point x="337" y="118" type="line" smooth="yes"/>
			<point x="482" y="118"/>
			<point x="571" y="214"/>
			<point x="571" y="359" type="curve" smooth="yes"/>
			<point x="571" y="502"/>
			<point x="481" y="592"/>
			<point x="337" y="592" type="curve" smooth="yes"/>
			<point x="199" y="592" type="line"/>
			<point x="199" y="684" type="line"/>
		</contour>
		<contour>
			<point x="316" y="489" type="line" smooth="yes"/>
			<point x="403" y="489"/>
			<point x="443" y="436"/>
			<point x="443" y="357" type="curve" smooth="yes"/>
			<point x="443" y="278"/>
			<point x="403" y="222"/>
			<point x="316" y="222" type="curve" smooth="yes"/>
			<point x="199" y="222" type="line"/>
			<point x="199" y="489" type="line"/>
		</contour>
	</outline>
</glyph>
<glyph name="ae" format="2">
	<unicode hex="00E6"/>
	<advance width="600"/>
	<outline>
		<contour>
			<point x="136" y="-14" type="curve" smooth="yes"/>
			<point x="199" y="-14"/>
			<point x="240" y="21"/>
			<point x="261" y="106" type="curve"/>
			<point x="288" y="30"/>
			<point x="343" y="-14"/>
			<point x="435" y="-14" type="curve" smooth="yes"/>
			<point x="498" y="-14"/>
			<point x="541" y="5"/>
			<point x="568" y="25" type="curve"/>
			<point x="568" y="118" type="line"/>
			<point x="534" y="95"/>
			<point x="495" y="82"/>
			<point x="457" y="82" type="curve" smooth="yes"/>
			<point x="381" y="82"/>
			<point x="347" y="127"/>
			<point x="344" y="228" type="curve"/>
			<point x="586" y="228" type="line"/>
			<point x="586" y="281" type="line" smooth="yes"/>
			<point x="586" y="452"/>
			<point x="533" y="537"/>
			<point x="425" y="537" type="curve" smooth="yes"/>
			<point x="376" y="537"/>
			<point x="336" y="514"/>
			<point x="306" y="474" type="curve"/>
			<point x="281" y="516"/>
			<point x="241" y="537"/>
			<point x="174" y="537" type="curve" smooth="yes"/>
			<point x="109" y="537"/>
			<point x="57" y="512"/>
			<point x="25" y="488" type="curve"/>
			<point x="25" y="388" type="line"/>
			<point x="60" y="417"/>
			<point x="111" y="441"/>
			<point x="160" y="441" type="curve" smooth="yes"/>
			<point x="218" y="441"/>
			<point x="238" y="409"/>
			<point x="238" y="342" type="curve" smooth="yes"/>
			<point x="238" y="324" type="line"/>
			<point x="186" y="314" type="line" smooth="yes"/>
			<point x="69" y="291"/>
			<point x="14" y="232"/>
			<point x="14" y="128" type="curve" smooth="yes"/>
			<point x="14" y="40"/>
			<point x="61" y="-14"/>
		</contour>
		<contour>
			<point x="418" y="449" type="curve" smooth="yes"/>
			<point x="459" y="449"/>
			<point x="479" y="404"/>
			<point x="480" y="306" type="curve"/>
			<point x="343" y="306" type="line"/>
			<point x="346" y="401"/>
			<point x="370" y="449"/>
		</contour>
		<contour>
			<point x="116" y="141" type="curve" smooth="yes"/>
			<point x="116" y="199"/>
			<point x="142" y="227"/>
			<point x="196" y="238" type="curve" smooth="yes"/>
			<point x="238" y="246" type="line"/>
			<point x="238" y="169" type="line" smooth="yes"/>
			<point x="238" y="106"/>
			<point x="211" y="72"/>
			<point x="174" y="72" type="curve" smooth="yes"/>
			<point x="139" y="72"/>
			<point x="116" y="97"/>
		</contour>
	</outline>
	<anchor name="top" x="303" y="523"/>
</glyph>
<glyph name="ccedilla" format="2">
	<unicode hex="00E7"/>
	<advance width="600"/>
	<outline>
		<contour>
			<point x="329" y="-226" type="curve" smooth="yes"/>
			<point x="406" y="-226"/>
			<point x="452" y="-190"/>
			<point x="452" y="-125" type="curve" smooth="yes"/>
			<point x="452" y="-78"/>
			<point x="421" y="-47"/>
			<point x="362" y="-45" type="curve"/>
			<point x="378" y="-12" type="line"/>
			<point x="439" y="-10"/>
			<point x="484" y="5"/>
			<point x="513" y="23" type="curve"/>
			<point x="513" y="119" type="line"/>
			<point x="482" y="102"/>
			<point x="435" y="88"/>
			<point x="384" y="88" type="curve" smooth="yes"/>
			<point x="279" y="88"/>
			<point x="213" y="147"/>
			<point x="213" y="259" type="curve" smooth="yes"/>
			<point x="213" y="266" type="line" smooth="yes"/>
			<point x="213" y="376"/>
			<point x="277" y="435"/>
			<point x="387" y="435" type="curve" smooth="yes"/>
			<point x="432" y="435"/>
			<point x="479" y="425"/>
			<point x="513" y="405" type="curve"/>
			<point x="513" y="504" type="line"/>
			<point x="481" y="521"/>
			<point x="427" y="535"/>
			<point x="369" y="535" type="curve" smooth="yes"/>
			<point x="197" y="535"/>
			<point x="85" y="429"/>
			<point x="85" y="268" type="curve" smooth="yes"/>
			<point x="85" y="255" type="line" smooth="yes"/>
			<point x="85" y="106"/>
			<point x="167" y="9"/>
			<point x="313" y="-9" type="curve"/>
			<point x="276" y="-93" type="line"/>
			<point x="283" y="-91"/>
			<point x="297" y="-90"/>
			<point x="311" y="-90" type="curve" smooth="yes"/>
			<point x="346" y="-90"/>
			<point x="369" y="-98"/>
			<point x="369" y="-125" type="curve" smooth="yes"/>
			<point x="369" y="-152"/>
			<point x="349" y="-163"/>
			<point x="311" y="-163" type="curve" smooth="yes"/>
			<point x="292" y="-163"/>
			<point x="268" y="-158"/>
			<point x="243" y="-147" type="curve"/>
			<point x="243" y="-208" type="line"/>
			<point x="262" y="-218"/>
			<point x="297" y="-226"/>
		</contour>
	</outline>
</glyph>
<glyph name="eth" format="2">
	<unicode hex="00F0"/>
	<advance width="600"/>
	<outline>
		<contour>
			<point x="292" y="-14" type="curve" smooth="yes"/>
			<point x="441" y="-14"/>
			<point x="548" y="82"/>
			<point x="548" y="282" type="curve" smooth="yes"/>
			<point x="548" y="296" type="line" smooth="yes"/>
			<point x="548" y="437"/>
			<point x="508" y="550"/>
			<point x="445" y="636" type="curve"/>
			<point x="527" y="665" type="line"/>
			<point x="527" y="741" type="line"/>
			<point x="396" y="695" type="line"/>
			<point x="376" y="715"/>
			<point x="354" y="734"/>
			<point x="332" y="750" type="curve"/>
			<point x="164" y="750" type="line"/>
			<point x="206" y="717"/>
			<point x="242" y="685"/>
			<point x="273" y="652" type="curve"/>
			<point x="172" y="616" type="line"/>
			<point x="172" y="540" type="line"/>
			<point x="323" y="593" type="line"/>
			<point x="363" y="538"/>
			<point x="391" y="477"/>
			<point x="410" y="401" type="curve"/>
			<point x="374" y="463"/>
			<point x="319" y="503"/>
			<point x="249" y="503" type="curve" smooth="yes"/>
			<point x="127" y="503"/>
			<point x="52" y="401"/>
			<point x="52" y="256" type="curve" smooth="yes"/>
			<point x="52" y="242" type="line" smooth="yes"/>
			<point x="52" y="76"/>
			<point x="149" y="-14"/>
		</contour>
		<contour>
			<point x="301" y="85" type="curve" smooth="yes"/>
			<point x="224" y="85"/>
			<point x="180" y="141"/>
			<point x="180" y="245" type="curve" smooth="yes"/>
			<point x="180" y="252" type="line" smooth="yes"/>
			<point x="180" y="358"/>
			<point x="229" y="410"/>
			<point x="300" y="410" type="curve" smooth="yes"/>
			<point x="372" y="410"/>
			<point x="422" y="360"/>
			<point x="422" y="256" type="curve" smooth="yes"/>
			<point x="422" y="249" type="line" smooth="yes"/>
			<point x="422" y="143"/>
			<point x="374" y="85"/>
		</contour>
	</outline>
</glyph>
<glyph name="divide" format="2">
	<unicode hex="00F7"/>
	<advance width="600"/>
	<outline>
		<contour>
			<point x="300" y="434" type="curve" smooth="yes"/>
			<point x="357" y="434"/>
			<point x="388" y="451"/>
			<point x="388" y="498" type="curve" smooth="yes"/>
			<point x="388" y="546"/>
			<point x="357" y="563"/>
			<point x="300" y="563" type="curve" smooth="yes"/>
			<point x="243" y="563"/>
			<point x="212" y="546"/>
			<point x="212" y="498" type="curve" smooth="yes"/>
			<point x="212" y="451"/>
			<point x="243" y="434"/>
		</contour>
		<contour>
			<point x="69" y="244" type="line"/>
			<point x="531" y="244" type="line"/>
			<point x="531" y="350" type="line"/>
			<point x="69" y="350" type="line"/>
		</contour>
		<contour>
			<point x="299" y="30" type="curve" smooth="yes"/>
			<point x="356" y="30"/>
			<point x="387" y="47"/>
			<point x="387" y="95" type="curve" smooth="yes"/>
			<point x="387" y="143"/>
			<point x="356" y="159"/>
			<point x="299" y="159" type="curve" smooth="yes"/>
			<point x="243" y="159"/>
			<point x="212" y="143"/>
			<point x="212" y="95" type="curve" smooth="yes"/>
			<point x="212" y="47"/>
			<point x="243" y="30"/>
		</contour>
	</outline>
</glyph>
<glyph name="thorn" format="2">
	<unicode hex="00FE"/>
	<advance width="600"/>
	<outline>
		<contour>
			<point x="69" y="750" type="line"/>
			<point x="69" y="-204" type="line"/>
			<point x="194" y="-204" type="line"/>
			<point x="194" y="91" type="line"/>
			<point x="230" y="22"/>
			<point x="282" y="-14"/>
			<point x="356" y="-14" type="curve" smooth="yes"/>
			<point x="467" y="-14"/>
			<point x="550" y="84"/>
			<point x="550" y="255" type="curve" smooth="yes"/>
			<point x="550" y="269" type="line" smooth="yes"/>
			<point x="550" y="437"/>
			<point x="478" y="537"/>
			<point x="364" y="537" type="curve" smooth="yes"/>
			<point x="285" y="537"/>
			<point x="228" y="488"/>
			<point x="194" y="417" type="curve"/>
			<point x="194" y="750" type="line"/>
		</contour>
		<contour>
			<point x="306" y="85" type="curve" smooth="yes"/>
			<point x="249" y="85"/>
			<point x="209" y="121"/>
			<point x="194" y="193" type="curve"/>
			<point x="194" y="195" type="line"/>
			<point x="190" y="213"/>
			<point x="188" y="234"/>
			<point x="188" y="258" type="curve" smooth="yes"/>
			<point x="188" y="265" type="line" smooth="yes"/>
			<point x="188" y="381"/>
			<point x="238" y="439"/>
			<point x="307" y="439" type="curve" smooth="yes"/>
			<point x="378" y="439"/>
			<point x="422" y="383"/>
			<point x="422" y="265" type="curve" smooth="yes"/>
			<point x="422" y="258" type="line" smooth="yes"/>
			<point x="422" y="142"/>
			<point x="379" y="85"/>
		</contour>
	</outline>
</glyph>
<glyph name="dcaron" format="2">
	<unicode hex="010F"/>
	<advance width="600"/>
	<outline>
		<contour>
			<point x="225" y="-13" type="curve" smooth="yes"/>
			<point x="296" y="-13"/>
			<point x="353" y="34"/>
			<point x="389" y="108" type="curve"/>
			<point x="389" y="0" type="line"/>
			<point x="501" y="0" type="line"/>
			<point x="501" y="750" type="line"/>
			<point x="384" y="750" type="line"/>
			<point x="384" y="426" type="line"/>
			<point x="353" y="492"/>
			<point x="305" y="537"/>
			<point x="232" y="537" type="curve" smooth="yes"/>
			<point x="124" y="537"/>
			<point x="49" y="437"/>
			<point x="49" y="268" type="curve" smooth="yes"/>
			<point x="49" y="255" type="line" smooth="yes"/>
			<point x="49" y="91"/>
			<point x="109" y="-13"/>
		</contour>
		<contour>
			<point x="551" y="565" type="line"/>
			<point x="616" y="565" type="line"/>
			<point x="676" y="750" type="line"/>
			<point x="566" y="750" type="line"/>
		</contour>
		<contour>
			<point x="276" y="83" type="curve" smooth="yes"/>
			<point x="211" y="83"/>
			<point x="169" y="136"/>
			<point x="169" y="257" type="curve" smooth="yes"/>
			<point x="169" y="264" type="line" smooth="yes"/>
			<point x="169" y="382"/>
			<point x="211" y="439"/>
			<point x="278" y="439" type="curve" smooth="yes"/>
			<point x="344" y="439"/>
			<point x="389" y="382"/>
			<point x="389" y="263" type="curve" smooth="yes"/>
			<point x="389" y="259" type="line" smooth="yes"/>
			<point x="389" y="136"/>
			<point x="341" y="83"/>
		</contour>
	</outline>
</glyph>
<glyph name="dcroat" format="2">
	<unicode hex="0111"/>
	<advance width="600"/>
	<outline>
		<contour>
			<point x="238" y="-14" type="curve" smooth="yes"/>
			<point x="317" y="-14"/>
			<point x="375" y="35"/>
			<point x="409" y="106" type="curve"/>
			<point x="409" y="0" type="line"/>
			<point x="530" y="0" type="line"/>
			<point x="530" y="592" type="line"/>
			<point x="590" y="592" type="line"/>
			<point x="590" y="664" type="line"/>
			<point x="530" y="664" type="line"/>
			<point x="530" y="750" type="line"/>
			<point x="405" y="750" type="line"/>
			<point x="405" y="664" type="line"/>
			<point x="253" y="664" type="line"/>
			<point x="253" y="592" type="line"/>
			<point x="405" y="592" type="line"/>
			<point x="405" y="426" type="line"/>
			<point x="372" y="495"/>
			<point x="323" y="537"/>
			<point x="247" y="537" type="curve" smooth="yes"/>
			<point x="137" y="537"/>
			<point x="51" y="439"/>
			<point x="51" y="268" type="curve" smooth="yes"/>
			<point x="51" y="258" type="line" smooth="yes"/>
			<point x="51" y="85"/>
			<point x="119" y="-14"/>
		</contour>
		<contour>
			<point x="293" y="84" type="curve" smooth="yes"/>
			<point x="222" y="84"/>
			<point x="179" y="140"/>
			<point x="179" y="258" type="curve" smooth="yes"/>
			<point x="179" y="264" type="line" smooth="yes"/>
			<point x="179" y="381"/>
			<point x="222" y="438"/>
			<point x="294" y="438" type="curve" smooth="yes"/>
			<point x="367" y="438"/>
			<point x="412" y="380"/>
			<point x="412" y="264" type="curve" smooth="yes"/>
			<point x="412" y="258" type="line" smooth="yes"/>
			<point x="412" y="142"/>
			<point x="363" y="84"/>
		</contour>
	</outline>
</glyph>
<glyph name="eogonek" format="2">
	<unicode hex="0119"/>
	<advance width="600"/>
	<outline>
		<contour>
			<point x="391" y="-203" type="curve" smooth="yes"/>
			<point x="422" y="-203"/>
			<point x="448" y="-198"/>
			<point x="463" y="-192" type="curve"/>
			<point x="463" y="-114" type="line"/>
			<point x="456" y="-117"/>
			<point x="441" y="-118"/>
			<point x="425" y="-118" type="curve" smooth="yes"/>
			<point x="395" y="-118"/>
			<point x="372" y="-107"/>
			<point x="372" y="-76" type="curve" smooth="yes"/>
			<point x="372" y="-47"/>
			<point x="394" y="-19"/>
			<point x="454" y="0" type="curve"/>
			<point x="453" y="0" type="line"/>
			<point x="478" y="7"/>
			<point x="501" y="16"/>
			<point x="521" y="27" type="curve"/>
			<point x="521" y="122" type="line"/>
			<point x="476" y="100"/>
			<point x="424" y="86"/>
			<point x="367" y="86" type="curve" smooth="yes"/>
			<point x="263" y="86"/>
			<point x="192" y="133"/>
			<point x="185" y="227" type="curve"/>
			<point x="540" y="227" type="line"/>
			<point x="540" y="281" type="line" smooth="yes"/>
			<point x="540" y="450"/>
			<point x="450" y="537"/>
			<point x="305" y="537" type="curve" smooth="yes"/>
			<point x="165" y="537"/>
			<point x="60" y="434"/>
			<point x="60" y="269" type="curve" smooth="yes"/>
			<point x="60" y="256" type="line" smooth="yes"/>
			<point x="60" y="78"/>
			<point x="167" y="-14"/>
			<point x="339" y="-14" type="curve"/>
			<point x="296" y="-38"/>
			<point x="272" y="-74"/>
			<point x="272" y="-113" type="curve" smooth="yes"/>
			<point x="272" y="-173"/>
			<point x="312" y="-203"/>
		</contour>
		<contour>
			<point x="305" y="448" type="curve" smooth="yes"/>
			<point x="370" y="448"/>
			<point x="414" y="401"/>
			<point x="420" y="310" type="curve"/>
			<point x="183" y="310" type="line"/>
			<point x="189" y="393"/>
			<point x="235" y="448"/>
		</contour>
	</outline>
</glyph>
<glyph name="dotlessi" format="2">
	<unicode hex="0131"/>
	<advance width="600"/>
	<outline>
		<contour>
			<point x="78" y="0" type="line"/>
			<point x="552" y="0" type="line"/>
			<point x="552" y="99" type="line"/>
			<point x="383" y="99" type="line"/>
			<point x="383" y="523" type="line"/>
			<point x="79" y="523" type="line"/>
			<point x="79" y="424" type="line"/>
			<point x="258" y="424" type="line"/>
			<point x="258" y="99" type="line"/>
			<point x="78" y="99" type="line"/>
		</contour>
	</outline>
	<anchor name="ogonek" x="552" y="0"/>
	<anchor name="top" x="321" y="523"/>
</glyph>
<glyph name="ij" format="2">
	<unicode hex="0133"/>
	<advance width="600"/>
	<outline>
		<contour>
			<point x="157" y="616" type="curve" smooth="yes"/>
			<point x="216" y="616"/>
			<point x="238" y="637"/>
			<point x="238" y="683" type="curve" smooth="yes"/>
			<point x="238" y="727"/>
			<point x="215" y="749"/>
			<point x="157" y="749" type="curve" smooth="yes"/>
			<point x="102" y="749"/>
			<point x="78" y="728"/>
			<point x="78" y="683" type="curve" smooth="yes"/>
			<point x="78" y="637"/>
			<point x="100" y="616"/>
		</contour>
		<contour>
			<point x="441" y="616" type="curve" smooth="yes"/>
			<point x="500" y="616"/>
			<point x="522" y="637"/>
			<point x="522" y="683" type="curve" smooth="yes"/>
			<point x="522" y="727"/>
			<point x="499" y="749"/>
			<point x="441" y="749" type="curve" smooth="yes"/>
			<point x="386" y="749"/>
			<point x="362" y="728"/>
			<point x="362" y="683" type="curve" smooth="yes"/>
			<point x="362" y="637"/>
			<point x="384" y="616"/>
		</contour>
		<contour>
			<point x="287" y="-204" type="curve" smooth="yes"/>
			<point x="401" y="-204"/>
			<point x="505" y="-159"/>
			<point x="505" y="-9" type="curve" smooth="yes"/>
			<point x="505" y="523" type="line"/>
			<point x="379" y="523" type="line"/>
			<point x="379" y="3" type="line" smooth="yes"/>
			<point x="379" y="-72"/>
			<point x="346" y="-102"/>
			<point x="267" y="-102" type="curve" smooth="yes"/>
			<point x="222" y="-102"/>
			<point x="183" y="-93"/>
			<point x="157" y="-84" type="curve"/>
			<point x="157" y="-183" type="line"/>
			<point x="186" y="-195"/>
			<point x="239" y="-204"/>
		</contour>
		<contour>
			<point x="95" y="0" type="line"/>
			<point x="220" y="0" type="line"/>
			<point x="220" y="523" type="line"/>
			<point x="95" y="523" type="line"/>
		</contour>
	</outline>
</glyph>
<glyph name="kgreenlandic" format="2">
	<unicode hex="0138"/>
	<advance width="600"/>
	<outline>
		<contour>
			<point x="88" y="0" type="line"/>
			<point x="212" y="0" type="line"/>
			<point x="212" y="136" type="line"/>
			<point x="290" y="234" type="line"/>
			<point x="420" y="0" type="line"/>
			<point x="560" y="0" type="line"/>
			<point x="388" y="308" type="line"/>
			<point x="551" y="525" type="line"/>
			<point x="412" y="525" type="line"/>
			<point x="212" y="255" type="line"/>
			<point x="212" y="524" type="line"/>
			<point x="88" y="524" type="line"/>
		</contour>
	</outline>
</glyph>
<glyph name="eng" format="2">
	<unicode hex="014B"/>
	<advance width="600"/>
	<outline>
		<contour>
			<point x="359" y="-209" type="curve" smooth="yes"/>
			<point x="452" y="-209"/>
			<point x="527" y="-167"/>
			<point x="527" y="-43" type="curve" smooth="yes"/>
			<point x="527" y="347" type="line" smooth="yes"/>
			<point x="527" y="475"/>
			<point x="470" y="537"/>
			<point x="371" y="537" type="curve" smooth="yes"/>
			<point x="289" y="537"/>
			<point x="234" y="486"/>
			<point x="197" y="411" type="curve"/>
			<point x="197" y="523" type="line"/>
			<point x="78" y="523" type="line"/>
			<point x="78" y="0" type="line"/>
			<point x="203" y="0" type="line"/>
			<point x="203" y="307" type="line" smooth="yes"/>
			<point x="203" y="334"/>
			<point x="208" y="358"/>
			<point x="219" y="376" type="curve" smooth="yes"/>
			<point x="237" y="409"/>
			<point x="265" y="434"/>
			<point x="310" y="434" type="curve" smooth="yes"/>
			<point x="371" y="434"/>
			<point x="402" y="393"/>
			<point x="402" y="319" type="curve" smooth="yes"/>
			<point x="402" y="-37" type="line" smooth="yes"/>
			<point x="402" y="-83"/>
			<point x="378" y="-110"/>
			<point x="327" y="-110" type="curve" smooth="yes"/>
			<point x="309" y="-110"/>
			<point x="290" y="-106"/>
			<point x="279" y="-103" type="curve"/>
			<point x="279" y="-198" type="line"/>
			<point x="298" y="-203"/>
			<point x="328" y="-209"/>
		</contour>
	</outline>
</glyph>
<glyph name="oe" format="2">
	<unicode hex="0153"/>
	<advance width="600"/>
	<outline>
		<contour>
			<point x="146" y="-14" type="curve" smooth="yes"/>
			<point x="202" y="-14"/>
			<point x="244" y="22"/>
			<point x="265" y="121" type="curve"/>
			<point x="287" y="36"/>
			<point x="343" y="-14"/>
			<point x="436" y="-14" type="curve" smooth="yes"/>
			<point x="499" y="-14"/>
			<point x="543" y="5"/>
			<point x="571" y="24" type="curve"/>
			<point x="571" y="117" type="line"/>
			<point x="536" y="94"/>
			<point x="497" y="82"/>
			<point x="457" y="82" type="curve" smooth="yes"/>
			<point x="391" y="82"/>
			<point x="357" y="124"/>
			<point x="353" y="228" type="curve"/>
			<point x="589" y="228" type="line"/>
			<point x="589" y="281" type="line" smooth="yes"/>
			<point x="589" y="452"/>
			<point x="532" y="536"/>
			<point x="429" y="536" type="curve" smooth="yes"/>
			<point x="375" y="536"/>
			<point x="335" y="512"/>
			<point x="307" y="464" type="curve"/>
			<point x="282" y="510"/>
			<point x="240" y="536"/>
			<point x="184" y="536" type="curve" smooth="yes"/>
			<point x="64" y="536"/>
			<point x="11" y="438"/>
			<point x="11" y="262" type="curve" smooth="yes"/>
			<point x="11" y="248" type="line" smooth="yes"/>
			<point x="11" y="87"/>
			<point x="52" y="-14"/>
		</contour>
		<contour>
			<point x="422" y="449" type="curve" smooth="yes"/>
			<point x="464" y="449"/>
			<point x="483" y="402"/>
			<point x="484" y="306" type="curve"/>
			<point x="352" y="306" type="line"/>
			<point x="355" y="401"/>
			<point x="379" y="449"/>
		</contour>
		<contour>
			<point x="182" y="83" type="curve" smooth="yes"/>
			<point x="139" y="83"/>
			<point x="120" y="136"/>
			<point x="120" y="260" type="curve" smooth="yes"/>
			<point x="120" y="267" type="line" smooth="yes"/>
			<point x="120" y="395"/>
			<point x="138" y="446"/>
			<point x="183" y="446" type="curve" smooth="yes"/>
			<point x="231" y="446"/>
			<point x="247" y="392"/>
			<point x="247" y="267" type="curve" smooth="yes"/>
			<point x="247" y="260" type="line" smooth="yes"/>
			<point x="247" y="139"/>
			<point x="228" y="83"/>
		</contour>
	</outline>
</glyph>
<glyph name="Scedilla" format="2">
	<unicode hex="015E"/>
	<advance width="600"/>
	<outline>
		<contour>
			<point x="287" y="-226" type="curve" smooth="yes"/>
			<point x="364" y="-226"/>
			<point x="410" y="-190"/>
			<point x="410" y="-125" type="curve" smooth="yes"/>
			<point x="410" y="-78"/>
			<point x="379" y="-47"/>
			<point x="320" y="-45" type="curve"/>
			<point x="336" y="-13" type="line"/>
			<point x="464" y="-3"/>
			<point x="549" y="71"/>
			<point x="549" y="207" type="curve" smooth="yes"/>
			<point x="549" y="353"/>
			<point x="437" y="380"/>
			<point x="313" y="403" type="curve" smooth="yes"/>
			<point x="227" y="418"/>
			<point x="180" y="436"/>
			<point x="180" y="499" type="curve" smooth="yes"/>
			<point x="180" y="564"/>
			<point x="230" y="596"/>
			<point x="299" y="596" type="curve" smooth="yes"/>
			<point x="383" y="596"/>
			<point x="472" y="568"/>
			<point x="531" y="526" type="curve"/>
			<point x="531" y="640" type="line"/>
			<point x="479" y="673"/>
			<point x="392" y="698"/>
			<point x="302" y="698" type="curve" smooth="yes"/>
			<point x="155" y="698"/>
			<point x="53" y="622"/>
			<point x="53" y="483" type="curve" smooth="yes"/>
			<point x="53" y="334"/>
			<point x="154" y="306"/>
			<point x="283" y="284" type="curve" smooth="yes"/>
			<point x="365" y="270"/>
			<point x="422" y="257"/>
			<point x="422" y="188" type="curve" smooth="yes"/>
			<point x="422" y="122"/>
			<point x="375" y="90"/>
			<point x="305" y="90" type="curve" smooth="yes"/>
			<point x="223" y="90"/>
			<point x="137" y="121"/>
			<point x="62" y="178" type="curve"/>
			<point x="62" y="58" type="line"/>
			<point x="114" y="24"/>
			<point x="179" y="-6"/>
			<point x="269" y="-13" type="curve"/>
			<point x="234" y="-93" type="line"/>
			<point x="241" y="-91"/>
			<point x="255" y="-90"/>
			<point x="269" y="-90" type="curve" smooth="yes"/>
			<point x="304" y="-90"/>
			<point x="327" y="-98"/>
			<point x="327" y="-125" type="curve" smooth="yes"/>
			<point x="327" y="-152"/>
			<point x="307" y="-163"/>
			<point x="269" y="-163" type="curve" smooth="yes"/>
			<point x="250" y="-163"/>
			<point x="226" y="-158"/>
			<point x="201" y="-147" type="curve"/>
			<point x="201" y="-208" type="line"/>
			<point x="220" y="-218"/>
			<point x="255" y="-226"/>
		</contour>
	</outline>
</glyph>
<glyph name="scedilla" format="2">
	<unicode hex="015F"/>
	<advance width="600"/>
	<outline>
		<contour>
			<point x="282" y="-226" type="curve" smooth="yes"/>
			<point x="359" y="-226"/>
			<point x="405" y="-190"/>
			<point x="405" y="-125" type="curve" smooth="yes"/>
			<point x="405" y="-78"/>
			<point x="374" y="-47"/>
			<point x="315" y="-45" type="curve"/>
			<point x="331" y="-13" type="line"/>
			<point x="457" y="-3"/>
			<point x="521" y="65"/>
			<point x="521" y="163" type="curve" smooth="yes"/>
			<point x="521" y="275"/>
			<point x="431" y="299"/>
			<point x="312" y="319" type="curve" smooth="yes"/>
			<point x="243" y="331"/>
			<point x="200" y="339"/>
			<point x="200" y="384" type="curve" smooth="yes"/>
			<point x="200" y="421"/>
			<point x="231" y="444"/>
			<point x="297" y="444" type="curve" smooth="yes"/>
			<point x="374" y="444"/>
			<point x="454" y="421"/>
			<point x="511" y="383" type="curve"/>
			<point x="511" y="488" type="line"/>
			<point x="457" y="518"/>
			<point x="388" y="537"/>
			<point x="297" y="537" type="curve" smooth="yes"/>
			<point x="170" y="537"/>
			<point x="79" y="476"/>
			<point x="79" y="367" type="curve" smooth="yes"/>
			<point x="79" y="252"/>
			<point x="158" y="225"/>
			<point x="287" y="206" type="curve" smooth="yes"/>
			<point x="361" y="195"/>
			<point x="400" y="186"/>
			<point x="400" y="144" type="curve" smooth="yes"/>
			<point x="400" y="104"/>
			<point x="366" y="81"/>
			<point x="302" y="81" type="curve" smooth="yes"/>
			<point x="233" y="81"/>
			<point x="149" y="102"/>
			<point x="88" y="144" type="curve"/>
			<point x="88" y="41" type="line"/>
			<point x="130" y="14"/>
			<point x="196" y="-7"/>
			<point x="264" y="-13" type="curve"/>
			<point x="229" y="-93" type="line"/>
			<point x="236" y="-91"/>
			<point x="250" y="-90"/>
			<point x="264" y="-90" type="curve" smooth="yes"/>
			<point x="299" y="-90"/>
			<point x="322" y="-98"/>
			<point x="322" y="-125" type="curve" smooth="yes"/>
			<point x="322" y="-152"/>
			<point x="302" y="-163"/>
			<point x="264" y="-163" type="curve" smooth="yes"/>
			<point x="245" y="-163"/>
			<point x="221" y="-158"/>
			<point x="196" y="-147" type="curve"/>
			<point x="196" y="-208" type="line"/>
			<point x="215" y="-218"/>
			<point x="250" y="-226"/>
		</contour>
	</outline>
</glyph>
<glyph name="tcaron" format="2">
	<unicode hex="0165"/>
	<advance width="600"/>
	<outline>
		<contour>
			<point x="430" y="620" type="line"/>
			<point x="499" y="620" type="line"/>
			<point x="565" y="780" type="line"/>
			<point x="444" y="780" type="line"/>
		</contour>
		<contour>
			<point x="380" y="-12" type="curve" smooth="yes"/>
			<point x="433" y="-12"/>
			<point x="483" y="1"/>
			<point x="512" y="16" type="curve"/>
			<point x="512" y="108" type="line"/>
			<point x="486" y="95"/>
			<point x="446" y="88"/>
			<point x="416" y="88" type="curve" smooth="yes"/>
			<point x="354" y="88"/>
			<point x="316" y="113"/>
			<point x="316" y="187" type="curve" smooth="yes"/>
			<point x="316" y="424" type="line"/>
			<point x="517" y="424" type="line"/>
			<point x="517" y="523" type="line"/>
			<point x="317" y="523" type="line"/>
			<point x="317" y="692" type="line"/>
			<point x="206" y="692" type="line"/>
			<point x="199" y="585" type="line" smooth="yes"/>
			<point x="195" y="527"/>
			<point x="164" y="518"/>
			<point x="131" y="518" type="curve" smooth="yes"/>
			<point x="52" y="518" type="line"/>
			<point x="52" y="424" type="line"/>
			<point x="191" y="424" type="line"/>
			<point x="191" y="168" type="line" smooth="yes"/>
			<point x="191" y="37"/>
			<point x="259" y="-12"/>
		</contour>
	</outline>
</glyph>
<glyph name="Tbar" format="2">
	<unicode hex="0166"/>
	<advance width="600"/>
	<outline>
		<contour>
			<point x="236" y="0" type="line"/>
			<point x="363" y="0" type="line"/>
			<point x="363" y="303" type="line"/>
			<point x="485" y="303" type="line"/>
			<point x="485" y="386" type="line"/>
			<point x="363" y="386" type="line"/>
			<point x="363" y="575" type="line"/>
			<point x="564" y="575" type="line"/>
			<point x="564" y="684" type="line"/>
			<point x="36" y="684" type="line"/>
			<point x="36" y="575" type="line"/>
			<point x="236" y="575" type="line"/>
			<point x="236" y="386" type="line"/>
			<point x="114" y="386" type="line"/>
			<point x="114" y="303" type="line"/>
			<point x="236" y="303" type="line"/>
		</contour>
	</outline>
</glyph>
<glyph name="oslashacute" format="2">
	<unicode hex="01FF"/>
	<advance width="600"/>
	<outline>
		<contour>
			<point x="454" y="750" type="line"/>
			<point x="315" y="750" type="line"/>
			<point x="251" y="602" type="line"/>
			<point x="349" y="602" type="line"/>
		</contour>
		<contour>
			<point x="300" y="-14" type="curve" smooth="yes"/>
			<point x="446" y="-14"/>
			<point x="547" y="86"/>
			<point x="547" y="255" type="curve" smooth="yes"/>
			<point x="547" y="269" type="line" smooth="yes"/>
			<point x="547" y="342"/>
			<point x="528" y="403"/>
			<point x="494" y="448" type="curve"/>
			<point x="571" y="548" type="line"/>
			<point x="471" y="548" type="line"/>
			<point x="435" y="501" type="line"/>
			<point x="398" y="525"/>
			<point x="352" y="537"/>
			<point x="300" y="537" type="curve" smooth="yes"/>
			<point x="153" y="537"/>
			<point x="53" y="435"/>
			<point x="53" y="269" type="curve" smooth="yes"/>
			<point x="53" y="255" type="line" smooth="yes"/>
			<point x="53" y="181"/>
			<point x="72" y="120"/>
			<point x="106" y="75" type="curve"/>
			<point x="30" y="-23" type="line"/>
			<point x="130" y="-23" type="line"/>
			<point x="164" y="22" type="line"/>
			<point x="202" y="-2"/>
			<point x="248" y="-14"/>
		</contour>
		<contour>
			<point x="181" y="258" type="curve" smooth="yes"/>
			<point x="181" y="265" type="line" smooth="yes"/>
			<point x="181" y="385"/>
			<point x="227" y="439"/>
			<point x="300" y="439" type="curve" smooth="yes"/>
			<point x="327" y="439"/>
			<point x="351" y="431"/>
			<point x="370" y="415" type="curve"/>
			<point x="190" y="180" type="line"/>
			<point x="184" y="202"/>
			<point x="181" y="228"/>
		</contour>
		<contour>
			<point x="300" y="85" type="curve" smooth="yes"/>
			<point x="273" y="85"/>
			<point x="249" y="93"/>
			<point x="230" y="108" type="curve"/>
			<point x="410" y="344" type="line"/>
			<point x="416" y="322"/>
			<point x="419" y="295"/>
			<point x="419" y="265" type="curve" smooth="yes"/>
			<point x="419" y="258" type="line" smooth="yes"/>
			<point x="419" y="139"/>
			<point x="373" y="85"/>
		</contour>
	</outline>
</glyph>
<glyph name="dotlessj" format="2">
	<unicode hex="0237"/>
	<advance width="600"/>
	<outline>
		<contour>
			<point x="221" y="-204" type="curve" smooth="yes"/>
			<point x="357" y="-204"/>
			<point x="471" y="-159"/>
			<point x="471" y="11" type="curve" smooth="yes"/>
			<point x="471" y="523" type="line"/>
			<point x="79" y="523" type="line"/>
			<point x="79" y="424" type="line"/>
			<point x="346" y="424" type="line"/>
			<point x="346" y="24" type="line" smooth="yes"/>
			<point x="346" y="-71"/>
			<point x="303" y="-102"/>
			<point x="201" y="-102" type="curve" smooth="yes"/>
			<point x="151" y="-102"/>
			<point x="107" y="-93"/>
			<point x="79" y="-83" type="curve"/>
			<point x="79" y="-181" type="line"/>
			<point x="110" y="-195"/>
			<point x="168" y="-204"/>
		</contour>
	</outline>
	<anchor name="top" x="409" y="523"/>
</glyph>
<glyph name="dotaccent" format="2">
	<unicode hex="02D9"/>
	<advance width="600"/>
	<outline>
		<contour>
			<point x="299" y="610" type="curve" smooth="yes"/>
			<point x="358" y="610"/>
			<point x="380" y="631"/>
			<point x="380" y="677" type="curve" smooth="yes"/>
			<point x="380" y="721"/>
			<point x="357" y="743"/>
			<point x="299" y="743" type="curve" smooth="yes"/>
			<point x="244" y="743"/>
			<point x="220" y="722"/>
			<point x="220" y="677" type="curve" smooth="yes"/>
			<point x="220" y="631"/>
			<point x="242" y="610"/>
		</contour>
	</outline>
	<anchor name="_top" x="300" y="523"/>
</glyph>
<glyph name="ring" format="2">
	<unicode hex="02DA"/>
	<advance width="600"/>
	<outline>
		<contour>
			<point x="300" y="591" type="curve" smooth="yes"/>
			<point x="381" y="591"/>
			<point x="431" y="633"/>
			<point x="431" y="714" type="curve" smooth="yes"/>
			<point x="431" y="795"/>
			<point x="379" y="836"/>
			<point x="301" y="836" type="curve" smooth="yes"/>
			<point x="224" y="836"/>
			<point x="169" y="797"/>
			<point x="169" y="713" type="curve" smooth="yes"/>
			<point x="169" y="630"/>
			<point x="220" y="591"/>
		</contour>
		<contour>
			<point x="300" y="649" type="curve" smooth="yes"/>
			<point x="258" y="649"/>
			<point x="236" y="672"/>
			<point x="236" y="713" type="curve" smooth="yes"/>
			<point x="236" y="754"/>
			<point x="259" y="778"/>
			<point x="301" y="778" type="curve" smooth="yes"/>
			<point x="342" y="778"/>
			<point x="364" y="754"/>
			<point x="364" y="713" type="curve" smooth="yes"/>
			<point x="364" y="672"/>
			<point x="342" y="649"/>
		</contour>
	</outline>
	<anchor name="_top" x="300" y="523"/>
</glyph>
<glyph name="ogonek" format="2">
	<unicode hex="02DB"/>
	<advance width="600"/>
	<outline>
		<contour>
			<point x="322" y="-203" type="curve" smooth="yes"/>
			<point x="353" y="-203"/>
			<point x="379" y="-198"/>
			<point x="394" y="-192" type="curve"/>
			<point x="394" y="-114" type="line"/>
			<point x="387" y="-117"/>
			<point x="372" y="-118"/>
			<point x="356" y="-118" type="curve" smooth="yes"/>
			<point x="326" y="-118"/>
			<point x="303" y="-107"/>
			<point x="303" y="-76" type="curve" smooth="yes"/>
			<point x="303" y="-47"/>
			<point x="325" y="-19"/>
			<point x="385" y="0" type="curve"/>
			<point x="301" y="0" type="line"/>
			<point x="239" y="-22"/>
			<point x="203" y="-65"/>
			<point x="203" y="-113" type="curve" smooth="yes"/>
			<point x="203" y="-173"/>
			<point x="243" y="-203"/>
		</contour>
	</outline>
	<anchor name="_ogonek" x="385" y="0"/>
</glyph>
<glyph name="tilde" format="2">
	<unicode hex="02DC"/>
	<advance width="600"/>
	<outline>
		<contour>
			<point x="122" y="609" type="curve"/>
			<point x="208" y="609" type="line"/>
			<point x="208" y="647"/>
			<point x="217" y="668"/>
			<point x="242" y="668" type="curve" smooth="yes"/>
			<point x="281" y="668"/>
			<point x="302" y="605"/>
			<point x="373" y="605" type="curve" smooth="yes"/>
			<point x="432" y="605"/>
			<point x="477" y="639"/>
			<point x="477" y="741" type="curve"/>
			<point x="391" y="741" type="line"/>
			<point x="391" y="703"/>
			<point x="382" y="685"/>
			<point x="359" y="685" type="curve" smooth="yes"/>
			<point x="322" y="685"/>
			<point x="293" y="745"/>
			<point x="225" y="745" type="curve" smooth="yes"/>
			<point x="163" y="745"/>
			<point x="122" y="701"/>
		</contour>
	</outline>
	<anchor name="_top" x="300" y="523"/>
</glyph>
<glyph name="pi" format="2">
	<unicode hex="03C0"/>
	<advance width="600"/>
	<outline>
		<contour>
			<point x="94" y="0" type="line"/>
			<point x="211" y="0" type="line"/>
			<point x="211" y="425" type="line"/>
			<point x="372" y="425" type="line"/>
			<point x="372" y="120" type="line" smooth="yes"/>
			<point x="372" y="33"/>
			<point x="409" y="-12"/>
			<point x="501" y="-12" type="curve" smooth="yes"/>
			<point x="530" y="-12"/>
			<point x="559" y="-6"/>
			<point x="575" y="-1" type="curve"/>
			<point x="575" y="85" type="line"/>
			<point x="569" y="83"/>
			<point x="557" y="81"/>
			<point x="544" y="81" type="curve" smooth="yes"/>
			<point x="509" y="81"/>
			<point x="490" y="97"/>
			<point x="490" y="133" type="curve" smooth="yes"/>
			<point x="490" y="425" type="line"/>
			<point x="575" y="425" type="line"/>
			<point x="575" y="523" type="line"/>
			<point x="14" y="523" type="line"/>
			<point x="14" y="425" type="line"/>
			<point x="94" y="425" type="line"/>
		</contour>
	</outline>
</glyph>
<glyph name="emdash" format="2">
	<unicode hex="2014"/>
	<advance width="600"/>
	<outline>
		<contour>
			<point x="600" y="353" type="line"/>
			<point x="0" y="353" type="line"/>
			<point x="0" y="239" type="line"/>
			<point x="600" y="239" type="line"/>
		</contour>
	</outline>
</glyph>
<glyph name="quoteright" format="2">
	<unicode hex="2019"/>
	<advance width="600"/>
	<outline>
		<contour>
			<point x="253" y="750" type="line"/>
			<point x="205" y="453" type="line"/>
			<point x="288" y="453" type="line"/>
			<point x="402" y="750" type="line"/>
		</contour>
	</outline>
</glyph>
<glyph name="quotesinglbase" format="2">
	<unicode hex="201A"/>
	<advance width="600"/>
	<outline>
		<contour>
			<point x="253" y="143" type="line"/>
			<point x="205" y="-154" type="line"/>
			<point x="288" y="-154" type="line"/>
			<point x="402" y="143" type="line"/>
		</contour>
	</outline>
</glyph>
<glyph name="dagger" format="2">
	<unicode hex="2020"/>
	<advance width="600"/>
	<outline>
		<contour>
			<point x="65" y="570" type="line"/>
			<point x="65" y="458" type="line"/>
			<point x="238" y="458" type="line"/>
			<point x="238" y="-143" type="line"/>
			<point x="361" y="-143" type="line"/>
			<point x="361" y="458" type="line"/>
			<point x="535" y="458" type="line"/>
			<point x="535" y="570" type="line"/>
			<point x="361" y="570" type="line"/>
			<point x="361" y="765" type="line"/>
			<point x="238" y="765" type="line"/>
			<point x="238" y="570" type="line"/>
		</contour>
	</outline>
</glyph>
<glyph name="ellipsis" format="2">
	<unicode hex="2026"/>
	<advance width="600"/>
	<outline>
		<contour>
			<point x="110" y="-12" type="curve" smooth="yes"/>
			<point x="151" y="-12"/>
			<point x="173" y="9"/>
			<point x="173" y="69" type="curve" smooth="yes"/>
			<point x="173" y="130"/>
			<point x="151" y="150"/>
			<point x="110" y="150" type="curve" smooth="yes"/>
			<point x="68" y="150"/>
			<point x="45" y="130"/>
			<point x="45" y="69" type="curve" smooth="yes"/>
			<point x="45" y="9"/>
			<point x="68" y="-12"/>
		</contour>
		<contour>
			<point x="299" y="-12" type="curve" smooth="yes"/>
			<point x="342" y="-12"/>
			<point x="364" y="10"/>
			<point x="364" y="69" type="curve" smooth="yes"/>
			<point x="364" y="129"/>
			<point x="342" y="150"/>
			<point x="299" y="150" type="curve" smooth="yes"/>
			<point x="258" y="150"/>
			<point x="236" y="129"/>
			<point x="236" y="69" type="curve" smooth="yes"/>
			<point x="236" y="10"/>
			<point x="258" y="-12"/>
		</contour>
		<contour>
			<point x="491" y="-12" type="curve" smooth="yes"/>
			<point x="532" y="-12"/>
			<point x="555" y="10"/>
			<point x="555" y="69" type="curve" smooth="yes"/>
			<point x="555" y="129"/>
			<point x="532" y="150"/>
			<point x="491" y="150" type="curve" smooth="yes"/>
			<point x="449" y="150"/>
			<point x="426" y="129"/>
			<point x="426" y="69" type="curve" smooth="yes"/>
			<point x="426" y="10"/>
			<point x="449" y="-12"/>
		</contour>
	</outline>
</glyph>
<glyph name="guilsinglright" format="2">
	<unicode hex="203A"/>
	<advance width="600"/>
	<outline>
		<contour>
			<point x="124" y="77" type="line"/>
			<point x="279" y="77" type="line"/>
			<point x="488" y="287" type="line"/>
			<point x="278" y="497" type="line"/>
			<point x="124" y="497" type="line"/>
			<point x="333" y="290" type="line"/>
		</contour>
	</outline>
</glyph>
<glyph name="fraction" format="2">
	<unicode hex="2044"/>
	<advance width="600"/>
	<outline>
		<contour>
			<point x="383" y="414" type="line"/>
			<point x="471" y="414" type="line"/>
			<point x="575" y="684" type="line"/>
			<point x="469" y="684" type="line"/>
		</contour>
		<contour>
			<point x="25" y="0" type="line"/>
			<point x="131" y="0" type="line"/>
			<point x="218" y="271" type="line"/>
			<point x="129" y="271" type="line"/>
		</contour>
	</outline>
</glyph>
<glyph name="Euro" format="2">
	<unicode hex="20AC"/>
	<advance width="600"/>
	<outline>
		<contour>
			<point x="23" y="230" type="line"/>
			<point x="105" y="230" type="line"/>
			<point x="135" y="71"/>
			<point x="237" y="-12"/>
			<point x="392" y="-12" type="curve" smooth="yes"/>
			<point x="464" y="-12"/>
			<point x="518" y="3"/>
			<point x="557" y="28" type="curve"/>
			<point x="557" y="131" type="line"/>
			<point x="517" y="107"/>
			<point x="469" y="97"/>
			<point x="418" y="97" type="curve" smooth="yes"/>
			<point x="327" y="97"/>
			<point x="265" y="139"/>
			<point x="240" y="230" type="curve"/>
			<point x="460" y="230" type="line"/>
			<point x="460" y="308" type="line"/>
			<point x="228" y="308" type="line"/>
			<point x="227" y="318"/>
			<point x="227" y="329"/>
			<point x="227" y="340" type="curve" smooth="yes"/>
			<point x="227" y="347" type="line" smooth="yes"/>
			<point x="227" y="357"/>
			<point x="227" y="367"/>
			<point x="228" y="377" type="curve"/>
			<point x="460" y="377" type="line"/>
			<point x="460" y="455" type="line"/>
			<point x="241" y="455" type="line"/>
			<point x="267" y="546"/>
			<point x="331" y="591"/>
			<point x="424" y="590" type="curve" smooth="yes"/>
			<point x="474" y="590"/>
			<point x="519" y="578"/>
			<point x="555" y="558" type="curve"/>
			<point x="555" y="664" type="line"/>
			<point x="518" y="683"/>
			<point x="462" y="695"/>
			<point x="406" y="695" type="curve" smooth="yes"/>
			<point x="248" y="695"/>
			<point x="139" y="610"/>
			<point x="106" y="455" type="curve"/>
			<point x="23" y="455" type="line"/>
			<point x="23" y="377" type="line"/>
			<point x="97" y="377" type="line"/>
			<point x="96" y="368"/>
			<point x="96" y="360"/>
			<point x="96" y="351" type="curve" smooth="yes"/>
			<point x="96" y="337" type="line" smooth="yes"/>
			<point x="96" y="327"/>
			<point x="96" y="317"/>
			<point x="97" y="308" type="curve"/>
			<point x="23" y="308" type="line"/>
		</contour>
	</outline>
</glyph>
<glyph name="published" format="2">
	<unicode hex="2117"/>
	<advance width="600"/>
	<outline>
		<contour>
			<point x="300" y="104" type="curve" smooth="yes"/>
			<point x="446" y="104"/>
			<point x="561" y="198"/>
			<point x="561" y="373" type="curve" smooth="yes"/>
			<point x="561" y="387" type="line" smooth="yes"/>
			<point x="561" y="561"/>
			<point x="444" y="657"/>
			<point x="300" y="657" type="curve" smooth="yes"/>
			<point x="156" y="657"/>
			<point x="39" y="561"/>
			<point x="39" y="387" type="curve" smooth="yes"/>
			<point x="39" y="373" type="line" smooth="yes"/>
			<point x="39" y="198"/>
			<point x="154" y="104"/>
		</contour>
		<contour>
			<point x="300" y="161" type="curve" smooth="yes"/>
			<point x="174" y="161"/>
			<point x="98" y="241"/>
			<point x="98" y="376" type="curve" smooth="yes"/>
			<point x="98" y="383" type="line" smooth="yes"/>
			<point x="98" y="521"/>
			<point x="176" y="599"/>
			<point x="300" y="599" type="curve" smooth="yes"/>
			<point x="424" y="599"/>
			<point x="502" y="520"/>
			<point x="502" y="384" type="curve" smooth="yes"/>
			<point x="502" y="376" type="line" smooth="yes"/>
			<point x="502" y="240"/>
			<point x="426" y="161"/>
		</contour>
		<contour>
			<point x="208" y="250" type="line"/>
			<point x="267" y="250" type="line"/>
			<point x="267" y="329" type="line"/>
			<point x="317" y="329" type="line" smooth="yes"/>
			<point x="377" y="329"/>
			<point x="418" y="364"/>
			<point x="418" y="422" type="curve" smooth="yes"/>
			<point x="418" y="477"/>
			<point x="383" y="511"/>
			<point x="318" y="511" type="curve" smooth="yes"/>
			<point x="208" y="511" type="line"/>
		</contour>
		<contour>
			<point x="312" y="465" type="line" smooth="yes"/>
			<point x="340" y="465"/>
			<point x="359" y="448"/>
			<point x="359" y="421" type="curve" smooth="yes"/>
			<point x="359" y="395"/>
			<point x="341" y="375"/>
			<point x="312" y="375" type="curve" smooth="yes"/>
			<point x="267" y="375" type="line"/>
			<point x="267" y="465" type="line"/>
		</contour>
	</outline>
</glyph>
<glyph name="servicemark" format="2">
	<unicode hex="2120"/>
	<advance width="600"/>
	<outline>
		<contour>
			<point x="138" y="337" type="curve" smooth="yes"/>
			<point x="209" y="337"/>
			<point x="256" y="378"/>
			<point x="256" y="450" type="curve" smooth="yes"/>
			<point x="256" y="520"/>
			<point x="203" y="536"/>
			<point x="147" y="547" type="curve" smooth="yes"/>
			<point x="109" y="554"/>
			<point x="87" y="563"/>
			<point x="87" y="591" type="curve" smooth="yes"/>
			<point x="87" y="618"/>
			<point x="105" y="635"/>
			<point x="142" y="635" type="curve" smooth="yes"/>
			<point x="184" y="635"/>
			<point x="224" y="619"/>
			<point x="251" y="598" type="curve"/>
			<point x="251" y="661" type="line"/>
			<point x="231" y="673"/>
			<point x="195" y="689"/>
			<point x="143" y="689" type="curve" smooth="yes"/>
			<point x="69" y="689"/>
			<point x="22" y="648"/>
			<point x="22" y="581" type="curve" smooth="yes"/>
			<point x="22" y="507"/>
			<point x="74" y="493"/>
			<point x="131" y="483" type="curve" smooth="yes"/>
			<point x="173" y="476"/>
			<point x="191" y="466"/>
			<point x="191" y="438" type="curve" smooth="yes"/>
			<point x="191" y="410"/>
			<point x="170" y="392"/>
			<point x="138" y="392" type="curve" smooth="yes"/>
			<point x="100" y="392"/>
			<point x="57" y="409"/>
			<point x="27" y="432" type="curve"/>
			<point x="27" y="369" type="line"/>
			<point x="49" y="354"/>
			<point x="85" y="337"/>
		</contour>
		<contour>
			<point x="292" y="342" type="line"/>
			<point x="351" y="342" type="line"/>
			<point x="351" y="479" type="line" smooth="yes"/>
			<point x="351" y="528"/>
			<point x="348" y="573"/>
			<point x="343" y="617" type="curve"/>
			<point x="348" y="617" type="line"/>
			<point x="399" y="431" type="line"/>
			<point x="455" y="431" type="line"/>
			<point x="506" y="617" type="line"/>
			<point x="511" y="617" type="line"/>
			<point x="506" y="573"/>
			<point x="504" y="530"/>
			<point x="504" y="479" type="curve" smooth="yes"/>
			<point x="504" y="342" type="line"/>
			<point x="563" y="342" type="line"/>
			<point x="563" y="684" type="line"/>
			<point x="474" y="684" type="line"/>
			<point x="428" y="499" type="line"/>
			<point x="426" y="499" type="line"/>
			<point x="380" y="684" type="line"/>
			<point x="292" y="684" type="line"/>
		</contour>
	</outline>
</glyph>
<glyph name="arrowleft" format="2">
	<unicode hex="2190"/>
	<advance width="600"/>
	<outline>
		<contour>
			<point x="369" y="126" type="line"/>
			<point x="191" y="301" type="line"/>
			<point x="566" y="301" type="line"/>
			<point x="566" y="403" type="line"/>
			<point x="191" y="403" type="line"/>
			<point x="368" y="577" type="line"/>
			<point x="239" y="577" type="line"/>
			<point x="14" y="352" type="line"/>
			<point x="240" y="126" type="line"/>
		</contour>
	</outline>
</glyph>
<glyph name="uni2198" format="2">
	<unicode hex="2198"/>
	<advance width="600"/>
	<outline>
		<contour>
			<point x="225" y="68" type="line"/>
			<point x="556" y="68" type="line"/>
			<point x="556" y="401" type="line"/>
			<point x="467" y="491" type="line"/>
			<point x="468" y="229" type="line"/>
			<point x="86" y="610" type="line"/>
			<point x="14" y="537" type="line"/>
			<point x="395" y="158" type="line"/>
			<point x="134" y="159" type="line"/>
		</contour>
	</outline>
</glyph>
<glyph name="uni2199" format="2">
	<unicode hex="2199"/>
	<advance width="600"/>
	<outline>
		<contour>
			<point x="44" y="68" type="line"/>
			<point x="377" y="68" type="line"/>
			<point x="466" y="158" type="line"/>
			<point x="204" y="156" type="line"/>
			<point x="586" y="537" type="line"/>
			<point x="514" y="610" type="line"/>
			<point x="133" y="227" type="line"/>
			<point x="135" y="490" type="line"/>
			<point x="44" y="399" type="line"/>
		</contour>
	</outline>
</glyph>
<glyph name="partialdiff" format="2">
	<unicode hex="2202"/>
	<advance width="600"/>
	<outline>
		<contour>
			<point x="294" y="-13" type="curve" smooth="yes"/>
			<point x="441" y="-13"/>
			<point x="547" y="88"/>
			<point x="547" y="286" type="curve" smooth="yes"/>
			<point x="547" y="300" type="line" smooth="yes"/>
			<point x="547" y="491"/>
			<point x="458" y="606"/>
			<point x="344" y="684" type="curve"/>
			<point x="156" y="684" type="line"/>
			<point x="286" y="606"/>
			<point x="364" y="533"/>
			<point x="402" y="418" type="curve"/>
			<point x="360" y="474"/>
			<point x="311" y="503"/>
			<point x="245" y="503" type="curve" smooth="yes"/>
			<point x="128" y="503"/>
			<point x="53" y="398"/>
			<point x="53" y="258" type="curve" smooth="yes"/>
			<point x="53" y="244" type="line" smooth="yes"/>
			<point x="53" y="75"/>
			<point x="147" y="-13"/>
		</contour>
		<contour>
			<point x="299" y="85" type="curve" smooth="yes"/>
			<point x="225" y="85"/>
			<point x="181" y="139"/>
			<point x="181" y="246" type="curve" smooth="yes"/>
			<point x="181" y="253" type="line" smooth="yes"/>
			<point x="181" y="367"/>
			<point x="231" y="416"/>
			<point x="302" y="416" type="curve" smooth="yes"/>
			<point x="370" y="416"/>
			<point x="419" y="372"/>
			<point x="419" y="259" type="curve" smooth="yes"/>
			<point x="419" y="252" type="line" smooth="yes"/>
			<point x="419" y="140"/>
			<point x="373" y="85"/>
		</contour>
	</outline>
</glyph>
<glyph name="increment" format="2">
	<unicode hex="2206"/>
	<advance width="600"/>
	<outline>
		<contour>
			<point x="15" y="0" type="line"/>
			<point x="585" y="0" type="line"/>
			<point x="387" y="686" type="line"/>
			<point x="211" y="686" type="line"/>
		</contour>
		<contour>
			<point x="173" y="105" type="line"/>
			<point x="299" y="595" type="line"/>
			<point x="426" y="105" type="line"/>
		</contour>
	</outline>
</glyph>
<glyph name="product" format="2">
	<unicode hex="220F"/>
	<advance width="600"/>
	<outline>
		<contour>
			<point x="67" y="0" type="line"/>
			<point x="190" y="0" type="line"/>
			<point x="190" y="579" type="line"/>
			<point x="410" y="579" type="line"/>
			<point x="410" y="0" type="line"/>
			<point x="533" y="0" type="line"/>
			<point x="533" y="684" type="line"/>
			<point x="67" y="684" type="line"/>
		</contour>
	</outline>
</glyph>
<glyph name="minus" format="2">
	<unicode hex="2212"/>
	<advance width="600"/>
	<outline>
		<contour>
			<point x="69" y="244" type="line"/>
			<point x="531" y="244" type="line"/>
			<point x="531" y="350" type="line"/>
			<point x="69" y="350" type="line"/>
		</contour>
	</outline>
</glyph>
<glyph name="radical" format="2">
	<unicode hex="221A"/>
	<advance width="600"/>
	<outline>
		<contour>
			<point x="192" y="0" type="line"/>
			<point x="353" y="0" type="line"/>
			<point x="580" y="684" type="line"/>
			<point x="446" y="684" type="line"/>
			<point x="274" y="129" type="line"/>
			<point x="186" y="450" type="line"/>
			<point x="29" y="450" type="line"/>
			<point x="29" y="342" type="line"/>
			<point x="91" y="342" type="line"/>
		</contour>
	</outline>
</glyph>
<glyph name="approxequal" format="2">
	<unicode hex="2248"/>
	<advance width="600"/>
	<outline>
		<contour>
			<point x="173" y="379" type="curve" smooth="yes"/>
			<point x="242" y="379"/>
			<point x="332" y="323"/>
			<point x="428" y="323" type="curve" smooth="yes"/>
			<point x="471" y="323"/>
			<point x="515" y="339"/>
			<point x="531" y="364" type="curve"/>
			<point x="531" y="477" type="line"/>
			<point x="501" y="438"/>
			<point x="462" y="427"/>
			<point x="420" y="429" type="curve" smooth="yes"/>
			<point x="365" y="431"/>
			<point x="253" y="485"/>
			<point x="172" y="485" type="curve" smooth="yes"/>
			<point x="130" y="485"/>
			<point x="85" y="470"/>
			<point x="69" y="445" type="curve"/>
			<point x="69" y="331" type="line"/>
			<point x="93" y="364"/>
			<point x="134" y="379"/>
		</contour>
		<contour>
			<point x="173" y="157" type="curve" smooth="yes"/>
			<point x="242" y="157"/>
			<point x="332" y="101"/>
			<point x="428" y="101" type="curve" smooth="yes"/>
			<point x="472" y="101"/>
			<point x="515" y="117"/>
			<point x="531" y="142" type="curve"/>
			<point x="531" y="255" type="line"/>
			<point x="502" y="219"/>
			<point x="464" y="205"/>
			<point x="420" y="207" type="curve" smooth="yes"/>
			<point x="370" y="209"/>
			<point x="251" y="263"/>
			<point x="169" y="263" type="curve" smooth="yes"/>
			<point x="127" y="263"/>
			<point x="85" y="247"/>
			<point x="69" y="223" type="curve"/>
			<point x="69" y="109" type="line"/>
			<point x="93" y="142"/>
			<point x="136" y="157"/>
		</contour>
	</outline>
</glyph>
<glyph name="notequal" format="2">
	<unicode hex="2260"/>
	<advance width="600"/>
	<outline>
		<contour>
			<point x="119" y="56" type="line"/>
			<point x="211" y="56" type="line"/>
			<point x="254" y="131" type="line"/>
			<point x="531" y="131" type="line"/>
			<point x="531" y="237" type="line"/>
			<point x="314" y="237" type="line"/>
			<point x="379" y="350" type="line"/>
			<point x="531" y="350" type="line"/>
			<point x="531" y="456" type="line"/>
			<point x="439" y="456" type="line"/>
			<point x="481" y="529" type="line"/>
			<point x="389" y="529" type="line"/>
			<point x="347" y="456" type="line"/>
			<point x="69" y="456" type="line"/>
			<point x="69" y="350" type="line"/>
			<point x="287" y="350" type="line"/>
			<point x="222" y="237" type="line"/>
			<point x="69" y="237" type="line"/>
			<point x="69" y="131" type="line"/>
			<point x="162" y="131" type="line"/>
		</contour>
	</outline>
</glyph>
<glyph name="lozenge" format="2">
	<unicode hex="25CA"/>
	<advance width="600"/>
	<outline>
		<contour>
			<point x="220" y="0" type="line"/>
			<point x="379" y="0" type="line"/>
			<point x="577" y="342" type="line"/>
			<point x="379" y="684" type="line"/>
			<point x="220" y="684" type="line"/>
			<point x="23" y="342" type="line"/>
		</contour>
		<contour>
			<point x="158" y="342" type="line"/>
			<point x="299" y="596" type="line"/>
			<point x="442" y="342" type="line"/>
			<point x="300" y="87" type="line"/>
		</contour>
	</outline>
</glyph>
<glyph name="anglebracketleft" format="2">
	<unicode hex="3008"/>
	<advance width="600"/>
	<outline>
		<contour>
			<point x="404" y="-163" type="line"/>
			<point x="538" y="-163" type="line"/>
			<point x="254" y="317" type="line"/>
			<point x="543" y="792" type="line"/>
			<point x="408" y="792" type="line"/>
			<point x="122" y="316" type="line"/>
		</contour>
	</outline>
</glyph>
<glyph name="anglebracketright" format="2">
	<unicode hex="3009"/>
	<advance width="600"/>
	<outline>
		<contour>
			<point x="57" y="-163" type="line"/>
			<point x="192" y="-163" type="line"/>
			<point x="478" y="314" type="line"/>
			<point x="196" y="792" type="line"/>
			<point x="62" y="792" type="line"/>
			<point x="346" y="315" type="line"/>
		</contour>
	</outline>
</glyph>
<glyph name="Lslashcomb" format="2">
	<advance width="600"/>
	<outline>
		<contour>
			<point x="23" y="399" type="line"/>
			<point x="23" y="309" type="line"/>
			<point x="401" y="456" type="line"/>
			<point x="401" y="546" type="line"/>
		</contour>
	</outline>
	<anchor name="_center" x="165" y="404"/>
</glyph>
<glyph name="acute.cap" format="2">
	<advance width="600"/>
	<outline>
		<contour>
			<point x="203" y="745" type="line"/>
			<point x="299" y="745" type="line"/>
			<point x="396" y="884" type="line"/>
			<point x="260" y="884" type="line"/>
		</contour>
	</outline>
	<anchor name="_top" x="251" y="684"/>
</glyph>
<glyph name="ampersand_ampersand.cLig" format="2">
	<advance width="600"/>
	<outline>
		<contour>
			<point x="-304" y="-14" type="curve" smooth="yes"/>
			<point x="-218" y="-14"/>
			<point x="-147" y="16"/>
			<point x="-88" y="79" type="curve"/>
			<point x="-54" y="21"/>
			<point x="12" y="-14"/>
			<point x="100" y="-14" type="curve" smooth="yes"/>
			<point x="187" y="-14"/>
			<point x="257" y="18"/>
			<point x="313" y="71" type="curve"/>
			<point x="380" y="0" type="line"/>
			<point x="524" y="0" type="line"/>
			<point x="378" y="155" type="line"/>
			<point x="418" y="223"/>
			<point x="444" y="307"/>
			<point x="458" y="398" type="curve"/>
			<point x="353" y="398" type="line"/>
			<point x="343" y="337"/>
			<point x="328" y="279"/>
			<point x="307" y="231" type="curve"/>
			<point x="158" y="389" type="line" smooth="yes"/>
			<point x="120" y="429"/>
			<point x="96" y="462"/>
			<point x="96" y="509" type="curve" smooth="yes"/>
			<point x="96" y="563"/>
			<point x="133" y="596"/>
			<point x="198" y="596" type="curve" smooth="yes"/>
			<point x="252" y="596"/>
			<point x="302" y="576"/>
			<point x="337" y="555" type="curve"/>
			<point x="337" y="663" type="line"/>
			<point x="305" y="681"/>
			<point x="250" y="698"/>
			<point x="189" y="698" type="curve" smooth="yes"/>
			<point x="49" y="698"/>
			<point x="-21" y="615"/>
			<point x="-21" y="512" type="curve" smooth="yes"/>
			<point x="-21" y="469"/>
			<point x="-10" y="434"/>
			<point x="8" y="403" type="curve"/>
			<point x="-48" y="369"/>
			<point x="-93" y="317"/>
			<point x="-109" y="247" type="curve"/>
			<point x="-245" y="389" type="line" smooth="yes"/>
			<point x="-283" y="429"/>
			<point x="-307" y="462"/>
			<point x="-307" y="509" type="curve" smooth="yes"/>
			<point x="-307" y="563"/>
			<point x="-270" y="596"/>
			<point x="-207" y="596" type="curve" smooth="yes"/>
			<point x="-155" y="596"/>
			<point x="-108" y="576"/>
			<point x="-75" y="557" type="curve"/>
			<point x="-75" y="665" type="line"/>
			<point x="-105" y="681"/>
			<point x="-156" y="698"/>
			<point x="-216" y="698" type="curve" smooth="yes"/>
			<point x="-354" y="698"/>
			<point x="-424" y="615"/>
			<point x="-424" y="512" type="curve" smooth="yes"/>
			<point x="-424" y="468"/>
			<point x="-413" y="433"/>
			<point x="-394" y="401" type="curve"/>
			<point x="-465" y="358"/>
			<point x="-516" y="286"/>
			<point x="-516" y="186" type="curve" smooth="yes"/>
			<point x="-516" y="61"/>
			<point x="-434" y="-14"/>
		</contour>
		<contour>
			<point x="-6" y="203" type="curve" smooth="yes"/>
			<point x="-6" y="261"/>
			<point x="24" y="304"/>
			<point x="66" y="329" type="curve"/>
			<point x="68" y="328"/>
			<point x="69" y="326"/>
			<point x="71" y="324" type="curve" smooth="yes"/>
			<point x="248" y="139" type="line"/>
			<point x="214" y="104"/>
			<point x="171" y="83"/>
			<point x="120" y="83" type="curve" smooth="yes"/>
			<point x="41" y="83"/>
			<point x="-6" y="134"/>
		</contour>
		<contour>
			<point x="-406" y="203" type="curve" smooth="yes"/>
			<point x="-406" y="260"/>
			<point x="-377" y="303"/>
			<point x="-335" y="328" type="curve"/>
			<point x="-334" y="327"/>
			<point x="-333" y="325"/>
			<point x="-332" y="324" type="curve" smooth="yes"/>
			<point x="-155" y="145" type="line"/>
			<point x="-189" y="106"/>
			<point x="-231" y="83"/>
			<point x="-284" y="83" type="curve" smooth="yes"/>
			<point x="-360" y="83"/>
			<point x="-406" y="129"/>
		</contour>
	</outline>
</glyph>
<glyph name="asciicircum_equal.cLig" format="2">
	<advance width="600"/>
	<outline>
		<contour>
			<point x="-457" y="348" type="line"/>
			<point x="-345" y="348" type="line"/>
			<point x="-222" y="600" type="line"/>
			<point x="-99" y="348" type="line"/>
			<point x="13" y="348" type="line"/>
			<point x="12" y="350" type="line"/>
			<point x="423" y="350" type="line"/>
			<point x="423" y="456" type="line"/>
			<point x="-39" y="456" type="line"/>
			<point x="-39" y="449" type="line"/>
			<point x="-166" y="696" type="line"/>
			<point x="-281" y="696" type="line"/>
		</contour>
		<contour>
			<point x="-39" y="131" type="line"/>
			<point x="423" y="131" type="line"/>
			<point x="423" y="237" type="line"/>
			<point x="-39" y="237" type="line"/>
		</contour>
	</outline>
</glyph>
<glyph name="asciitilde_asciitilde_asciitilde.rem" format="2">
	<advance width="600"/>
	<outline>
		<contour>
			<point x="-608" y="196" type="curve"/>
			<point x="-498" y="196"/>
			<point x="-483" y="320"/>
			<point x="-407" y="320" type="curve" smooth="yes"/>
			<point x="-333" y="320"/>
			<point x="-304" y="196"/>
			<point x="-194" y="196" type="curve" smooth="yes"/>
			<point x="-80" y="196"/>
			<point x="-66" y="320"/>
			<point x="10" y="320" type="curve"/>
			<point x="87" y="320"/>
			<point x="113" y="196"/>
			<point x="228" y="196" type="curve"/>
			<point x="327" y="196"/>
			<point x="395" y="278"/>
			<point x="411" y="428" type="curve"/>
			<point x="309" y="428" type="line"/>
			<point x="299" y="360"/>
			<point x="274" y="313"/>
			<point x="218" y="313" type="curve"/>
			<point x="143" y="313"/>
			<point x="131" y="434"/>
			<point x="11" y="434" type="curve"/>
			<point x="-106" y="434"/>
			<point x="-121" y="313"/>
			<point x="-193" y="313" type="curve" smooth="yes"/>
			<point x="-271" y="313"/>
			<point x="-284" y="434"/>
			<point x="-405" y="434" type="curve" smooth="yes"/>
			<point x="-523" y="434"/>
			<point x="-535" y="313"/>
			<point x="-607" y="313" type="curve"/>
			<point x="-686" y="313"/>
			<point x="-711" y="434"/>
			<point x="-822" y="434" type="curve" smooth="yes"/>
			<point x="-926" y="434"/>
			<point x="-995" y="354"/>
			<point x="-1011" y="203" type="curve"/>
			<point x="-907" y="203" type="line"/>
			<point x="-898" y="271"/>
			<point x="-877" y="319"/>
			<point x="-820" y="319" type="curve" smooth="yes"/>
			<point x="-743" y="319"/>
			<point x="-726" y="196"/>
		</contour>
	</outline>
</glyph>
<glyph name="asciitilde_asciitilde_greater.cLig" format="2">
	<advance width="600"/>
	<outline>
		<contour>
			<point x="86" y="628" type="line"/>
			<point x="322" y="370" type="line"/>
			<point x="-6" y="370" type="line"/>
			<point x="-36" y="415"/>
			<point x="-77" y="436"/>
			<point x="-120" y="436" type="curve" smooth="yes"/>
			<point x="-236" y="436"/>
			<point x="-243" y="306"/>
			<point x="-322" y="306" type="curve" smooth="yes"/>
			<point x="-397" y="306"/>
			<point x="-412" y="433"/>
			<point x="-522" y="433" type="curve" smooth="yes"/>
			<point x="-635" y="433"/>
			<point x="-648" y="305"/>
			<point x="-721" y="305" type="curve"/>
			<point x="-796" y="305"/>
			<point x="-811" y="434"/>
			<point x="-930" y="434" type="curve" smooth="yes"/>
			<point x="-1025" y="434"/>
			<point x="-1096" y="356"/>
			<point x="-1115" y="209" type="curve"/>
			<point x="-1014" y="209" type="line"/>
			<point x="-1004" y="277"/>
			<point x="-973" y="318"/>
			<point x="-925" y="318" type="curve" smooth="yes"/>
			<point x="-850" y="318"/>
			<point x="-835" y="192"/>
			<point x="-721" y="192" type="curve"/>
			<point x="-607" y="192"/>
			<point x="-602" y="318"/>
			<point x="-524" y="318" type="curve" smooth="yes"/>
			<point x="-448" y="318"/>
			<point x="-440" y="192"/>
			<point x="-324" y="192" type="curve" smooth="yes"/>
			<point x="-209" y="192"/>
			<point x="-206" y="322"/>
			<point x="-129" y="322" type="curve" smooth="yes"/>
			<point x="-92" y="322"/>
			<point x="-70" y="299"/>
			<point x="-51" y="257" type="curve"/>
			<point x="323" y="257" type="line"/>
			<point x="90" y="-1" type="line"/>
			<point x="235" y="-1" type="line"/>
			<point x="509" y="313" type="line"/>
			<point x="232" y="628" type="line"/>
		</contour>
	</outline>
</glyph>
<glyph name="asciitilde_at.cLig" format="2">
	<advance width="600"/>
	<outline>
		<contour>
			<point x="376" y="-17" type="curve"/>
			<point x="488" y="-17"/>
			<point x="547" y="81"/>
			<point x="547" y="288" type="curve" smooth="yes"/>
			<point x="547" y="302" type="line" smooth="yes"/>
			<point x="547" y="557"/>
			<point x="447" y="698"/>
			<point x="204" y="698" type="curve" smooth="yes"/>
			<point x="-36" y="698"/>
			<point x="-132" y="584"/>
			<point x="-175" y="381" type="curve" smooth="yes"/>
			<point x="-187" y="326"/>
			<point x="-199" y="299"/>
			<point x="-234" y="299" type="curve" smooth="yes"/>
			<point x="-288" y="299"/>
			<point x="-313" y="416"/>
			<point x="-421" y="416" type="curve" smooth="yes"/>
			<point x="-516" y="416"/>
			<point x="-557" y="345"/>
			<point x="-557" y="195" type="curve"/>
			<point x="-459" y="195" type="line"/>
			<point x="-459" y="267"/>
			<point x="-448" y="305"/>
			<point x="-410" y="305" type="curve" smooth="yes"/>
			<point x="-356" y="305"/>
			<point x="-324" y="186"/>
			<point x="-222" y="186" type="curve" smooth="yes"/>
			<point x="-138" y="186"/>
			<point x="-96" y="235"/>
			<point x="-76" y="346" type="curve" smooth="yes"/>
			<point x="-45" y="519"/>
			<point x="32" y="601"/>
			<point x="200" y="601" type="curve" smooth="yes"/>
			<point x="380" y="601"/>
			<point x="441" y="494"/>
			<point x="441" y="315" type="curve" smooth="yes"/>
			<point x="441" y="283" type="line" smooth="yes"/>
			<point x="441" y="117"/>
			<point x="417" y="72"/>
			<point x="383" y="72" type="curve" smooth="yes"/>
			<point x="355" y="72"/>
			<point x="346" y="94"/>
			<point x="346" y="149" type="curve"/>
			<point x="346" y="481" type="line"/>
			<point x="246" y="481" type="line"/>
			<point x="246" y="398" type="line"/>
			<point x="227" y="454"/>
			<point x="193" y="492"/>
			<point x="131" y="492" type="curve" smooth="yes"/>
			<point x="45" y="491"/>
			<point x="-14" y="414"/>
			<point x="-14" y="269" type="curve" smooth="yes"/>
			<point x="-14" y="141"/>
			<point x="37" y="62"/>
			<point x="130" y="62" type="curve" smooth="yes"/>
			<point x="199" y="62"/>
			<point x="233" y="106"/>
			<point x="248" y="168" type="curve"/>
			<point x="248" y="128" type="line" smooth="yes"/>
			<point x="248" y="24"/>
			<point x="298" y="-17"/>
		</contour>
		<contour>
			<point x="165" y="149" type="curve" smooth="yes"/>
			<point x="119" y="149"/>
			<point x="95" y="191"/>
			<point x="95" y="277" type="curve" smooth="yes"/>
			<point x="95" y="363"/>
			<point x="120" y="403"/>
			<point x="167" y="403" type="curve" smooth="yes"/>
			<point x="213" y="403"/>
			<point x="243" y="358"/>
			<point x="243" y="274" type="curve" smooth="yes"/>
			<point x="243" y="186"/>
			<point x="214" y="149"/>
		</contour>
	</outline>
</glyph>
<glyph name="asciitilde_equal.cLig.x" format="2">
	<advance width="600"/>
	<outline>
		<contour>
			<point x="-320" y="315" type="line"/>
			<point x="-278" y="375"/>
			<point x="-219" y="401"/>
			<point x="-157" y="401" type="curve" smooth="yes"/>
			<point x="-53" y="401"/>
			<point x="22" y="307"/>
			<point x="158" y="307" type="curve" smooth="yes"/>
			<point x="229" y="307"/>
			<point x="289" y="336"/>
			<point x="320" y="383" type="curve"/>
			<point x="320" y="502" type="line"/>
			<point x="268" y="432"/>
			<point x="218" y="414"/>
			<point x="151" y="415" type="curve" smooth="yes"/>
			<point x="52" y="418"/>
			<point x="-32" y="509"/>
			<point x="-158" y="509" type="curve" smooth="yes"/>
			<point x="-225" y="509"/>
			<point x="-289" y="481"/>
			<point x="-320" y="435" type="curve"/>
		</contour>
		<contour>
			<point x="-320" y="129" type="line"/>
			<point x="320" y="129" type="line"/>
			<point x="320" y="236" type="line"/>
			<point x="-320" y="236" type="line"/>
		</contour>
	</outline>
</glyph>
<glyph name="asciitilde_greater.cLig" format="2">
	<advance width="600"/>
	<outline>
		<contour>
			<point x="86" y="629" type="line"/>
			<point x="322" y="371" type="line"/>
			<point x="-104" y="371" type="line"/>
			<point x="-110" y="328"/>
			<point x="-130" y="302"/>
			<point x="-162" y="302" type="curve" smooth="yes"/>
			<point x="-227" y="302"/>
			<point x="-254" y="427"/>
			<point x="-367" y="427" type="curve" smooth="yes"/>
			<point x="-452" y="427"/>
			<point x="-505" y="370"/>
			<point x="-505" y="206" type="curve"/>
			<point x="-407" y="206" type="line"/>
			<point x="-407" y="280"/>
			<point x="-392" y="312"/>
			<point x="-353" y="312" type="curve"/>
			<point x="-289" y="312"/>
			<point x="-254" y="189"/>
			<point x="-150" y="189" type="curve" smooth="yes"/>
			<point x="-98" y="189"/>
			<point x="-61" y="212"/>
			<point x="-39" y="258" type="curve"/>
			<point x="323" y="258" type="line"/>
			<point x="89" y="0" type="line"/>
			<point x="235" y="0" type="line"/>
			<point x="508" y="314" type="line"/>
			<point x="232" y="629" type="line"/>
		</contour>
	</outline>
</glyph>
<glyph name="aster_comp" format="2">
	<advance width="600"/>
	<outline>
		<contour>
			<point x="243" y="528" type="curve" smooth="yes"/>
			<point x="208" y="312" type="line"/>
			<point x="326" y="312" type="line"/>
			<point x="290" y="528" type="line" smooth="yes"/>
			<point x="288" y="540"/>
			<point x="283" y="547"/>
			<point x="276" y="550" type="curve"/>
			<point x="283" y="553"/>
			<point x="288" y="560"/>
			<point x="290" y="572" type="curve" smooth="yes"/>
			<point x="326" y="787" type="line"/>
			<point x="208" y="787" type="line"/>
			<point x="243" y="572" type="line" smooth="yes"/>
			<point x="245" y="560"/>
			<point x="251" y="553"/>
			<point x="258" y="550" type="curve"/>
			<point x="251" y="547"/>
			<point x="245" y="540"/>
		</contour>
	</outline>
</glyph>
<glyph name="asterisk_asterisk.cLig" format="2">
	<advance width="600"/>
	<outline>
		<contour>
			<point x="-99" y="147" type="line"/>
			<point x="-39" y="252" type="line"/>
			<point x="-221" y="321" type="line"/>
			<point x="-37" y="389" type="line"/>
			<point x="-97" y="494" type="line"/>
			<point x="-250" y="370" type="line"/>
			<point x="-217" y="564" type="line"/>
			<point x="-338" y="564" type="line"/>
			<point x="-307" y="370" type="line"/>
			<point x="-461" y="496" type="line"/>
			<point x="-521" y="391" type="line"/>
			<point x="-335" y="321" type="line"/>
			<point x="-520" y="251" type="line"/>
			<point x="-460" y="146" type="line"/>
			<point x="-307" y="272" type="line"/>
			<point x="-338" y="76" type="line"/>
			<point x="-217" y="76" type="line"/>
			<point x="-250" y="271" type="line"/>
		</contour>
		<contour>
			<point x="460" y="146" type="line"/>
			<point x="520" y="251" type="line"/>
			<point x="338" y="320" type="line"/>
			<point x="522" y="388" type="line"/>
			<point x="462" y="493" type="line"/>
			<point x="309" y="369" type="line"/>
			<point x="342" y="563" type="line"/>
			<point x="221" y="563" type="line"/>
			<point x="252" y="369" type="line"/>
			<point x="98" y="495" type="line"/>
			<point x="38" y="390" type="line"/>
			<point x="224" y="320" type="line"/>
			<point x="39" y="250" type="line"/>
			<point x="99" y="145" type="line"/>
			<point x="252" y="271" type="line"/>
			<point x="221" y="75" type="line"/>
			<point x="342" y="75" type="line"/>
			<point x="309" y="270" type="line"/>
		</contour>
	</outline>
</glyph>
<glyph name="asterisk_asterisk_asterisk.cLig" format="2">
	<advance width="600"/>
	<outline>
		<contour>
			<point x="-120" y="266" type="line"/>
			<point x="-60" y="371" type="line"/>
			<point x="-242" y="440" type="line"/>
			<point x="-58" y="508" type="line"/>
			<point x="-118" y="613" type="line"/>
			<point x="-271" y="489" type="line"/>
			<point x="-238" y="683" type="line"/>
			<point x="-359" y="683" type="line"/>
			<point x="-328" y="489" type="line"/>
			<point x="-482" y="615" type="line"/>
			<point x="-542" y="510" type="line"/>
			<point x="-356" y="440" type="line"/>
			<point x="-541" y="370" type="line"/>
			<point x="-481" y="265" type="line"/>
			<point x="-328" y="391" type="line"/>
			<point x="-359" y="195" type="line"/>
			<point x="-238" y="195" type="line"/>
			<point x="-271" y="390" type="line"/>
		</contour>
		<contour>
			<point x="-674" y="71" type="line"/>
			<point x="-614" y="176" type="line"/>
			<point x="-796" y="245" type="line"/>
			<point x="-612" y="313" type="line"/>
			<point x="-672" y="418" type="line"/>
			<point x="-825" y="294" type="line"/>
			<point x="-792" y="488" type="line"/>
			<point x="-913" y="488" type="line"/>
			<point x="-882" y="294" type="line"/>
			<point x="-1036" y="420" type="line"/>
			<point x="-1096" y="315" type="line"/>
			<point x="-910" y="245" type="line"/>
			<point x="-1095" y="175" type="line"/>
			<point x="-1035" y="70" type="line"/>
			<point x="-882" y="196" type="line"/>
			<point x="-913" y="0" type="line"/>
			<point x="-792" y="0" type="line"/>
			<point x="-825" y="195" type="line"/>
		</contour>
		<contour>
			<point x="435" y="70" type="line"/>
			<point x="495" y="175" type="line"/>
			<point x="313" y="244" type="line"/>
			<point x="497" y="312" type="line"/>
			<point x="437" y="417" type="line"/>
			<point x="284" y="293" type="line"/>
			<point x="317" y="487" type="line"/>
			<point x="196" y="487" type="line"/>
			<point x="227" y="293" type="line"/>
			<point x="73" y="419" type="line"/>
			<point x="13" y="314" type="line"/>
			<point x="199" y="244" type="line"/>
			<point x="14" y="174" type="line"/>
			<point x="74" y="69" type="line"/>
			<point x="227" y="195" type="line"/>
			<point x="196" y="-1" type="line"/>
			<point x="317" y="-1" type="line"/>
			<point x="284" y="194" type="line"/>
		</contour>
	</outline>
</glyph>
<glyph name="asterisk_large.rem" format="2">
	<advance width="600"/>
	<outline>
		<contour>
			<point x="480" y="147" type="line"/>
			<point x="540" y="252" type="line"/>
			<point x="358" y="321" type="line"/>
			<point x="542" y="389" type="line"/>
			<point x="482" y="494" type="line"/>
			<point x="329" y="370" type="line"/>
			<point x="362" y="564" type="line"/>
			<point x="241" y="564" type="line"/>
			<point x="272" y="370" type="line"/>
			<point x="118" y="496" type="line"/>
			<point x="58" y="391" type="line"/>
			<point x="244" y="321" type="line"/>
			<point x="59" y="251" type="line"/>
			<point x="119" y="146" type="line"/>
			<point x="272" y="272" type="line"/>
			<point x="241" y="76" type="line"/>
			<point x="362" y="76" type="line"/>
			<point x="329" y="271" type="line"/>
		</contour>
	</outline>
</glyph>
<glyph name="backslash_backslash_backslash.rem" format="2">
	<advance width="600"/>
	<outline>
		<contour>
			<point x="-683" y="-163" type="line"/>
			<point x="-559" y="-163" type="line"/>
			<point x="-917" y="792" type="line"/>
			<point x="-1041" y="792" type="line"/>
		</contour>
		<contour>
			<point x="-183" y="-163" type="line"/>
			<point x="-59" y="-163" type="line"/>
			<point x="-417" y="792" type="line"/>
			<point x="-541" y="792" type="line"/>
		</contour>
		<contour>
			<point x="317" y="-163" type="line"/>
			<point x="441" y="-163" type="line"/>
			<point x="83" y="792" type="line"/>
			<point x="-41" y="792" type="line"/>
		</contour>
	</outline>
</glyph>
<glyph name="bar_bar_bar_greater.cLig" format="2">
	<advance width="600"/>
	<outline>
		<contour>
			<point x="-890" y="-79" type="line"/>
			<point x="-773" y="-79" type="line"/>
			<point x="-773" y="708" type="line"/>
			<point x="-890" y="708" type="line"/>
		</contour>
		<contour>
			<point x="-1460" y="-79" type="line"/>
			<point x="-1343" y="-79" type="line"/>
			<point x="-1343" y="708" type="line"/>
			<point x="-1460" y="708" type="line"/>
		</contour>
		<contour>
			<point x="-321" y="-79" type="line"/>
			<point x="-202" y="-79" type="line"/>
			<point x="328" y="246" type="line"/>
			<point x="327" y="384" type="line"/>
			<point x="-203" y="708" type="line"/>
			<point x="-321" y="708" type="line"/>
		</contour>
		<contour>
			<point x="-206" y="574" type="line"/>
			<point x="226" y="316" type="line"/>
			<point x="-206" y="53" type="line"/>
		</contour>
	</outline>
</glyph>
<glyph name="bar_bar_equal.rem" format="2">
	<advance width="600"/>
	<outline>
		<contour>
			<point x="-971" y="684" type="line"/>
			<point x="-971" y="-55" type="line"/>
			<point x="-853" y="-55" type="line"/>
			<point x="-853" y="684" type="line"/>
		</contour>
		<contour>
			<point x="-589" y="684" type="line"/>
			<point x="-589" y="-55" type="line"/>
			<point x="-471" y="-55" type="line"/>
			<point x="-471" y="151" type="line"/>
			<point x="435" y="151" type="line"/>
			<point x="435" y="258" type="line"/>
			<point x="-471" y="258" type="line"/>
			<point x="-471" y="371" type="line"/>
			<point x="435" y="371" type="line"/>
			<point x="435" y="478" type="line"/>
			<point x="-471" y="478" type="line"/>
			<point x="-471" y="684" type="line"/>
		</contour>
	</outline>
</glyph>
<glyph name="bar_bar_hyphen.init" format="2">
	<advance width="600"/>
	<outline>
		<contour>
			<point x="11" y="-55" type="line"/>
			<point x="129" y="-55" type="line"/>
			<point x="129" y="257" type="line"/>
			<point x="600" y="257" type="line"/>
			<point x="600" y="370" type="line"/>
			<point x="129" y="370" type="line"/>
			<point x="129" y="684" type="line"/>
			<point x="11" y="684" type="line"/>
		</contour>
		<contour>
			<point x="-369" y="-55" type="line"/>
			<point x="-251" y="-55" type="line"/>
			<point x="-251" y="684" type="line"/>
			<point x="-369" y="684" type="line"/>
		</contour>
	</outline>
</glyph>
<glyph name="bar_equal.fina" format="2">
	<advance width="600"/>
	<outline>
		<contour>
			<point x="0" y="151" type="line"/>
			<point x="351" y="151" type="line"/>
			<point x="351" y="-55" type="line"/>
			<point x="469" y="-55" type="line"/>
			<point x="469" y="684" type="line"/>
			<point x="351" y="684" type="line"/>
			<point x="351" y="478" type="line"/>
			<point x="0" y="478" type="line"/>
			<point x="0" y="371" type="line"/>
			<point x="351" y="371" type="line"/>
			<point x="351" y="258" type="line"/>
			<point x="0" y="258" type="line"/>
		</contour>
	</outline>
</glyph>
<glyph name="braceleft_hyphen.rem" format="2">
	<advance width="600"/>
	<outline>
		<contour>
			<point x="-2" y="792" type="line"/>
			<point x="-172" y="792" type="line" smooth="yes"/>
			<point x="-284" y="792"/>
			<point x="-341" y="734"/>
			<point x="-341" y="657" type="curve" smooth="yes"/>
			<point x="-341" y="566"/>
			<point x="-246" y="503"/>
			<point x="-246" y="439" type="curve" smooth="yes"/>
			<point x="-246" y="404"/>
			<point x="-266" y="369"/>
			<point x="-331" y="369" type="curve" smooth="yes"/>
			<point x="-408" y="369" type="line"/>
			<point x="-408" y="262" type="line"/>
			<point x="-331" y="262" type="line" smooth="yes"/>
			<point x="-266" y="262"/>
			<point x="-246" y="229"/>
			<point x="-246" y="198" type="curve" smooth="yes"/>
			<point x="-246" y="131"/>
			<point x="-341" y="67"/>
			<point x="-341" y="-28" type="curve" smooth="yes"/>
			<point x="-341" y="-104"/>
			<point x="-281" y="-163"/>
			<point x="-172" y="-163" type="curve" smooth="yes"/>
			<point x="-2" y="-163" type="line"/>
			<point x="-2" y="-71" type="line"/>
			<point x="-132" y="-71" type="line" smooth="yes"/>
			<point x="-182" y="-71"/>
			<point x="-213" y="-52"/>
			<point x="-213" y="-10" type="curve" smooth="yes"/>
			<point x="-213" y="52"/>
			<point x="-121" y="106"/>
			<point x="-121" y="179" type="curve" smooth="yes"/>
			<point x="-121" y="223"/>
			<point x="-154" y="249"/>
			<point x="-203" y="262" type="curve"/>
			<point x="435" y="262" type="line"/>
			<point x="435" y="367" type="line"/>
			<point x="-201" y="367" type="line"/>
			<point x="-153" y="383"/>
			<point x="-121" y="410"/>
			<point x="-121" y="454" type="curve" smooth="yes"/>
			<point x="-121" y="529"/>
			<point x="-213" y="577"/>
			<point x="-213" y="638" type="curve" smooth="yes"/>
			<point x="-213" y="679"/>
			<point x="-183" y="700"/>
			<point x="-127" y="700" type="curve" smooth="yes"/>
			<point x="-2" y="700" type="line"/>
		</contour>
	</outline>
</glyph>
<glyph name="braceright_braceright.cLig" format="2">
	<advance width="600"/>
	<outline>
		<contour>
			<point x="21" y="791" type="line"/>
			<point x="21" y="699" type="line"/>
			<point x="161" y="699" type="line" smooth="yes"/>
			<point x="218" y="699"/>
			<point x="248" y="673"/>
			<point x="248" y="630" type="curve"/>
			<point x="248" y="555"/>
			<point x="157" y="509"/>
			<point x="157" y="419" type="curve" smooth="yes"/>
			<point x="157" y="364"/>
			<point x="208" y="324"/>
			<point x="281" y="313" type="curve"/>
			<point x="205" y="301"/>
			<point x="156" y="259"/>
			<point x="156" y="204" type="curve" smooth="yes"/>
			<point x="156" y="116"/>
			<point x="248" y="66"/>
			<point x="248" y="0" type="curve" smooth="yes"/>
			<point x="248" y="-46"/>
			<point x="216" y="-71"/>
			<point x="157" y="-71" type="curve" smooth="yes"/>
			<point x="-167" y="-71" type="line"/>
			<point x="-110" y="-55"/>
			<point x="-89" y="-15"/>
			<point x="-89" y="21" type="curve" smooth="yes"/>
			<point x="-89" y="100"/>
			<point x="-175" y="144"/>
			<point x="-175" y="203" type="curve" smooth="yes"/>
			<point x="-175" y="231"/>
			<point x="-156" y="261"/>
			<point x="-96" y="261" type="curve" smooth="yes"/>
			<point x="-17" y="261" type="line"/>
			<point x="-17" y="367" type="line"/>
			<point x="-96" y="367" type="line" smooth="yes"/>
			<point x="-164" y="367"/>
			<point x="-182" y="402"/>
			<point x="-182" y="430" type="curve" smooth="yes"/>
			<point x="-182" y="504"/>
			<point x="-90" y="555"/>
			<point x="-90" y="647" type="curve"/>
			<point x="-90" y="728"/>
			<point x="-143" y="791"/>
			<point x="-262" y="791" type="curve" smooth="yes"/>
			<point x="-451" y="791" type="line"/>
			<point x="-451" y="699" type="line"/>
			<point x="-304" y="699" type="line" smooth="yes"/>
			<point x="-248" y="699"/>
			<point x="-218" y="676"/>
			<point x="-218" y="631" type="curve"/>
			<point x="-218" y="563"/>
			<point x="-307" y="512"/>
			<point x="-307" y="424" type="curve" smooth="yes"/>
			<point x="-307" y="366"/>
			<point x="-257" y="325"/>
			<point x="-187" y="313" type="curve"/>
			<point x="-255" y="299"/>
			<point x="-309" y="261"/>
			<point x="-309" y="203" type="curve" smooth="yes"/>
			<point x="-309" y="117"/>
			<point x="-218" y="66"/>
			<point x="-218" y="0" type="curve" smooth="yes"/>
			<point x="-218" y="-46"/>
			<point x="-251" y="-71"/>
			<point x="-311" y="-71" type="curve" smooth="yes"/>
			<point x="-467" y="-71" type="line"/>
			<point x="-467" y="-163" type="line"/>
			<point x="204" y="-163" type="line" smooth="yes"/>
			<point x="315" y="-163"/>
			<point x="376" y="-94"/>
			<point x="376" y="-18" type="curve" smooth="yes"/>
			<point x="376" y="77"/>
			<point x="284" y="131"/>
			<point x="284" y="198" type="curve" smooth="yes"/>
			<point x="284" y="227"/>
			<point x="305" y="262"/>
			<point x="365" y="262" type="curve" smooth="yes"/>
			<point x="446" y="262" type="line"/>
			<point x="446" y="367" type="line"/>
			<point x="365" y="367" type="line" smooth="yes"/>
			<point x="305" y="367"/>
			<point x="284" y="401"/>
			<point x="284" y="430" type="curve" smooth="yes"/>
			<point x="284" y="500"/>
			<point x="376" y="549"/>
			<point x="376" y="647" type="curve"/>
			<point x="376" y="728"/>
			<point x="318" y="791"/>
			<point x="204" y="791" type="curve" smooth="yes"/>
		</contour>
	</outline>
</glyph>
<glyph name="bracketleft_bracketleft.cLig" format="2">
	<advance width="600"/>
	<outline>
		<contour>
			<point x="-388" y="-163" type="line"/>
			<point x="10" y="-163" type="line"/>
			<point x="10" y="-71" type="line"/>
			<point x="-270" y="-71" type="line"/>
			<point x="-270" y="700" type="line"/>
			<point x="10" y="700" type="line"/>
			<point x="10" y="792" type="line"/>
			<point x="-388" y="792" type="line"/>
		</contour>
		<contour>
			<point x="92" y="-163" type="line"/>
			<point x="433" y="-163" type="line"/>
			<point x="433" y="-71" type="line"/>
			<point x="210" y="-71" type="line"/>
			<point x="210" y="700" type="line"/>
			<point x="433" y="700" type="line"/>
			<point x="433" y="792" type="line"/>
			<point x="92" y="792" type="line"/>
		</contour>
	</outline>
</glyph>
<glyph name="bracketleft_bracketleft_numbersign.cLig" format="2">
	<advance width="600"/>
	<outline>
		<contour>
			<point x="-131" y="256" type="line"/>
			<point x="-131" y="161" type="line"/>
			<point x="-12" y="161" type="line"/>
			<point x="-27" y="0" type="line"/>
			<point x="71" y="0" type="line"/>
			<point x="87" y="161" type="line"/>
			<point x="208" y="161" type="line"/>
			<point x="193" y="0" type="line"/>
			<point x="290" y="0" type="line"/>
			<point x="306" y="161" type="line"/>
			<point x="413" y="161" type="line"/>
			<point x="413" y="256" type="line"/>
			<point x="315" y="256" type="line"/>
			<point x="332" y="437" type="line"/>
			<point x="437" y="437" type="line"/>
			<point x="437" y="533" type="line"/>
			<point x="341" y="533" type="line"/>
			<point x="356" y="684" type="line"/>
			<point x="258" y="684" type="line"/>
			<point x="244" y="533" type="line"/>
			<point x="121" y="533" type="line"/>
			<point x="135" y="684" type="line"/>
			<point x="38" y="684" type="line"/>
			<point x="24" y="533" type="line"/>
			<point x="-131" y="533" type="line"/>
			<point x="-131" y="437" type="line"/>
			<point x="14" y="437" type="line"/>
			<point x="-3" y="256" type="line"/>
		</contour>
		<contour>
			<point x="95" y="256" type="line"/>
			<point x="112" y="437" type="line"/>
			<point x="234" y="437" type="line"/>
			<point x="217" y="256" type="line"/>
		</contour>
		<contour>
			<point x="-1001" y="-163" type="line"/>
			<point x="-603" y="-163" type="line"/>
			<point x="-603" y="-71" type="line"/>
			<point x="-883" y="-71" type="line"/>
			<point x="-883" y="700" type="line"/>
			<point x="-603" y="700" type="line"/>
			<point x="-603" y="792" type="line"/>
			<point x="-1001" y="792" type="line"/>
		</contour>
		<contour>
			<point x="-521" y="-163" type="line"/>
			<point x="-180" y="-163" type="line"/>
			<point x="-180" y="-71" type="line"/>
			<point x="-403" y="-71" type="line"/>
			<point x="-403" y="700" type="line"/>
			<point x="-180" y="700" type="line"/>
			<point x="-180" y="792" type="line"/>
			<point x="-521" y="792" type="line"/>
		</contour>
	</outline>
</glyph>
<glyph name="bracketleft_numbersign.cLig" format="2">
	<advance width="600"/>
	<outline>
		<contour>
			<point x="-97" y="256" type="line"/>
			<point x="-97" y="161" type="line"/>
			<point x="22" y="161" type="line"/>
			<point x="7" y="0" type="line"/>
			<point x="105" y="0" type="line"/>
			<point x="121" y="161" type="line"/>
			<point x="242" y="161" type="line"/>
			<point x="227" y="0" type="line"/>
			<point x="324" y="0" type="line"/>
			<point x="340" y="161" type="line"/>
			<point x="447" y="161" type="line"/>
			<point x="447" y="256" type="line"/>
			<point x="349" y="256" type="line"/>
			<point x="366" y="437" type="line"/>
			<point x="471" y="437" type="line"/>
			<point x="471" y="533" type="line"/>
			<point x="375" y="533" type="line"/>
			<point x="390" y="684" type="line"/>
			<point x="292" y="684" type="line"/>
			<point x="278" y="533" type="line"/>
			<point x="155" y="533" type="line"/>
			<point x="169" y="684" type="line"/>
			<point x="72" y="684" type="line"/>
			<point x="58" y="533" type="line"/>
			<point x="-97" y="533" type="line"/>
			<point x="-97" y="437" type="line"/>
			<point x="48" y="437" type="line"/>
			<point x="31" y="256" type="line"/>
		</contour>
		<contour>
			<point x="129" y="256" type="line"/>
			<point x="146" y="437" type="line"/>
			<point x="268" y="437" type="line"/>
			<point x="251" y="256" type="line"/>
		</contour>
		<contour>
			<point x="-105" y="-72" type="line"/>
			<point x="-305" y="-72" type="line"/>
			<point x="-305" y="701" type="line"/>
			<point x="-105" y="701" type="line"/>
			<point x="-105" y="792" type="line"/>
			<point x="-422" y="792" type="line"/>
			<point x="-422" y="-163" type="line"/>
			<point x="-105" y="-163" type="line"/>
		</contour>
	</outline>
</glyph>
<glyph name="bracketright_bracketright.cLig" format="2">
	<advance width="600"/>
	<outline>
		<contour>
			<point x="433" y="792" type="line"/>
			<point x="35" y="792" type="line"/>
			<point x="35" y="700" type="line"/>
			<point x="315" y="700" type="line"/>
			<point x="315" y="-71" type="line"/>
			<point x="35" y="-71" type="line"/>
			<point x="35" y="-163" type="line"/>
			<point x="433" y="-163" type="line"/>
		</contour>
		<contour>
			<point x="-47" y="792" type="line"/>
			<point x="-388" y="792" type="line"/>
			<point x="-388" y="700" type="line"/>
			<point x="-165" y="700" type="line"/>
			<point x="-165" y="-71" type="line"/>
			<point x="-388" y="-71" type="line"/>
			<point x="-388" y="-163" type="line"/>
			<point x="-47" y="-163" type="line"/>
		</contour>
	</outline>
</glyph>
<glyph name="bracketright_numbersign.cLig" format="2">
	<advance width="600"/>
	<outline>
		<contour>
			<point x="-485" y="-163" type="line"/>
			<point x="-168" y="-163" type="line"/>
			<point x="-168" y="161" type="line"/>
			<point x="36" y="161" type="line"/>
			<point x="21" y="0" type="line"/>
			<point x="120" y="0" type="line"/>
			<point x="135" y="161" type="line"/>
			<point x="257" y="161" type="line"/>
			<point x="242" y="0" type="line"/>
			<point x="339" y="0" type="line"/>
			<point x="354" y="161" type="line"/>
			<point x="462" y="161" type="line"/>
			<point x="462" y="256" type="line"/>
			<point x="363" y="256" type="line"/>
			<point x="380" y="437" type="line"/>
			<point x="485" y="437" type="line"/>
			<point x="485" y="533" type="line"/>
			<point x="390" y="533" type="line"/>
			<point x="404" y="684" type="line"/>
			<point x="306" y="684" type="line"/>
			<point x="292" y="533" type="line"/>
			<point x="170" y="533" type="line"/>
			<point x="184" y="684" type="line"/>
			<point x="86" y="684" type="line"/>
			<point x="72" y="533" type="line"/>
			<point x="-168" y="533" type="line"/>
			<point x="-168" y="792" type="line"/>
			<point x="-485" y="792" type="line"/>
			<point x="-485" y="701" type="line"/>
			<point x="-285" y="701" type="line"/>
			<point x="-285" y="-72" type="line"/>
			<point x="-485" y="-72" type="line"/>
		</contour>
		<contour>
			<point x="-168" y="256" type="line"/>
			<point x="-168" y="437" type="line"/>
			<point x="63" y="437" type="line"/>
			<point x="45" y="256" type="line"/>
		</contour>
		<contour>
			<point x="144" y="256" type="line"/>
			<point x="161" y="437" type="line"/>
			<point x="283" y="437" type="line"/>
			<point x="266" y="256" type="line"/>
		</contour>
	</outline>
</glyph>
<glyph name="breve.cap" format="2">
	<advance width="600"/>
	<outline>
		<contour>
			<point x="300" y="738" type="curve" smooth="yes"/>
			<point x="401" y="738"/>
			<point x="458" y="780"/>
			<point x="458" y="884" type="curve"/>
			<point x="370" y="884" type="line"/>
			<point x="370" y="828"/>
			<point x="350" y="802"/>
			<point x="300" y="802" type="curve" smooth="yes"/>
			<point x="247" y="802"/>
			<point x="230" y="828"/>
			<point x="230" y="884" type="curve"/>
			<point x="142" y="884" type="line"/>
			<point x="142" y="780"/>
			<point x="194" y="738"/>
		</contour>
	</outline>
	<anchor name="_top" x="300" y="684"/>
</glyph>
<glyph name="caron.cap" format="2">
	<advance width="600"/>
	<outline>
		<contour>
			<point x="484" y="884" type="line"/>
			<point x="374" y="884" type="line"/>
			<point x="300" y="796" type="line"/>
			<point x="226" y="884" type="line"/>
			<point x="115" y="884" type="line"/>
			<point x="235" y="745" type="line"/>
			<point x="364" y="745" type="line"/>
		</contour>
	</outline>
	<anchor name="_top" x="301" y="684"/>
</glyph>
<glyph name="caronSlovak" format="2">
	<advance width="600"/>
	<outline>
		<contour>
			<point x="241" y="570" type="line"/>
			<point x="310" y="570" type="line"/>
			<point x="379" y="750" type="line"/>
			<point x="258" y="750" type="line"/>
		</contour>
	</outline>
	<anchor name="_caron" x="258" y="750"/>
</glyph>
<glyph name="colon_colon_colon.cLig" format="2">
	<advance width="600"/>
	<outline>
		<contour>
			<point x="-752" y="-12" type="curve" smooth="yes"/>
			<point x="-691" y="-12"/>
			<point x="-659" y="11"/>
			<point x="-659" y="73" type="curve" smooth="yes"/>
			<point x="-659" y="133"/>
			<point x="-691" y="155"/>
			<point x="-752" y="155" type="curve" smooth="yes"/>
			<point x="-813" y="155"/>
			<point x="-845" y="133"/>
			<point x="-845" y="73" type="curve" smooth="yes"/>
			<point x="-845" y="11"/>
			<point x="-813" y="-12"/>
		</contour>
		<contour>
			<point x="-752" y="359" type="curve" smooth="yes"/>
			<point x="-691" y="359"/>
			<point x="-659" y="382"/>
			<point x="-659" y="444" type="curve" smooth="yes"/>
			<point x="-659" y="504"/>
			<point x="-691" y="526"/>
			<point x="-752" y="526" type="curve" smooth="yes"/>
			<point x="-813" y="526"/>
			<point x="-845" y="504"/>
			<point x="-845" y="444" type="curve" smooth="yes"/>
			<point x="-845" y="382"/>
			<point x="-813" y="359"/>
		</contour>
		<contour>
			<point x="-300" y="-12" type="curve" smooth="yes"/>
			<point x="-239" y="-12"/>
			<point x="-207" y="11"/>
			<point x="-207" y="73" type="curve" smooth="yes"/>
			<point x="-207" y="133"/>
			<point x="-239" y="155"/>
			<point x="-300" y="155" type="curve" smooth="yes"/>
			<point x="-361" y="155"/>
			<point x="-393" y="133"/>
			<point x="-393" y="73" type="curve" smooth="yes"/>
			<point x="-393" y="11"/>
			<point x="-361" y="-12"/>
		</contour>
		<contour>
			<point x="-300" y="359" type="curve" smooth="yes"/>
			<point x="-239" y="359"/>
			<point x="-207" y="382"/>
			<point x="-207" y="444" type="curve" smooth="yes"/>
			<point x="-207" y="504"/>
			<point x="-239" y="526"/>
			<point x="-300" y="526" type="curve" smooth="yes"/>
			<point x="-361" y="526"/>
			<point x="-393" y="504"/>
			<point x="-393" y="444" type="curve" smooth="yes"/>
			<point x="-393" y="382"/>
			<point x="-361" y="359"/>
		</contour>
		<contour>
			<point x="152" y="-12" type="curve" smooth="yes"/>
			<point x="213" y="-12"/>
			<point x="245" y="11"/>
			<point x="245" y="73" type="curve" smooth="yes"/>
			<point x="245" y="133"/>
			<point x="213" y="155"/>
			<point x="152" y="155" type="curve" smooth="yes"/>
			<point x="91" y="155"/>
			<point x="59" y="133"/>
			<point x="59" y="73" type="curve" smooth="yes"/>
			<point x="59" y="11"/>
			<point x="91" y="-12"/>
		</contour>
		<contour>
			<point x="152" y="359" type="curve" smooth="yes"/>
			<point x="213" y="359"/>
			<point x="245" y="382"/>
			<point x="245" y="444" type="curve" smooth="yes"/>
			<point x="245" y="504"/>
			<point x="213" y="526"/>
			<point x="152" y="526" type="curve" smooth="yes"/>
			<point x="91" y="526"/>
			<point x="59" y="504"/>
			<point x="59" y="444" type="curve" smooth="yes"/>
			<point x="59" y="382"/>
			<point x="91" y="359"/>
		</contour>
	</outline>
</glyph>
<glyph name="colon_less.cLig.x" format="2">
	<advance width="600"/>
	<outline>
		<contour>
			<point x="430" y="-9" type="line"/>
			<point x="430" y="115" type="line"/>
			<point x="75" y="316" type="line"/>
			<point x="430" y="515" type="line"/>
			<point x="430" y="639" type="line"/>
			<point x="-17" y="383" type="line"/>
			<point x="-17" y="245" type="line"/>
		</contour>
		<contour>
			<point x="-300" y="411" type="curve" smooth="yes"/>
			<point x="-239" y="411"/>
			<point x="-207" y="434"/>
			<point x="-207" y="496" type="curve" smooth="yes"/>
			<point x="-207" y="556"/>
			<point x="-239" y="578"/>
			<point x="-300" y="578" type="curve" smooth="yes"/>
			<point x="-361" y="578"/>
			<point x="-393" y="556"/>
			<point x="-393" y="496" type="curve" smooth="yes"/>
			<point x="-393" y="434"/>
			<point x="-361" y="411"/>
		</contour>
		<contour>
			<point x="-300" y="40" type="curve" smooth="yes"/>
			<point x="-239" y="40"/>
			<point x="-207" y="63"/>
			<point x="-207" y="125" type="curve" smooth="yes"/>
			<point x="-207" y="185"/>
			<point x="-239" y="207"/>
			<point x="-300" y="207" type="curve" smooth="yes"/>
			<point x="-361" y="207"/>
			<point x="-393" y="185"/>
			<point x="-393" y="125" type="curve" smooth="yes"/>
			<point x="-393" y="63"/>
			<point x="-361" y="40"/>
		</contour>
	</outline>
</glyph>
<glyph name="dollar_greater.cLig" format="2">
	<advance width="600"/>
	<outline>
		<contour>
			<point x="-390" y="-93" type="line"/>
			<point x="-305" y="-93" type="line"/>
			<point x="-292" y="-11" type="line"/>
			<point x="-266" y="-11" type="line" smooth="yes"/>
			<point x="-121" y="-11"/>
			<point x="-23" y="64"/>
			<point x="-23" y="211" type="curve" smooth="yes"/>
			<point x="-23" y="341"/>
			<point x="-120" y="375"/>
			<point x="-234" y="396" type="curve"/>
			<point x="-202" y="589" type="line"/>
			<point x="-122" y="576"/>
			<point x="-40" y="538"/>
			<point x="80" y="480" type="curve" smooth="yes"/>
			<point x="420" y="315" type="line"/>
			<point x="87" y="155" type="line"/>
			<point x="87" y="34" type="line"/>
			<point x="515" y="245" type="line"/>
			<point x="515" y="383" type="line"/>
			<point x="130" y="576" type="line" smooth="yes"/>
			<point x="40" y="623"/>
			<point x="-70" y="669"/>
			<point x="-176" y="687" type="curve"/>
			<point x="-162" y="774" type="line"/>
			<point x="-248" y="774" type="line"/>
			<point x="-260" y="695" type="line"/>
			<point x="-266" y="695" type="line" smooth="yes"/>
			<point x="-420" y="695"/>
			<point x="-529" y="621"/>
			<point x="-529" y="481" type="curve" smooth="yes"/>
			<point x="-529" y="345"/>
			<point x="-438" y="312"/>
			<point x="-319" y="290" type="curve"/>
			<point x="-350" y="101" type="line"/>
			<point x="-410" y="115"/>
			<point x="-468" y="141"/>
			<point x="-519" y="181" type="curve"/>
			<point x="-519" y="64" type="line"/>
			<point x="-479" y="36"/>
			<point x="-432" y="13"/>
			<point x="-376" y="0" type="curve"/>
		</contour>
		<contour>
			<point x="-405" y="495" type="curve" smooth="yes"/>
			<point x="-405" y="563"/>
			<point x="-350" y="594"/>
			<point x="-269" y="594" type="curve"/>
			<point x="-299" y="407" type="line"/>
			<point x="-364" y="420"/>
			<point x="-405" y="437"/>
		</contour>
		<contour>
			<point x="-148" y="192" type="curve" smooth="yes"/>
			<point x="-148" y="124"/>
			<point x="-194" y="92"/>
			<point x="-265" y="92" type="curve" smooth="yes"/>
			<point x="-272" y="92"/>
			<point x="-278" y="92"/>
			<point x="-284" y="93" type="curve"/>
			<point x="-253" y="278" type="line"/>
			<point x="-189" y="266"/>
			<point x="-148" y="249"/>
		</contour>
	</outline>
</glyph>
<glyph name="dotaccent.cap" format="2">
	<advance width="600"/>
	<outline>
		<contour>
			<point x="300" y="751" type="curve" smooth="yes"/>
			<point x="358" y="751"/>
			<point x="377" y="774"/>
			<point x="377" y="816" type="curve" smooth="yes"/>
			<point x="377" y="857"/>
			<point x="357" y="879"/>
			<point x="300" y="879" type="curve" smooth="yes"/>
			<point x="243" y="879"/>
			<point x="223" y="858"/>
			<point x="223" y="816" type="curve" smooth="yes"/>
			<point x="223" y="774"/>
			<point x="243" y="751"/>
		</contour>
	</outline>
	<anchor name="_top" x="300" y="684"/>
</glyph>
<glyph name="dotbelow" format="2">
	<advance width="600"/>
	<outline>
		<contour>
			<point x="300" y="-184" type="curve" smooth="yes"/>
			<point x="353" y="-184"/>
			<point x="377" y="-162"/>
			<point x="377" y="-113" type="curve" smooth="yes"/>
			<point x="377" y="-63"/>
			<point x="354" y="-41"/>
			<point x="300" y="-41" type="curve" smooth="yes"/>
			<point x="246" y="-41"/>
			<point x="222" y="-63"/>
			<point x="222" y="-113" type="curve" smooth="yes"/>
			<point x="222" y="-162"/>
			<point x="248" y="-184"/>
		</contour>
	</outline>
	<anchor name="bottom" x="301" y="0"/>
</glyph>
<glyph name="eight.den" format="2">
	<advance width="600"/>
	<outline>
		<contour>
			<point x="299" y="-8" type="curve" smooth="yes"/>
			<point x="399" y="-8"/>
			<point x="464" y="31"/>
			<point x="464" y="109" type="curve" smooth="yes"/>
			<point x="464" y="172"/>
			<point x="423" y="199"/>
			<point x="377" y="209" type="curve"/>
			<point x="421" y="220"/>
			<point x="455" y="253"/>
			<point x="455" y="305" type="curve" smooth="yes"/>
			<point x="455" y="382"/>
			<point x="392" y="418"/>
			<point x="300" y="418" type="curve" smooth="yes"/>
			<point x="207" y="418"/>
			<point x="144" y="381"/>
			<point x="144" y="305" type="curve" smooth="yes"/>
			<point x="144" y="251"/>
			<point x="181" y="219"/>
			<point x="223" y="210" type="curve"/>
			<point x="175" y="199"/>
			<point x="136" y="170"/>
			<point x="136" y="109" type="curve" smooth="yes"/>
			<point x="136" y="30"/>
			<point x="200" y="-8"/>
		</contour>
		<contour>
			<point x="299" y="241" type="curve" smooth="yes"/>
			<point x="256" y="241"/>
			<point x="227" y="258"/>
			<point x="227" y="299" type="curve" smooth="yes"/>
			<point x="227" y="340"/>
			<point x="257" y="357"/>
			<point x="300" y="357" type="curve" smooth="yes"/>
			<point x="342" y="357"/>
			<point x="372" y="340"/>
			<point x="372" y="299" type="curve" smooth="yes"/>
			<point x="372" y="258"/>
			<point x="342" y="241"/>
		</contour>
		<contour>
			<point x="300" y="56" type="curve" smooth="yes"/>
			<point x="255" y="56"/>
			<point x="224" y="74"/>
			<point x="224" y="119" type="curve" smooth="yes"/>
			<point x="224" y="162"/>
			<point x="254" y="178"/>
			<point x="300" y="178" type="curve" smooth="yes"/>
			<point x="345" y="178"/>
			<point x="377" y="163"/>
			<point x="377" y="119" type="curve" smooth="yes"/>
			<point x="377" y="75"/>
			<point x="345" y="56"/>
		</contour>
	</outline>
</glyph>
<glyph name="equal.fina" format="2">
	<advance width="600"/>
	<outline>
		<contour>
			<point x="0" y="371" type="line"/>
			<point x="435" y="371" type="line"/>
			<point x="435" y="478" type="line"/>
			<point x="0" y="478" type="line"/>
		</contour>
		<contour>
			<point x="0" y="151" type="line"/>
			<point x="435" y="151" type="line"/>
			<point x="435" y="258" type="line"/>
			<point x="0" y="258" type="line"/>
		</contour>
	</outline>
</glyph>
<glyph name="equal_equal_equal.cLig" format="2">
	<advance width="600"/>
	<outline>
		<contour>
			<point x="-1050" y="470" type="line"/>
			<point x="450" y="470" type="line"/>
			<point x="450" y="569" type="line"/>
			<point x="-1050" y="569" type="line"/>
		</contour>
		<contour>
			<point x="-1050" y="263" type="line"/>
			<point x="450" y="263" type="line"/>
			<point x="450" y="363" type="line"/>
			<point x="-1050" y="363" type="line"/>
		</contour>
		<contour>
			<point x="-1050" y="57" type="line"/>
			<point x="450" y="57" type="line"/>
			<point x="450" y="157" type="line"/>
			<point x="-1050" y="157" type="line"/>
		</contour>
	</outline>
</glyph>
<glyph name="equal_exclam_equal.rem" format="2">
	<advance width="600"/>
	<outline>
		<contour>
			<point x="-345" y="219" type="line"/>
			<point x="-255" y="219" type="line"/>
			<point x="-231" y="552" type="line"/>
			<point x="-231" y="684" type="line"/>
			<point x="-368" y="684" type="line"/>
			<point x="-368" y="552" type="line"/>
		</contour>
		<contour>
			<point x="-298" y="-12" type="curve" smooth="yes"/>
			<point x="-243" y="-12"/>
			<point x="-215" y="9"/>
			<point x="-215" y="64" type="curve" smooth="yes"/>
			<point x="-215" y="118"/>
			<point x="-243" y="140"/>
			<point x="-298" y="140" type="curve" smooth="yes"/>
			<point x="-355" y="140"/>
			<point x="-383" y="118"/>
			<point x="-383" y="64" type="curve" smooth="yes"/>
			<point x="-383" y="9"/>
			<point x="-355" y="-12"/>
		</contour>
		<contour>
			<point x="-1035.6244604323" y="350" type="line"/>
			<point x="-551.0230215877" y="350" type="line"/>
			<point x="-551.0230215877" y="456" type="line"/>
			<point x="-1035.6244604323" y="456" type="line"/>
		</contour>
		<contour>
			<point x="-1035.6244604323" y="131" type="line"/>
			<point x="-551.0230215877" y="131" type="line"/>
			<point x="-551.0230215877" y="237" type="line"/>
			<point x="-1035.6244604323" y="237" type="line"/>
		</contour>
		<contour>
			<point x="-48.6244604323" y="350" type="line"/>
			<point x="435.9769784123" y="350" type="line"/>
			<point x="435.9769784123" y="456" type="line"/>
			<point x="-48.6244604323" y="456" type="line"/>
		</contour>
		<contour>
			<point x="-48.6244604323" y="131" type="line"/>
			<point x="435.9769784123" y="131" type="line"/>
			<point x="435.9769784123" y="237" type="line"/>
			<point x="-48.6244604323" y="237" type="line"/>
		</contour>
	</outline>
</glyph>
<glyph name="equal_greater_greater.rem" format="2">
	<advance width="600"/>
	<outline>
		<contour>
			<point x="56" y="0" type="line"/>
			<point x="200" y="0" type="line"/>
			<point x="470" y="314" type="line"/>
			<point x="197" y="629" type="line"/>
			<point x="53" y="629" type="line"/>
			<point x="323" y="316" type="line"/>
		</contour>
		<contour>
			<point x="-1035" y="151" type="line"/>
			<point x="-197" y="151" type="line"/>
			<point x="-326" y="0" type="line"/>
			<point x="-183" y="0" type="line"/>
			<point x="86" y="314" type="line"/>
			<point x="-186" y="629" type="line"/>
			<point x="-329" y="629" type="line"/>
			<point x="-198" y="478" type="line"/>
			<point x="-1035" y="478" type="line"/>
			<point x="-1035" y="371" type="line"/>
			<point x="-105" y="371" type="line"/>
			<point x="-57" y="315" type="line"/>
			<point x="-106" y="258" type="line"/>
			<point x="-1035" y="258" type="line"/>
		</contour>
	</outline>
</glyph>
<glyph name="exclam_asciitilde.cLig" format="2">
	<advance width="600"/>
	<outline>
		<contour>
			<point x="-320" y="129" type="line"/>
			<point x="-158" y="129" type="line"/>
			<point x="-288" y="-77" type="line"/>
			<point x="-176" y="-77" type="line"/>
			<point x="-46" y="129" type="line"/>
			<point x="320" y="129" type="line"/>
			<point x="320" y="236" type="line"/>
			<point x="21" y="236" type="line"/>
			<point x="74" y="320" type="line"/>
			<point x="100" y="312"/>
			<point x="127" y="307"/>
			<point x="158" y="307" type="curve" smooth="yes"/>
			<point x="229" y="307"/>
			<point x="289" y="336"/>
			<point x="320" y="383" type="curve"/>
			<point x="320" y="502" type="line"/>
			<point x="268" y="432"/>
			<point x="218" y="414"/>
			<point x="151" y="415" type="curve" smooth="yes"/>
			<point x="146" y="415"/>
			<point x="140" y="416"/>
			<point x="135" y="416" type="curve"/>
			<point x="280" y="647" type="line"/>
			<point x="168" y="647" type="line"/>
			<point x="42" y="447" type="line"/>
			<point x="-18" y="474"/>
			<point x="-80" y="509"/>
			<point x="-158" y="509" type="curve" smooth="yes"/>
			<point x="-225" y="509"/>
			<point x="-289" y="481"/>
			<point x="-320" y="435" type="curve"/>
			<point x="-320" y="315" type="line"/>
			<point x="-278" y="375"/>
			<point x="-219" y="401"/>
			<point x="-157" y="401" type="curve" smooth="yes"/>
			<point x="-106" y="401"/>
			<point x="-63" y="379"/>
			<point x="-15" y="356" type="curve"/>
			<point x="-91" y="236" type="line"/>
			<point x="-320" y="236" type="line"/>
		</contour>
	</outline>
</glyph>
<glyph name="exclam_equal.med" format="2">
	<advance width="600"/>
	<outline>
		<contour>
			<point x="254" y="219" type="line"/>
			<point x="344" y="219" type="line"/>
			<point x="368" y="552" type="line"/>
			<point x="368" y="684" type="line"/>
			<point x="231" y="684" type="line"/>
			<point x="231" y="552" type="line"/>
		</contour>
		<contour>
			<point x="500" y="371" type="line"/>
			<point x="600" y="371" type="line"/>
			<point x="600" y="478" type="line"/>
			<point x="500" y="478" type="line"/>
		</contour>
		<contour>
			<point x="0" y="371" type="line"/>
			<point x="100" y="371" type="line"/>
			<point x="100" y="478" type="line"/>
			<point x="0" y="478" type="line"/>
		</contour>
		<contour>
			<point x="500" y="151" type="line"/>
			<point x="600" y="151" type="line"/>
			<point x="600" y="258" type="line"/>
			<point x="500" y="258" type="line"/>
		</contour>
		<contour>
			<point x="0" y="151" type="line"/>
			<point x="100" y="151" type="line"/>
			<point x="100" y="258" type="line"/>
			<point x="0" y="258" type="line"/>
		</contour>
		<contour>
			<point x="301" y="-12" type="curve" smooth="yes"/>
			<point x="356" y="-12"/>
			<point x="384" y="9"/>
			<point x="384" y="64" type="curve" smooth="yes"/>
			<point x="384" y="118"/>
			<point x="356" y="140"/>
			<point x="301" y="140" type="curve" smooth="yes"/>
			<point x="244" y="140"/>
			<point x="216" y="118"/>
			<point x="216" y="64" type="curve" smooth="yes"/>
			<point x="216" y="9"/>
			<point x="244" y="-12"/>
		</contour>
	</outline>
</glyph>
<glyph name="exclam_exclam.cLig" format="2">
	<advance width="600"/>
	<outline>
		<contour>
			<point x="-273" y="219" type="line"/>
			<point x="-183" y="219" type="line"/>
			<point x="-159" y="552" type="line"/>
			<point x="-159" y="684" type="line"/>
			<point x="-296" y="684" type="line"/>
			<point x="-296" y="552" type="line"/>
		</contour>
		<contour>
			<point x="-226" y="-12" type="curve" smooth="yes"/>
			<point x="-171" y="-12"/>
			<point x="-143" y="9"/>
			<point x="-143" y="64" type="curve" smooth="yes"/>
			<point x="-143" y="118"/>
			<point x="-171" y="140"/>
			<point x="-226" y="140" type="curve" smooth="yes"/>
			<point x="-283" y="140"/>
			<point x="-311" y="118"/>
			<point x="-311" y="64" type="curve" smooth="yes"/>
			<point x="-311" y="9"/>
			<point x="-283" y="-12"/>
		</contour>
		<contour>
			<point x="181" y="219" type="line"/>
			<point x="271" y="219" type="line"/>
			<point x="295" y="552" type="line"/>
			<point x="295" y="684" type="line"/>
			<point x="158" y="684" type="line"/>
			<point x="158" y="552" type="line"/>
		</contour>
		<contour>
			<point x="228" y="-12" type="curve" smooth="yes"/>
			<point x="283" y="-12"/>
			<point x="311" y="9"/>
			<point x="311" y="64" type="curve" smooth="yes"/>
			<point x="311" y="118"/>
			<point x="283" y="140"/>
			<point x="228" y="140" type="curve" smooth="yes"/>
			<point x="171" y="140"/>
			<point x="143" y="118"/>
			<point x="143" y="64" type="curve" smooth="yes"/>
			<point x="143" y="9"/>
			<point x="171" y="-12"/>
		</contour>
	</outline>
</glyph>
<glyph name="five.den" format="2">
	<advance width="600"/>
	<outline>
		<contour>
			<point x="294" y="-8" type="curve" smooth="yes"/>
			<point x="389" y="-8"/>
			<point x="450" y="49"/>
			<point x="450" y="135" type="curve" smooth="yes"/>
			<point x="450" y="215"/>
			<point x="404" y="253"/>
			<point x="314" y="253" type="curve" smooth="yes"/>
			<point x="291" y="253"/>
			<point x="269" y="252"/>
			<point x="247" y="247" type="curve"/>
			<point x="248" y="341" type="line"/>
			<point x="440" y="341" type="line"/>
			<point x="440" y="410" type="line"/>
			<point x="169" y="410" type="line"/>
			<point x="169" y="174" type="line"/>
			<point x="210" y="186"/>
			<point x="241" y="191"/>
			<point x="276" y="191" type="curve" smooth="yes"/>
			<point x="340" y="191"/>
			<point x="362" y="169"/>
			<point x="362" y="131" type="curve" smooth="yes"/>
			<point x="362" y="89"/>
			<point x="337" y="62"/>
			<point x="286" y="62" type="curve" smooth="yes"/>
			<point x="244" y="62"/>
			<point x="197" y="76"/>
			<point x="154" y="106" type="curve"/>
			<point x="154" y="32" type="line"/>
			<point x="191" y="7"/>
			<point x="237" y="-8"/>
		</contour>
	</outline>
</glyph>
<glyph name="four.numr" format="2">
	<advance width="600"/>
	<outline>
		<contour>
			<point x="322" y="372" type="line"/>
			<point x="398" y="372" type="line"/>
			<point x="398" y="434" type="line"/>
			<point x="433" y="434" type="line"/>
			<point x="433" y="495" type="line"/>
			<point x="398" y="495" type="line"/>
			<point x="398" y="717" type="line"/>
			<point x="283" y="717" type="line"/>
			<point x="155" y="495" type="line"/>
			<point x="155" y="434" type="line"/>
			<point x="322" y="434" type="line"/>
		</contour>
		<contour>
			<point x="226" y="495" type="line"/>
			<point x="322" y="667" type="line"/>
			<point x="322" y="495" type="line"/>
		</contour>
	</outline>
</glyph>
<glyph name="grave.cap" format="2">
	<advance width="600"/>
	<outline>
		<contour>
			<point x="396" y="745" type="line"/>
			<point x="339" y="884" type="line"/>
			<point x="203" y="884" type="line"/>
			<point x="301" y="745" type="line"/>
		</contour>
	</outline>
	<anchor name="_top" x="348" y="684"/>
</glyph>
<glyph name="greater_equal.fina" format="2">
	<advance width="600"/>
	<outline>
		<contour>
			<point x="129" y="0" type="line"/>
			<point x="273" y="0" type="line"/>
			<point x="542" y="314" type="line"/>
			<point x="270" y="629" type="line"/>
			<point x="126" y="629" type="line"/>
			<point x="258" y="478" type="line"/>
			<point x="0" y="478" type="line"/>
			<point x="0" y="371" type="line"/>
			<point x="350" y="371" type="line"/>
			<point x="398" y="315" type="line"/>
			<point x="349" y="258" type="line"/>
			<point x="0" y="258" type="line"/>
			<point x="0" y="151" type="line"/>
			<point x="258" y="151" type="line"/>
		</contour>
	</outline>
</glyph>
<glyph name="greater_equal.med" format="2">
	<advance width="600"/>
	<outline>
		<contour>
			<point x="110" y="0" type="line"/>
			<point x="253" y="0" type="line"/>
			<point x="384" y="151" type="line"/>
			<point x="600" y="151" type="line"/>
			<point x="600" y="258" type="line"/>
			<point x="475" y="258" type="line"/>
			<point x="524" y="314" type="line"/>
			<point x="474" y="371" type="line"/>
			<point x="600" y="371" type="line"/>
			<point x="600" y="478" type="line"/>
			<point x="382" y="478" type="line"/>
			<point x="250" y="629" type="line"/>
			<point x="107" y="629" type="line"/>
			<point x="238" y="478" type="line"/>
			<point x="0" y="478" type="line"/>
			<point x="0" y="371" type="line"/>
			<point x="331" y="371" type="line"/>
			<point x="380" y="316" type="line"/>
			<point x="330" y="258" type="line"/>
			<point x="0" y="258" type="line"/>
			<point x="0" y="151" type="line"/>
			<point x="239" y="151" type="line"/>
		</contour>
	</outline>
</glyph>
<glyph name="greater_equal_greater.rem" format="2">
	<advance width="600"/>
	<outline>
		<contour>
			<point x="-1085" y="0" type="line"/>
			<point x="-940" y="0" type="line"/>
			<point x="-815" y="151" type="line"/>
			<point x="201" y="151" type="line"/>
			<point x="72" y="0" type="line"/>
			<point x="216" y="0" type="line"/>
			<point x="485" y="314" type="line"/>
			<point x="213" y="629" type="line"/>
			<point x="69" y="629" type="line"/>
			<point x="201" y="478" type="line"/>
			<point x="-816" y="478" type="line"/>
			<point x="-943" y="629" type="line"/>
			<point x="-1088" y="629" type="line"/>
			<point x="-871" y="371" type="line"/>
			<point x="293" y="371" type="line"/>
			<point x="341" y="315" type="line"/>
			<point x="292" y="258" type="line"/>
			<point x="-871" y="258" type="line"/>
		</contour>
	</outline>
</glyph>
<glyph name="greater_greater_equal.init" format="2">
	<advance width="600"/>
	<outline>
		<contour>
			<point x="-527" y="0" type="line"/>
			<point x="-381" y="0" type="line"/>
			<point x="-110" y="314" type="line"/>
			<point x="-384" y="629" type="line"/>
			<point x="-530" y="629" type="line"/>
			<point x="-256" y="314" type="line"/>
		</contour>
		<contour>
			<point x="77" y="371" type="line"/>
			<point x="600" y="371" type="line"/>
			<point x="600" y="478" type="line"/>
			<point x="132" y="478" type="line"/>
			<point x="5" y="629" type="line"/>
			<point x="-140" y="629" type="line"/>
		</contour>
		<contour>
			<point x="-137" y="0" type="line"/>
			<point x="8" y="0" type="line"/>
			<point x="133" y="151" type="line"/>
			<point x="600" y="151" type="line"/>
			<point x="600" y="258" type="line"/>
			<point x="77" y="258" type="line"/>
		</contour>
	</outline>
</glyph>
<glyph name="greater_greater_equal.med" format="2">
	<advance width="600"/>
	<outline>
		<contour>
			<point x="-471" y="0" type="line"/>
			<point x="-327" y="0" type="line"/>
			<point x="-58" y="314" type="line"/>
			<point x="-330" y="629" type="line"/>
			<point x="-474" y="629" type="line"/>
			<point x="-342" y="478" type="line"/>
			<point x="-600" y="478" type="line"/>
			<point x="-600" y="371" type="line"/>
			<point x="-250" y="371" type="line"/>
			<point x="-202" y="315" type="line"/>
			<point x="-251" y="258" type="line"/>
			<point x="-600" y="258" type="line"/>
			<point x="-600" y="151" type="line"/>
			<point x="-342" y="151" type="line"/>
		</contour>
		<contour>
			<point x="128" y="371" type="line"/>
			<point x="600" y="371" type="line"/>
			<point x="600" y="478" type="line"/>
			<point x="183" y="478" type="line"/>
			<point x="56" y="629" type="line"/>
			<point x="-89" y="629" type="line"/>
		</contour>
		<contour>
			<point x="-86" y="0" type="line"/>
			<point x="59" y="0" type="line"/>
			<point x="185" y="151" type="line"/>
			<point x="600" y="151" type="line"/>
			<point x="600" y="258" type="line"/>
			<point x="128" y="258" type="line"/>
		</contour>
	</outline>
</glyph>
<glyph name="greater_greater_greater.cLig" format="2">
	<advance width="600"/>
	<outline>
		<contour>
			<point x="-1111" y="24" type="line"/>
			<point x="-649" y="229" type="line"/>
			<point x="-649" y="366" type="line"/>
			<point x="-1111" y="571" type="line"/>
			<point x="-1111" y="450" type="line"/>
			<point x="-750" y="298" type="line"/>
			<point x="-1111" y="146" type="line"/>
		</contour>
		<contour>
			<point x="-529" y="24" type="line"/>
			<point x="-67" y="229" type="line"/>
			<point x="-67" y="366" type="line"/>
			<point x="-529" y="571" type="line"/>
			<point x="-529" y="450" type="line"/>
			<point x="-168" y="298" type="line"/>
			<point x="-529" y="146" type="line"/>
		</contour>
		<contour>
			<point x="54" y="24" type="line"/>
			<point x="516" y="229" type="line"/>
			<point x="516" y="366" type="line"/>
			<point x="54" y="571" type="line"/>
			<point x="54" y="450" type="line"/>
			<point x="415" y="298" type="line"/>
			<point x="54" y="146" type="line"/>
		</contour>
	</outline>
</glyph>
<glyph name="greater_greater_hyphen.fina" format="2">
	<advance width="600"/>
	<outline>
		<contour>
			<point x="71" y="0" type="line"/>
			<point x="215" y="0" type="line"/>
			<point x="485" y="314" type="line"/>
			<point x="212" y="629" type="line"/>
			<point x="68" y="629" type="line"/>
			<point x="337" y="316" type="line"/>
		</contour>
		<contour>
			<point x="-600" y="258" type="line"/>
			<point x="-80" y="258" type="line"/>
			<point x="-313" y="0" type="line"/>
			<point x="-168" y="0" type="line"/>
			<point x="106" y="314" type="line"/>
			<point x="-171" y="629" type="line"/>
			<point x="-316" y="629" type="line"/>
			<point x="-80" y="371" type="line"/>
			<point x="-600" y="371" type="line"/>
		</contour>
	</outline>
</glyph>
<glyph name="greater_greater_hyphen.init" format="2">
	<advance width="600"/>
	<outline>
		<contour>
			<point x="-513" y="0" type="line"/>
			<point x="-366" y="0" type="line"/>
			<point x="-95" y="314" type="line"/>
			<point x="-369" y="629" type="line"/>
			<point x="-516" y="629" type="line"/>
			<point x="-242" y="315" type="line"/>
		</contour>
		<contour>
			<point x="-126" y="0" type="line"/>
			<point x="20" y="0" type="line"/>
			<point x="243" y="258" type="line"/>
			<point x="600" y="258" type="line"/>
			<point x="600" y="371" type="line"/>
			<point x="241" y="371" type="line"/>
			<point x="17" y="629" type="line"/>
			<point x="-129" y="629" type="line"/>
			<point x="142" y="314" type="line"/>
		</contour>
	</outline>
</glyph>
<glyph name="greater_greater_hyphen.med" format="2">
	<advance width="600"/>
	<outline>
		<contour>
			<point x="-62" y="0" type="line"/>
			<point x="82" y="0" type="line"/>
			<point x="294" y="247" type="line"/>
			<point x="599" y="247" type="line"/>
			<point x="599" y="359" type="line"/>
			<point x="314" y="359" type="line"/>
			<point x="79" y="629" type="line"/>
			<point x="-65" y="629" type="line"/>
			<point x="205" y="316" type="line"/>
		</contour>
		<contour>
			<point x="-600" y="258" type="line"/>
			<point x="-214" y="258" type="line"/>
			<point x="-448" y="0" type="line"/>
			<point x="-302" y="0" type="line"/>
			<point x="-29" y="314" type="line"/>
			<point x="-305" y="629" type="line"/>
			<point x="-451" y="629" type="line"/>
			<point x="-215" y="371" type="line"/>
			<point x="-600" y="371" type="line"/>
		</contour>
	</outline>
</glyph>
<glyph name="greater_hyphen.init" format="2">
	<advance width="600"/>
	<outline>
		<contour>
			<point x="87" y="0" type="line"/>
			<point x="234" y="0" type="line"/>
			<point x="456" y="258" type="line"/>
			<point x="600" y="258" type="line"/>
			<point x="600" y="371" type="line"/>
			<point x="454" y="371" type="line"/>
			<point x="231" y="629" type="line"/>
			<point x="84" y="629" type="line"/>
			<point x="355" y="314" type="line"/>
		</contour>
	</outline>
</glyph>
<glyph name="greater_hyphen_greater.rem" format="2">
	<advance width="600"/>
	<outline>
		<contour>
			<point x="-1073" y="0" type="line"/>
			<point x="-926" y="0" type="line"/>
			<point x="-704" y="258" type="line"/>
			<point x="288" y="258" type="line"/>
			<point x="54" y="0" type="line"/>
			<point x="200" y="0" type="line"/>
			<point x="473" y="314" type="line"/>
			<point x="197" y="629" type="line"/>
			<point x="51" y="629" type="line"/>
			<point x="287" y="371" type="line"/>
			<point x="-706" y="371" type="line"/>
			<point x="-929" y="629" type="line"/>
			<point x="-1076" y="629" type="line"/>
			<point x="-805" y="314" type="line"/>
		</contour>
	</outline>
</glyph>
<glyph name="hyphen.init" format="2">
	<advance width="600"/>
	<outline>
		<contour>
			<point x="165" y="258" type="line"/>
			<point x="600" y="258" type="line"/>
			<point x="600" y="371" type="line"/>
			<point x="165" y="371" type="line"/>
		</contour>
	</outline>
</glyph>
<glyph name="hyphen_braceright.rem" format="2">
	<advance width="600"/>
	<outline>
		<contour>
			<point x="2" y="-163" type="line"/>
			<point x="172" y="-163" type="line" smooth="yes"/>
			<point x="284" y="-163"/>
			<point x="341" y="-105"/>
			<point x="341" y="-28" type="curve" smooth="yes"/>
			<point x="341" y="63"/>
			<point x="246" y="126"/>
			<point x="246" y="190" type="curve" smooth="yes"/>
			<point x="246" y="225"/>
			<point x="266" y="260"/>
			<point x="331" y="260" type="curve" smooth="yes"/>
			<point x="408" y="260" type="line"/>
			<point x="408" y="367" type="line"/>
			<point x="331" y="367" type="line" smooth="yes"/>
			<point x="266" y="367"/>
			<point x="246" y="400"/>
			<point x="246" y="431" type="curve" smooth="yes"/>
			<point x="246" y="498"/>
			<point x="341" y="562"/>
			<point x="341" y="657" type="curve" smooth="yes"/>
			<point x="341" y="733"/>
			<point x="281" y="792"/>
			<point x="172" y="792" type="curve" smooth="yes"/>
			<point x="2" y="792" type="line"/>
			<point x="2" y="700" type="line"/>
			<point x="132" y="700" type="line" smooth="yes"/>
			<point x="182" y="700"/>
			<point x="213" y="681"/>
			<point x="213" y="639" type="curve" smooth="yes"/>
			<point x="213" y="577"/>
			<point x="121" y="523"/>
			<point x="121" y="450" type="curve" smooth="yes"/>
			<point x="121" y="406"/>
			<point x="154" y="380"/>
			<point x="203" y="367" type="curve"/>
			<point x="-435" y="367" type="line"/>
			<point x="-435" y="262" type="line"/>
			<point x="201" y="262" type="line"/>
			<point x="153" y="246"/>
			<point x="121" y="219"/>
			<point x="121" y="175" type="curve" smooth="yes"/>
			<point x="121" y="100"/>
			<point x="213" y="52"/>
			<point x="213" y="-9" type="curve" smooth="yes"/>
			<point x="213" y="-50"/>
			<point x="183" y="-71"/>
			<point x="127" y="-71" type="curve" smooth="yes"/>
			<point x="2" y="-71" type="line"/>
		</contour>
	</outline>
</glyph>
<glyph name="less_asciitilde.cLig" format="2">
	<advance width="600"/>
	<outline>
		<contour>
			<point x="-93" y="-1" type="line"/>
			<point x="-329" y="257" type="line"/>
			<point x="97" y="257" type="line"/>
			<point x="103" y="300"/>
			<point x="123" y="326"/>
			<point x="155" y="326" type="curve" smooth="yes"/>
			<point x="220" y="326"/>
			<point x="247" y="201"/>
			<point x="360" y="201" type="curve" smooth="yes"/>
			<point x="445" y="201"/>
			<point x="498" y="258"/>
			<point x="498" y="422" type="curve"/>
			<point x="400" y="422" type="line"/>
			<point x="400" y="348"/>
			<point x="385" y="316"/>
			<point x="346" y="316" type="curve"/>
			<point x="282" y="316"/>
			<point x="247" y="439"/>
			<point x="143" y="439" type="curve" smooth="yes"/>
			<point x="91" y="439"/>
			<point x="54" y="416"/>
			<point x="32" y="370" type="curve"/>
			<point x="-330" y="370" type="line"/>
			<point x="-96" y="628" type="line"/>
			<point x="-242" y="628" type="line"/>
			<point x="-515" y="314" type="line"/>
			<point x="-239" y="-1" type="line"/>
		</contour>
	</outline>
</glyph>
<glyph name="less_asciitilde_greater.cLig" format="2">
	<advance width="600"/>
	<outline>
		<contour>
			<point x="-818" y="0" type="line"/>
			<point x="-673" y="0" type="line"/>
			<point x="-906" y="258" type="line"/>
			<point x="-487" y="258" type="line"/>
			<point x="-485" y="303"/>
			<point x="-462" y="336"/>
			<point x="-421" y="336" type="curve" smooth="yes"/>
			<point x="-331" y="336"/>
			<point x="-309" y="180"/>
			<point x="-170" y="180" type="curve" smooth="yes"/>
			<point x="-113" y="180"/>
			<point x="-69" y="210"/>
			<point x="-47" y="258" type="curve"/>
			<point x="306" y="258" type="line"/>
			<point x="76" y="0" type="line"/>
			<point x="221" y="0" type="line"/>
			<point x="495" y="314" type="line"/>
			<point x="218" y="629" type="line"/>
			<point x="73" y="629" type="line"/>
			<point x="306" y="371" type="line"/>
			<point x="-113" y="371" type="line"/>
			<point x="-116" y="327"/>
			<point x="-136" y="294"/>
			<point x="-176" y="294" type="curve" smooth="yes"/>
			<point x="-260" y="294"/>
			<point x="-294" y="450"/>
			<point x="-428" y="450" type="curve" smooth="yes"/>
			<point x="-485" y="450"/>
			<point x="-531" y="420"/>
			<point x="-553" y="371" type="curve"/>
			<point x="-906" y="371" type="line"/>
			<point x="-676" y="629" type="line"/>
			<point x="-821" y="629" type="line"/>
			<point x="-1095" y="315" type="line"/>
		</contour>
	</outline>
</glyph>
<glyph name="less_bar_bar.cLig" format="2">
	<advance width="600"/>
	<outline>
		<contour>
			<point x="270" y="-79" type="line"/>
			<point x="270" y="708" type="line"/>
			<point x="153" y="708" type="line"/>
			<point x="153" y="-79" type="line"/>
		</contour>
		<contour>
			<point x="-290" y="708" type="line"/>
			<point x="-408" y="708" type="line"/>
			<point x="-938" y="383" type="line"/>
			<point x="-937" y="245" type="line"/>
			<point x="-407" y="-79" type="line"/>
			<point x="-290" y="-79" type="line"/>
		</contour>
		<contour>
			<point x="-404" y="55" type="line"/>
			<point x="-836" y="313" type="line"/>
			<point x="-404" y="576" type="line"/>
		</contour>
	</outline>
</glyph>
<glyph name="less_bar_greater.cLig" format="2">
	<advance width="600"/>
	<outline>
		<contour>
			<point x="-359" y="-163" type="line"/>
			<point x="-241" y="-163" type="line"/>
			<point x="-241" y="792" type="line"/>
			<point x="-359" y="792" type="line"/>
		</contour>
		<contour>
			<point x="-519" y="-78" type="line"/>
			<point x="-519" y="54" type="line"/>
			<point x="-942" y="317" type="line"/>
			<point x="-519" y="572" type="line"/>
			<point x="-519" y="708" type="line"/>
			<point x="-1050" y="383" type="line"/>
			<point x="-1050" y="246" type="line"/>
		</contour>
		<contour>
			<point x="-81" y="-79" type="line"/>
			<point x="450" y="246" type="line"/>
			<point x="450" y="383" type="line"/>
			<point x="-81" y="708" type="line"/>
			<point x="-81" y="576" type="line"/>
			<point x="342" y="313" type="line"/>
			<point x="-81" y="58" type="line"/>
		</contour>
	</outline>
</glyph>
<glyph name="less_dollar_greater.cLig" format="2">
	<advance width="600"/>
	<outline>
		<contour>
			<point x="-415" y="-93" type="line"/>
			<point x="-330" y="-93" type="line"/>
			<point x="-317" y="-11" type="line"/>
			<point x="-302" y="-11" type="line" smooth="yes"/>
			<point x="-148" y="-11"/>
			<point x="-48" y="65"/>
			<point x="-48" y="211" type="curve" smooth="yes"/>
			<point x="-48" y="341"/>
			<point x="-145" y="375"/>
			<point x="-259" y="396" type="curve"/>
			<point x="-227" y="590" type="line"/>
			<point x="-142" y="577"/>
			<point x="-65" y="539"/>
			<point x="57" y="481" type="curve" smooth="yes"/>
			<point x="405" y="315" type="line"/>
			<point x="73" y="155" type="line"/>
			<point x="73" y="34" type="line"/>
			<point x="500" y="245" type="line"/>
			<point x="500" y="383" type="line"/>
			<point x="106" y="577" type="line" smooth="yes"/>
			<point x="11" y="624"/>
			<point x="-96" y="670"/>
			<point x="-201" y="688" type="curve"/>
			<point x="-187" y="774" type="line"/>
			<point x="-273" y="774" type="line"/>
			<point x="-286" y="695" type="line"/>
			<point x="-290" y="695" type="line" smooth="yes"/>
			<point x="-447" y="695"/>
			<point x="-554" y="621"/>
			<point x="-554" y="481" type="curve" smooth="yes"/>
			<point x="-554" y="345"/>
			<point x="-464" y="312"/>
			<point x="-344" y="290" type="curve"/>
			<point x="-376" y="97" type="line"/>
			<point x="-455" y="108"/>
			<point x="-545" y="135"/>
			<point x="-646" y="176" type="curve" smooth="yes"/>
			<point x="-998" y="319" type="line"/>
			<point x="-673" y="477" type="line"/>
			<point x="-673" y="598" type="line"/>
			<point x="-1100" y="385" type="line"/>
			<point x="-1100" y="247" type="line"/>
			<point x="-691" y="76" type="line" smooth="yes"/>
			<point x="-589" y="36"/>
			<point x="-492" y="8"/>
			<point x="-401" y="-4" type="curve"/>
		</contour>
		<contour>
			<point x="-430" y="495" type="curve" smooth="yes"/>
			<point x="-430" y="562"/>
			<point x="-374" y="593"/>
			<point x="-294" y="594" type="curve"/>
			<point x="-325" y="407" type="line"/>
			<point x="-389" y="420"/>
			<point x="-430" y="437"/>
		</contour>
		<contour>
			<point x="-173" y="192" type="curve" smooth="yes"/>
			<point x="-173" y="124"/>
			<point x="-221" y="93"/>
			<point x="-307" y="93" type="curve" smooth="yes"/>
			<point x="-309" y="93" type="line"/>
			<point x="-278" y="278" type="line"/>
			<point x="-214" y="266"/>
			<point x="-173" y="249"/>
		</contour>
	</outline>
</glyph>
<glyph name="less_equal_bar.rem" format="2">
	<advance width="600"/>
	<outline>
		<contour>
			<point x="435" y="0" type="line"/>
			<point x="435" y="629" type="line"/>
			<point x="318" y="629" type="line"/>
			<point x="318" y="478" type="line"/>
			<point x="-794" y="478" type="line"/>
			<point x="-665" y="629" type="line"/>
			<point x="-809" y="629" type="line"/>
			<point x="-1078" y="315" type="line"/>
			<point x="-806" y="0" type="line"/>
			<point x="-662" y="0" type="line"/>
			<point x="-794" y="151" type="line"/>
			<point x="318" y="151" type="line"/>
			<point x="318" y="0" type="line"/>
		</contour>
		<contour>
			<point x="-934" y="314" type="line"/>
			<point x="-885" y="371" type="line"/>
			<point x="318" y="371" type="line"/>
			<point x="318" y="258" type="line"/>
			<point x="-886" y="258" type="line"/>
		</contour>
	</outline>
</glyph>
<glyph name="less_equal_equal_greater.rem" format="2">
	<advance width="600"/>
	<outline>
		<contour>
			<point x="65" y="0" type="line"/>
			<point x="209" y="0" type="line"/>
			<point x="478" y="314" type="line"/>
			<point x="206" y="629" type="line"/>
			<point x="62" y="629" type="line"/>
			<point x="194" y="478" type="line"/>
			<point x="-1394" y="478" type="line"/>
			<point x="-1265" y="629" type="line"/>
			<point x="-1409" y="629" type="line"/>
			<point x="-1678" y="315" type="line"/>
			<point x="-1406" y="0" type="line"/>
			<point x="-1262" y="0" type="line"/>
			<point x="-1394" y="151" type="line"/>
			<point x="194" y="151" type="line"/>
		</contour>
		<contour>
			<point x="334" y="315" type="line"/>
			<point x="285" y="258" type="line"/>
			<point x="-1486" y="258" type="line"/>
			<point x="-1534" y="314" type="line"/>
			<point x="-1485" y="371" type="line"/>
			<point x="286" y="371" type="line"/>
		</contour>
	</outline>
</glyph>
<glyph name="less_equal_less.rem" format="2">
	<advance width="600"/>
	<outline>
		<contour>
			<point x="271" y="258" type="line"/>
			<point x="-893" y="258" type="line"/>
			<point x="-941" y="314" type="line"/>
			<point x="-892" y="371" type="line"/>
			<point x="271" y="371" type="line"/>
			<point x="485" y="629" type="line"/>
			<point x="340" y="629" type="line"/>
			<point x="215" y="478" type="line"/>
			<point x="-801" y="478" type="line"/>
			<point x="-672" y="629" type="line"/>
			<point x="-816" y="629" type="line"/>
			<point x="-1085" y="315" type="line"/>
			<point x="-813" y="0" type="line"/>
			<point x="-669" y="0" type="line"/>
			<point x="-801" y="151" type="line"/>
			<point x="216" y="151" type="line"/>
			<point x="343" y="0" type="line"/>
			<point x="488" y="0" type="line"/>
		</contour>
	</outline>
</glyph>
<glyph name="less_greater.cLig" format="2">
	<advance width="600"/>
	<outline>
		<contour>
			<point x="0" y="-84" type="line"/>
			<point x="452" y="245" type="line"/>
			<point x="452" y="383" type="line"/>
			<point x="0" y="707" type="line"/>
			<point x="-452" y="384" type="line"/>
			<point x="-452" y="246" type="line"/>
		</contour>
		<contour>
			<point x="0" y="576" type="line"/>
			<point x="364" y="314" type="line"/>
			<point x="0" y="48" type="line"/>
			<point x="-364" y="315" type="line"/>
		</contour>
	</outline>
</glyph>
<glyph name="less_hyphen_greater.rem" format="2">
	<advance width="600"/>
	<outline>
		<contour>
			<point x="-655" y="0" type="line"/>
			<point x="-891" y="258" type="line"/>
			<point x="292" y="258" type="line"/>
			<point x="58" y="0" type="line"/>
			<point x="204" y="0" type="line"/>
			<point x="477" y="314" type="line"/>
			<point x="201" y="629" type="line"/>
			<point x="55" y="629" type="line"/>
			<point x="291" y="371" type="line"/>
			<point x="-892" y="371" type="line"/>
			<point x="-658" y="629" type="line"/>
			<point x="-804" y="629" type="line"/>
			<point x="-1077" y="315" type="line"/>
			<point x="-801" y="0" type="line"/>
		</contour>
	</outline>
</glyph>
<glyph name="less_hyphen_less.rem" format="2">
	<advance width="600"/>
	<outline>
		<contour>
			<point x="-651" y="-1" type="line"/>
			<point x="-887" y="257" type="line"/>
			<point x="106" y="257" type="line"/>
			<point x="329" y="-1" type="line"/>
			<point x="476" y="-1" type="line"/>
			<point x="205" y="314" type="line"/>
			<point x="473" y="628" type="line"/>
			<point x="326" y="628" type="line"/>
			<point x="104" y="370" type="line"/>
			<point x="-888" y="370" type="line"/>
			<point x="-654" y="628" type="line"/>
			<point x="-800" y="628" type="line"/>
			<point x="-1073" y="314" type="line"/>
			<point x="-797" y="-1" type="line"/>
		</contour>
	</outline>
</glyph>
<glyph name="less_less_equal.init" format="2">
	<advance width="600"/>
	<outline>
		<contour>
			<point x="-71" y="629" type="line"/>
			<point x="-215" y="629" type="line"/>
			<point x="-485" y="315" type="line"/>
			<point x="-212" y="0" type="line"/>
			<point x="-68" y="0" type="line"/>
			<point x="-338" y="313" type="line"/>
		</contour>
		<contour>
			<point x="600" y="478" type="line"/>
			<point x="182" y="478" type="line"/>
			<point x="311" y="629" type="line"/>
			<point x="168" y="629" type="line"/>
			<point x="-101" y="315" type="line"/>
			<point x="171" y="0" type="line"/>
			<point x="314" y="0" type="line"/>
			<point x="183" y="151" type="line"/>
			<point x="600" y="151" type="line"/>
			<point x="600" y="258" type="line"/>
			<point x="90" y="258" type="line"/>
			<point x="42" y="314" type="line"/>
			<point x="91" y="371" type="line"/>
			<point x="600" y="371" type="line"/>
		</contour>
	</outline>
</glyph>
<glyph name="less_less_hyphen.fina" format="2">
	<advance width="600"/>
	<outline>
		<contour>
			<point x="513" y="629" type="line"/>
			<point x="366" y="629" type="line"/>
			<point x="95" y="315" type="line"/>
			<point x="369" y="0" type="line"/>
			<point x="516" y="0" type="line"/>
			<point x="242" y="314" type="line"/>
		</contour>
		<contour>
			<point x="126" y="629" type="line"/>
			<point x="-20" y="629" type="line"/>
			<point x="-243" y="371" type="line"/>
			<point x="-600" y="371" type="line"/>
			<point x="-600" y="258" type="line"/>
			<point x="-241" y="258" type="line"/>
			<point x="-17" y="0" type="line"/>
			<point x="129" y="0" type="line"/>
			<point x="-142" y="315" type="line"/>
		</contour>
	</outline>
</glyph>
